<?xml version="1.0" standalone="no"?>
<!DOCTYPE svg PUBLIC "-//W3C//DTD SVG 20010904//EN"
 "http://www.w3.org/TR/2001/REC-SVG-20010904/DTD/svg10.dtd">
<svg version="1.0" xmlns="http://www.w3.org/2000/svg"
 width="168.000000pt" height="177.000000pt" viewBox="0 0 168.000000 177.000000"
 preserveAspectRatio="xMidYMid meet">
<metadata>
Created by potrace 1.10, written by Peter Selinger 2001-2011
</metadata>
<g transform="translate(0.000000,177.000000) scale(0.100000,-0.100000)"
fill="#2be506" stroke="none">
<path d="M494 1726 c-40 -22 -54 -38 -54 -62 0 -18 -5 -24 -23 -24 -24 0 -58
-37 -70 -75 -8 -24 -54 -75 -67 -75 -5 0 -12 -12 -16 -27 -3 -16 -12 -41 -19
-58 -16 -39 -29 -235 -15 -235 6 0 10 -21 9 -50 -1 -27 3 -55 9 -62 6 -8 14
-38 18 -68 3 -30 12 -68 20 -85 25 -58 34 -112 33 -202 -1 -76 2 -99 22 -141
13 -28 29 -51 35 -52 15 0 37 -53 32 -77 -2 -10 -13 -19 -26 -21 -12 -2 -22
-8 -22 -13 0 -15 -132 -10 -160 6 -14 8 -35 14 -48 15 -12 0 -31 9 -41 19 -11
11 -40 23 -65 26 -45 7 -46 6 -46 -19 0 -19 4 -24 15 -20 9 4 28 2 43 -4 15
-6 36 -14 47 -18 11 -4 26 -6 34 -5 8 1 17 -3 21 -10 5 -6 28 -11 54 -11 30 1
44 -2 40 -9 -3 -6 -8 -8 -11 -5 -8 7 -43 -13 -43 -24 0 -5 6 -8 13 -6 6 3 25
7 40 10 15 4 25 11 22 16 -4 6 12 8 39 6 32 -3 46 -1 50 10 3 8 16 14 28 14
13 0 32 7 42 15 10 8 24 11 30 8 6 -4 6 0 -1 9 -7 8 -9 18 -5 23 4 4 -2 5 -13
1 -16 -5 -21 -1 -22 15 -1 12 -14 34 -28 49 -14 14 -22 29 -18 33 8 9 110 -98
119 -125 7 -23 4 -27 -22 -31 -11 -1 -36 -12 -55 -23 -23 -14 -46 -19 -66 -17
-30 5 -53 -10 -33 -22 5 -3 10 0 10 7 0 8 5 6 11 -5 9 -16 12 -16 32 -2 12 8
31 15 44 15 12 0 25 5 28 10 4 6 11 7 17 4 7 -4 8 -2 4 4 -6 11 6 17 27 13 4
-1 18 8 30 20 12 11 16 19 8 17 -16 -3 -36 45 -27 67 10 28 29 17 21 -12 -6
-26 -5 -27 8 -9 10 13 16 15 21 8 4 -7 2 -12 -3 -12 -6 0 -11 -3 -11 -7 0 -10
50 -14 70 -6 8 3 21 7 28 9 21 4 25 12 17 31 -8 17 -8 17 -12 1 -5 -22 -8 -22
-38 -2 -17 11 -25 13 -25 4 0 -6 -6 -10 -12 -7 -7 2 -12 9 -11 14 2 11 -40 10
-77 -2 -24 -7 -25 -7 -7 12 17 20 17 20 -6 18 -19 -2 -27 6 -45 45 -12 26 -30
79 -39 116 -10 38 -26 75 -36 82 -21 16 -22 32 -2 32 8 0 15 5 15 10 0 6 -7
10 -15 10 -8 0 -15 8 -15 18 0 13 2 14 9 4 7 -11 9 -11 14 2 4 9 4 22 1 29
-11 30 -19 185 -9 182 5 -1 7 0 3 2 -5 3 -8 10 -8 16 0 11 24 13 136 9 37 -2
42 -5 51 -36 12 -38 7 -50 -22 -53 -11 -2 -35 -5 -54 -9 -22 -4 -31 -2 -26 5
3 6 -1 11 -9 11 -23 0 -19 -15 7 -27 17 -8 33 -7 60 2 41 14 54 6 37 -24 -19
-37 -30 -71 -21 -71 14 0 51 101 51 140 0 47 -36 86 -82 89 -72 5 -94 3 -126
-9 -26 -10 -31 -15 -20 -22 10 -8 10 -9 0 -6 -8 2 -13 6 -12 8 7 36 14 48 24
44 8 -3 35 30 67 78 74 112 71 108 103 140 16 15 25 28 21 28 -4 0 -1 8 7 18
9 9 18 26 20 37 2 11 10 20 18 20 32 1 53 23 56 59 2 26 -1 36 -9 33 -7 -2
-12 -19 -12 -37 0 -18 -6 -35 -13 -37 -8 -3 -10 2 -6 14 4 10 -7 3 -24 -16
-17 -19 -29 -38 -26 -43 6 -9 -32 -48 -48 -48 -6 0 -9 -3 -5 -6 6 -6 -108
-173 -127 -186 -6 -4 -7 -8 -3 -8 12 0 -14 -25 -42 -40 -21 -11 -23 -10 -18 5
4 9 7 18 7 21 0 2 7 1 15 -2 8 -4 15 -1 15 5 0 6 -4 11 -9 11 -5 0 -9 26 -9
58 1 53 1 55 10 23 5 -18 11 -31 13 -29 3 2 0 20 -5 38 -7 23 -6 36 1 41 6 3
10 9 10 13 -4 31 0 38 14 26 8 -7 15 -20 15 -29 0 -9 7 -25 15 -35 15 -20 15
-20 15 0 0 11 -7 29 -15 40 -20 27 -18 54 6 80 36 38 16 44 -26 8 -25 -21 -32
-32 -20 -28 19 5 19 5 1 -7 -31 -19 -66 -63 -61 -76 2 -7 -2 -13 -9 -13 -9 0
-17 16 -21 41 -6 33 -3 43 12 55 10 9 11 12 3 8 -12 -5 -13 -4 -3 6 10 11 15
11 30 -1 17 -13 17 -13 3 5 -8 10 -16 29 -17 42 -3 19 0 22 14 17 15 -6 16 -4
6 8 -10 12 -8 17 8 27 11 7 24 10 29 7 4 -3 18 9 31 26 l22 31 -22 -7 c-12 -4
-21 -2 -21 4 0 6 4 11 9 11 5 0 12 9 16 19 3 11 15 23 26 26 10 4 17 10 14 15
-3 4 7 11 21 14 17 5 24 12 20 21 -6 18 -1 19 25 5 13 -7 19 -7 19 0 0 5 8 10
18 10 14 0 15 2 2 10 -10 6 -16 6 -18 0 -6 -16 -32 -11 -32 5 0 8 6 15 14 15
8 0 16 6 19 13 3 8 16 13 29 12 12 -1 29 2 36 8 9 7 12 3 12 -17 0 -31 15 -35
23 -6 3 11 13 20 22 20 9 0 13 -4 10 -10 -4 -7 3 -7 19 0 24 9 30 6 27 -12 0
-5 6 -8 15 -8 8 0 13 4 10 9 -3 4 18 7 47 6 50 -2 52 -3 52 -31 0 -32 30 -53
49 -34 7 7 3 10 -11 10 -35 0 -36 18 -2 25 17 4 33 4 36 1 12 -12 9 -56 -4
-56 -7 0 -13 -7 -13 -15 0 -17 -16 -20 -25 -5 -3 6 -13 10 -21 10 -8 0 -14 -4
-14 -10 0 -5 6 -10 14 -10 12 0 26 -20 26 -37 0 -3 -12 -3 -27 0 -26 5 -26 4
-9 -9 11 -7 29 -11 42 -8 12 3 25 1 28 -5 4 -6 -1 -11 -11 -11 -13 0 -19 -8
-21 -27 -1 -15 -7 -30 -13 -34 -6 -3 -1 -9 12 -12 13 -4 25 -4 28 -2 2 3 -1 5
-7 5 -7 0 -12 10 -12 23 0 24 35 53 45 37 3 -6 11 -10 16 -10 6 0 3 7 -5 16
-9 8 -16 24 -16 34 0 13 -6 18 -20 15 -11 -2 -20 0 -20 4 0 11 39 51 51 51 6
0 6 6 0 18 -6 11 -6 24 1 36 7 13 7 17 0 12 -6 -3 -14 -1 -17 5 -5 7 -1 9 11
7 11 -2 18 -9 17 -15 -1 -6 5 -14 14 -17 12 -5 14 -2 10 14 -6 23 2 25 27 7
17 -12 17 -14 2 -20 -9 -4 -16 -13 -16 -20 0 -8 -11 -27 -25 -43 -29 -34 -30
-40 -10 -48 10 -4 15 1 15 15 0 13 8 23 20 26 14 4 17 9 11 17 -11 13 14 54
26 42 8 -7 9 -11 12 -38 1 -10 4 -9 10 1 5 7 14 11 20 7 10 -7 36 -84 33 -98
-1 -5 2 -8 8 -8 5 0 10 9 10 20 0 11 -4 20 -9 20 -5 0 -11 11 -13 25 -4 17 -1
25 9 25 18 0 43 -24 43 -42 1 -7 7 -2 14 11 l14 25 14 -30 c16 -32 17 -43 5
-61 -5 -8 -3 -13 5 -13 17 0 50 -74 42 -95 -3 -8 -1 -15 5 -15 17 0 13 52 -8
93 -31 62 -32 74 -3 71 14 -1 29 -10 34 -19 5 -8 13 -13 18 -10 14 9 37 -46
35 -82 -1 -18 2 -33 7 -33 4 0 8 -5 8 -11 0 -5 -6 -7 -12 -3 -9 6 -9 3 1 -9 8
-10 10 -24 6 -34 -5 -10 -7 -27 -6 -37 2 -13 -2 -17 -13 -13 -8 3 -18 2 -21
-3 -4 -6 -18 -10 -31 -10 -16 0 -24 -5 -21 -12 4 -14 50 -11 55 3 9 24 24 6
20 -23 -3 -18 -2 -45 2 -60 10 -34 -14 -58 -50 -48 -32 8 -32 27 -1 43 14 7
26 19 28 27 3 10 1 9 -7 -2 -6 -10 -22 -18 -34 -18 -13 0 -27 -7 -30 -16 -9
-23 -7 -36 4 -29 6 3 10 2 10 -4 0 -5 -8 -12 -17 -14 -10 -3 2 -5 27 -6 39 -1
48 -5 63 -30 9 -16 17 -37 17 -46 0 -9 4 -14 9 -11 5 4 11 3 13 -1 5 -12 77
-43 100 -43 38 0 0 28 -47 36 -41 6 -44 8 -50 44 -4 23 -2 47 6 61 11 21 10
77 -6 306 -2 25 -11 50 -24 64 -12 13 -21 26 -21 30 0 4 -8 9 -17 13 -10 3
-25 10 -33 15 -8 5 -26 14 -40 20 -14 6 -38 20 -55 30 -16 11 -42 20 -57 20
-18 1 -42 15 -68 40 l-40 39 -183 11 c-217 13 -255 13 -283 -3z m351 -20 c18
-13 18 -13 -5 -12 -13 0 -25 7 -28 14 -5 16 10 15 33 -2z m-495 -196 c0 -5 -5
-10 -11 -10 -5 0 -7 5 -4 10 3 6 8 10 11 10 2 0 4 -4 4 -10z m-75 -270 c12
-23 12 -30 3 -28 -15 3 -14 -72 1 -107 4 -11 15 -36 24 -56 18 -41 15 -49 -14
-42 -15 4 -17 8 -8 14 10 6 10 12 -4 27 -9 10 -19 40 -22 66 -2 26 -8 52 -12
59 -12 19 -12 37 -1 37 6 0 8 12 5 30 -8 39 8 39 28 0z m1021 -17 c-11 -11
-17 4 -9 23 7 18 8 18 11 1 2 -10 1 -21 -2 -24z m19 -50 c-5 -10 -7 -21 -7
-25 1 -5 -2 -8 -8 -8 -5 0 -10 7 -10 15 0 8 5 15 10 15 6 0 9 3 9 8 -3 15 1
25 7 19 4 -3 3 -14 -1 -24z m-1015 7 c0 -5 -2 -10 -4 -10 -3 0 -8 5 -11 10 -3
6 -1 10 4 10 6 0 11 -4 11 -10z m17 -206 c-3 -3 -1 -20 3 -38 5 -24 4 -33 -6
-33 -9 0 -14 12 -14 34 0 18 -4 33 -10 33 -5 0 -10 7 -10 15 0 13 4 14 21 5
11 -7 19 -14 16 -16z m23 -115 c0 -5 -4 -9 -10 -9 -5 0 -10 7 -10 16 0 8 5 12
10 9 6 -3 10 -10 10 -16z m20 -176 c0 -7 -4 -13 -10 -13 -5 0 -10 12 -10 28 0
21 2 24 10 12 5 -8 10 -21 10 -27z m4 -32 c3 -5 -1 -14 -9 -21 -13 -10 -15 -9
-15 9 0 21 14 28 24 12z m20 -29 c2 -4 1 -14 -3 -21 -6 -9 -10 -7 -14 8 -5 20
7 29 17 13z m-31 -26 c4 -10 1 -13 -8 -9 -8 3 -12 9 -9 14 7 12 11 11 17 -5z
m250 -141 c0 -6 -7 -11 -16 -13 -12 -3 -15 1 -11 13 7 17 25 17 27 0z m-553 1
c0 -3 -4 -8 -10 -11 -5 -3 -10 -1 -10 4 0 6 5 11 10 11 6 0 10 -2 10 -4z"/>
<path d="M520 1689 c0 -5 5 -7 10 -4 6 3 10 8 10 11 0 2 -4 4 -10 4 -5 0 -10
-5 -10 -11z"/>
<path d="M760 1680 c0 -9 -11 -11 -40 -6 -25 4 -40 2 -40 -4 0 -13 77 -13 85
1 4 6 4 13 1 16 -3 4 -6 1 -6 -7z"/>
<path d="M600 1660 c0 -9 29 -15 53 -11 4 0 7 -4 7 -10 0 -6 -7 -9 -15 -5 -11
4 -14 -1 -13 -19 2 -21 4 -22 18 -10 8 8 35 14 58 13 38 0 43 -3 39 -20 -4
-15 -2 -17 7 -9 7 6 16 8 19 4 4 -3 7 -2 7 4 0 19 -35 40 -67 41 -18 0 -43 8
-55 16 -25 18 -58 21 -58 6z"/>
<path d="M545 1650 c-3 -5 -3 -15 1 -21 4 -7 1 -10 -6 -7 -8 2 -22 -4 -32 -14
-22 -22 -23 -28 -3 -28 8 0 15 4 15 9 0 5 10 7 23 4 12 -3 19 -2 15 2 -4 5 -3
14 3 22 8 9 8 13 1 13 -6 0 -9 7 -6 15 7 17 -1 20 -11 5z"/>
<path d="M580 1603 c-26 -49 -42 -74 -57 -91 -7 -7 -13 -22 -13 -32 0 -20 -37
-90 -55 -102 -5 -4 -17 -12 -25 -17 -13 -9 -13 -12 -1 -23 8 -7 11 -8 8 -2 -4
7 0 14 8 18 8 3 24 20 35 38 11 18 20 29 20 24 0 -4 8 2 19 15 10 13 16 29 14
36 -3 7 2 13 11 13 9 0 16 5 16 11 0 5 -4 7 -10 4 -13 -8 -13 8 2 40 8 18 14
22 20 13 6 -10 8 -10 8 0 0 6 7 12 16 12 14 0 15 2 3 17 -15 17 -14 22 9 39
10 8 12 13 4 18 -7 4 -20 -9 -32 -31z"/>
<path d="M990 1577 c0 -19 16 -31 24 -18 3 5 -1 14 -9 21 -12 10 -15 10 -15
-3z"/>
<path d="M640 1564 c1 -27 26 -57 52 -61 12 -2 27 -8 35 -14 10 -9 13 -7 13
10 0 11 4 21 9 21 13 0 22 -30 14 -43 -3 -7 -3 -9 2 -5 4 4 16 3 26 -3 27 -14
24 6 -3 25 -12 9 -18 16 -13 16 5 0 1 6 -9 13 -16 12 -17 17 -6 38 12 21 11
22 -2 12 -8 -7 -18 -9 -23 -5 -4 4 -5 0 -3 -8 7 -20 -9 -50 -26 -50 -15 0 -49
34 -41 42 3 3 -1 11 -10 18 -12 10 -15 9 -15 -6z"/>
<path d="M463 1555 c-7 -8 -8 -16 -2 -22 6 -6 4 -14 -6 -23 -8 -7 -15 -18 -15
-24 0 -6 -9 -12 -20 -12 -11 0 -20 4 -20 8 0 4 -5 8 -11 8 -5 0 -7 -5 -3 -11
3 -6 0 -15 -7 -20 -26 -15 -1 -20 32 -6 37 16 105 84 95 94 -3 4 -6 1 -6 -5 0
-20 -18 -13 -22 7 -2 15 -5 16 -15 6z"/>
<path d="M955 1560 c5 -8 2 -18 -9 -26 -18 -13 -5 -31 14 -19 14 8 13 42 -2
51 -7 5 -8 3 -3 -6z"/>
<path d="M692 1548 c2 -6 10 -14 16 -16 7 -2 10 2 6 12 -7 18 -28 22 -22 4z"/>
<path d="M1203 1539 c3 -15 41 -69 49 -69 2 0 4 9 4 19 0 11 -3 18 -7 15 -4
-2 -16 8 -27 23 -12 16 -20 21 -19 12z"/>
<path d="M1010 1530 c-9 -6 -10 -10 -3 -10 6 0 15 5 18 10 8 12 4 12 -15 0z"/>
<path d="M1120 1532 c0 -5 7 -9 15 -9 8 0 12 4 9 9 -3 4 -9 8 -15 8 -5 0 -9
-4 -9 -8z"/>
<path d="M401 1511 c-9 -6 -10 -11 -2 -15 6 -4 18 0 27 8 12 12 12 16 2 16 -7
0 -19 -4 -27 -9z"/>
<path d="M976 1483 c4 -16 11 -31 17 -34 5 -4 6 -16 2 -28 -5 -16 -3 -20 9
-15 19 7 19 9 4 37 -7 12 -11 32 -9 45 2 15 -3 22 -13 22 -13 0 -15 -6 -10
-27z"/>
<path d="M1030 1501 c0 -6 5 -13 10 -16 6 -3 10 1 10 9 0 9 -4 16 -10 16 -5 0
-10 -4 -10 -9z"/>
<path d="M687 1469 c6 -20 22 -36 24 -22 0 4 2 15 4 23 1 9 -5 16 -15 17 -13
1 -16 -4 -13 -18z"/>
<path d="M886 1475 c4 -8 8 -15 10 -15 2 0 4 7 4 15 0 8 -4 15 -10 15 -5 0 -7
-7 -4 -15z"/>
<path d="M1055 1460 c-10 -11 -16 -22 -13 -25 5 -6 48 29 48 39 0 12 -17 6
-35 -14z"/>
<path d="M730 1459 c0 -5 5 -7 10 -4 6 3 10 8 10 11 0 2 -4 4 -10 4 -5 0 -10
-5 -10 -11z"/>
<path d="M1102 1449 c-11 -17 -11 -24 -1 -33 9 -8 11 -7 6 7 -4 9 -2 17 2 17
5 0 11 7 15 15 8 22 -7 18 -22 -6z"/>
<path d="M770 1452 c0 -4 10 -16 21 -26 15 -13 24 -15 32 -7 8 8 7 11 -5 11
-9 0 -18 7 -22 15 -6 15 -26 21 -26 7z"/>
<path d="M915 1450 c4 -6 10 -8 15 -5 8 5 23 -31 25 -57 0 -3 3 -10 8 -14 10
-10 9 4 -4 49 -7 27 -15 37 -30 37 -11 0 -17 -5 -14 -10z"/>
<path d="M1250 1449 c0 -5 5 -7 10 -4 6 3 10 8 10 11 0 2 -4 4 -10 4 -5 0 -10
-5 -10 -11z"/>
<path d="M635 1438 c-21 -12 -39 -35 -40 -53 -1 -5 -4 -21 -7 -35 -16 -60 -39
-201 -36 -217 1 -10 -1 -24 -5 -30 -5 -8 -3 -13 7 -13 12 0 14 9 12 38 -2 20
2 62 9 92 7 30 17 80 24 110 6 30 13 62 14 70 2 8 14 20 26 26 12 6 24 14 28
18 10 10 -10 6 -32 -6z"/>
<path d="M1155 1430 c-3 -5 -1 -10 5 -10 7 0 9 -7 6 -16 -3 -8 -2 -12 4 -9 13
8 13 32 1 40 -5 3 -12 1 -16 -5z"/>
<path d="M690 1426 c0 -2 11 -6 25 -8 13 -3 22 -1 19 3 -5 9 -44 13 -44 5z"/>
<path d="M1060 1410 c0 -11 -5 -20 -11 -20 -5 0 -7 -5 -3 -11 4 -8 9 -8 17 0
14 14 19 51 7 51 -6 0 -10 -9 -10 -20z"/>
<path d="M878 1388 c3 -18 6 -50 6 -70 0 -45 3 -47 17 -11 7 20 7 40 -2 70
-14 50 -32 59 -21 11z"/>
<path d="M910 1410 c0 -5 5 -10 11 -10 5 0 7 5 4 10 -3 6 -8 10 -11 10 -2 0
-4 -4 -4 -10z"/>
<path d="M1011 1390 c-14 -8 -21 -50 -22 -113 0 -24 -2 -27 -14 -17 -12 10
-15 10 -15 0 0 -6 9 -14 20 -17 15 -4 18 -11 14 -32 -6 -30 10 -81 26 -81 7 0
8 6 0 19 -13 26 -13 34 3 25 9 -6 9 -4 2 7 -6 8 -10 36 -9 64 1 36 6 52 20 60
10 5 24 16 32 23 16 15 42 16 42 1 0 -12 -22 -36 -32 -35 -3 1 -10 -2 -14 -6
-4 -5 0 -8 9 -8 8 0 25 12 36 26 22 28 28 50 11 39 -5 -3 -10 -2 -10 3 0 5 9
12 21 15 12 3 18 10 15 16 -6 9 -90 -31 -101 -50 -4 -5 -12 -9 -20 -9 -19 0
-23 43 -5 57 18 14 10 25 -9 13z"/>
<path d="M1261 1373 c-1 -32 11 -44 24 -23 3 6 2 10 -4 10 -5 0 -12 10 -14 23
-3 16 -5 13 -6 -10z"/>
<path d="M687 1382 c10 -6 6 -20 -13 -56 -14 -26 -24 -50 -21 -52 2 -2 10 8
18 24 8 15 17 29 20 32 3 3 9 17 13 33 5 22 3 27 -11 27 -13 0 -14 -3 -6 -8z"/>
<path d="M385 1369 c-11 -16 -1 -19 13 -3 7 8 8 14 3 14 -5 0 -13 -5 -16 -11z"/>
<path d="M1157 1356 c-4 -10 -1 -13 9 -9 15 6 19 23 5 23 -5 0 -11 -7 -14 -14z"/>
<path d="M1211 1338 c0 -16 1 -28 3 -28 13 0 36 13 36 21 0 4 -6 6 -14 3 -8
-3 -16 2 -19 13 -3 12 -5 9 -6 -9z"/>
<path d="M400 1330 c0 -5 5 -10 11 -10 5 0 7 -5 3 -12 -4 -7 -3 -8 5 -4 9 6 9
11 0 22 -14 17 -19 18 -19 4z"/>
<path d="M950 1329 c0 -5 5 -7 10 -4 6 3 10 8 10 11 0 2 -4 4 -10 4 -5 0 -10
-5 -10 -11z"/>
<path d="M707 1289 c7 -7 15 -10 18 -7 3 3 -2 9 -12 12 -14 6 -15 5 -6 -5z"/>
<path d="M1126 1285 c-11 -8 -14 -15 -8 -15 22 0 12 -20 -15 -31 -32 -12 -43
-26 -43 -56 0 -13 -5 -23 -10 -23 -6 0 -4 -14 4 -34 8 -19 11 -37 8 -41 -4 -3
0 -10 7 -15 16 -9 20 -103 6 -134 -6 -14 -5 -17 3 -12 7 4 12 2 12 -3 0 -6 -6
-11 -12 -11 -8 0 -5 -7 6 -15 11 -8 14 -15 8 -15 -7 0 -12 -9 -12 -19 0 -10
-6 -21 -14 -24 -9 -3 -12 -15 -9 -31 3 -15 1 -26 -6 -26 -5 0 -8 -7 -4 -16 4
-10 0 -20 -10 -26 -10 -5 -17 -14 -17 -21 0 -7 4 -6 10 3 8 12 10 11 10 -5 0
-20 -20 -56 -47 -83 -7 -7 -13 -18 -13 -23 0 -6 -9 -7 -20 -4 -11 4 -20 2 -20
-4 0 -6 5 -11 11 -11 5 0 7 -4 4 -10 -3 -5 -1 -10 5 -10 15 0 65 42 66 55 0 6
8 28 18 49 19 43 27 71 29 99 1 9 7 17 14 17 6 0 16 8 22 17 16 30 23 7 25
-84 2 -102 8 -118 37 -100 10 6 17 18 14 24 -2 8 3 13 14 13 10 0 26 9 36 20
20 23 37 27 29 7 -2 -7 4 -13 16 -14 11 -1 20 2 20 8 0 5 -3 9 -7 9 -5 0 -9
55 -11 123 -2 123 9 183 33 173 15 -5 16 26 1 36 -18 12 -26 9 -20 -7 4 -8 2
-15 -3 -15 -5 0 -20 -23 -32 -51 -23 -49 -47 -70 -126 -109 -16 -8 -35 -22
-42 -30 -22 -27 -14 6 10 41 17 24 29 33 45 31 12 -2 22 2 22 7 0 6 -14 11
-31 11 -24 0 -30 4 -27 18 2 11 13 17 33 18 17 0 39 5 50 12 16 9 11 10 -32 7
l-51 -3 3 59 c2 46 -1 62 -12 66 -8 3 -12 12 -9 19 3 8 0 14 -7 14 -21 0 -13
92 9 105 21 12 44 33 63 58 12 15 12 17 -4 11 -13 -5 -16 -4 -11 4 9 15 5 15
-18 -3z m136 -445 c2 -42 1 -48 -9 -33 -7 9 -13 12 -13 6 0 -6 -11 -8 -25 -5
-14 2 -25 0 -25 -6 0 -5 15 -13 34 -16 19 -4 39 -13 46 -21 10 -12 4 -12 -40
1 -55 16 -82 12 -35 -6 33 -13 28 -24 -8 -15 -21 6 -25 12 -24 41 1 18 4 29 8
23 3 -6 9 0 13 15 3 14 11 26 17 26 6 0 8 -4 4 -9 -3 -5 -1 -13 5 -16 6 -4 9
-1 8 7 -2 7 3 12 10 10 8 -1 11 2 7 8 -3 5 -2 10 4 10 6 0 8 7 5 15 -4 8 -2
15 4 15 6 0 12 -23 14 -50z m-58 -146 c-18 -27 -26 -31 -18 -9 5 13 -5 19 -27
17 -4 -1 -5 7 -2 17 4 17 9 18 34 9 27 -9 28 -11 13 -34z m63 31 c0 -10 -6
-14 -14 -10 -8 3 -17 5 -19 5 -3 0 -2 5 1 10 10 16 32 12 32 -5z m-99 -70 c-3
-3 -9 2 -12 12 -6 14 -5 15 5 6 7 -7 10 -15 7 -18z"/>
<path d="M631 1229 c-7 -16 -11 -35 -8 -41 2 -7 9 4 16 25 16 46 10 57 -8 16z"/>
<path d="M728 1253 c7 -3 16 -2 19 1 4 3 -2 6 -13 5 -11 0 -14 -3 -6 -6z"/>
<path d="M496 1213 c-6 -14 -5 -15 5 -6 7 7 10 15 7 18 -3 3 -9 -2 -12 -12z"/>
<path d="M1205 1220 c-3 -5 -1 -10 4 -10 6 0 11 5 11 10 0 6 -2 10 -4 10 -3 0
-8 -4 -11 -10z"/>
<path d="M885 1209 c-5 -8 -4 -10 3 -5 8 5 12 -2 13 -21 2 -25 2 -26 6 -4 5
27 -11 49 -22 30z"/>
<path d="M350 1200 c0 -5 5 -10 10 -10 6 0 10 5 10 10 0 6 -4 10 -10 10 -5 0
-10 -4 -10 -10z"/>
<path d="M1137 1199 c7 -7 15 -10 18 -7 3 3 -2 9 -12 12 -14 6 -15 5 -6 -5z"/>
<path d="M321 1184 c0 -11 3 -14 6 -6 3 7 2 16 -1 19 -3 4 -6 -2 -5 -13z"/>
<path d="M930 1189 c0 -5 5 -7 10 -4 6 3 10 8 10 11 0 2 -4 4 -10 4 -5 0 -10
-5 -10 -11z"/>
<path d="M1096 1152 c-3 -2 -2 -10 1 -18 8 -20 29 -17 29 4 0 17 -19 26 -30
14z"/>
<path d="M745 1134 c-80 -14 -136 -33 -148 -52 -5 -7 -12 -10 -18 -7 -5 4 -9
1 -9 -4 0 -15 16 -14 33 3 8 8 23 15 33 15 11 0 57 7 104 16 90 16 159 13 172
-7 5 -9 8 -8 8 5 0 34 -78 48 -175 31z"/>
<path d="M990 1115 c0 -8 4 -15 10 -15 5 0 7 7 4 15 -4 8 -8 15 -10 15 -2 0
-4 -7 -4 -15z"/>
<path d="M1206 1101 c-3 -5 5 -16 17 -24 20 -13 23 -23 22 -69 -1 -29 0 -43 2
-30 2 12 8 22 12 22 4 0 8 18 9 39 2 31 -2 43 -20 55 -26 18 -35 20 -42 7z"/>
<path d="M1130 1091 c0 -5 7 -11 14 -14 10 -4 13 -1 9 9 -6 15 -23 19 -23 5z"/>
<path d="M694 1065 c-6 -13 -8 -14 -15 -3 -7 10 -9 10 -9 -2 0 -13 -1 -13 -10
0 -11 18 -15 14 -24 -23 -6 -24 -3 -30 14 -34 11 -3 20 -10 20 -16 0 -6 3 -7
7 -4 3 4 -2 16 -12 27 -10 11 -16 20 -14 21 30 6 57 4 69 -5 13 -9 13 -8 3 4
-7 9 -8 21 -3 29 6 11 12 9 26 -8 18 -21 54 -29 54 -12 0 5 9 11 19 14 15 3
18 1 14 -11 -5 -12 -1 -14 17 -9 13 3 30 1 37 -5 9 -7 14 -6 19 5 3 9 12 13
19 11 7 -3 16 -1 19 4 3 5 -5 8 -17 7 -13 -2 -39 2 -57 9 -19 6 -65 13 -103
14 -55 3 -68 0 -73 -13z"/>
<path d="M1155 1061 c-23 -7 -31 -36 -14 -47 8 -4 9 -3 5 4 -4 7 -2 12 4 12 6
0 8 5 4 12 -4 7 -3 8 5 4 15 -9 61 1 61 13 0 10 -35 11 -65 2z"/>
<path d="M450 1053 c-42 -6 -77 -23 -77 -39 0 -18 21 -18 37 1 16 20 30 19 45
-2 12 -16 14 -16 41 2 21 13 25 20 14 23 -8 3 -19 8 -25 11 -5 4 -21 5 -35 4z"/>
<path d="M1147 1000 c-16 -15 -16 -18 -2 -23 8 -4 15 -2 15 3 0 6 7 10 15 10
8 0 15 -4 15 -10 0 -17 26 0 27 19 2 24 -45 24 -70 1z"/>
<path d="M690 1000 c0 -9 45 -50 54 -50 4 0 5 9 1 19 -5 16 -2 18 14 14 11 -3
28 0 38 6 15 10 11 11 -24 9 -24 -2 -43 -1 -43 2 0 3 -9 6 -20 6 -11 0 -20 -3
-20 -6z"/>
<path d="M1370 980 c0 -6 9 -10 20 -10 11 0 20 -4 20 -10 0 -5 7 -10 15 -10 8
0 15 -5 15 -11 0 -5 5 -7 12 -3 7 5 9 2 6 -8 -5 -11 0 -14 18 -10 19 3 24 0
24 -17 0 -14 6 -21 20 -21 11 0 20 -7 20 -15 0 -8 9 -23 20 -32 11 -10 20 -23
20 -30 0 -7 4 -13 9 -13 5 0 9 -13 9 -29 -1 -15 3 -34 8 -42 8 -13 14 -49 18
-107 0 -12 9 -25 19 -28 19 -6 22 -21 7 -44 -8 -12 -10 -12 -10 5 -1 19 -1 19
-19 -2 -11 -13 -25 -23 -31 -23 -7 0 -10 -7 -7 -15 4 -8 2 -17 -3 -20 -4 -3
-11 1 -13 7 -4 9 -6 10 -6 1 -2 -23 20 -24 39 -1 16 19 19 20 20 6 0 -20 -14
-30 -51 -34 -23 -3 -27 0 -25 20 4 29 15 48 25 42 13 -8 51 24 51 42 -1 15 -3
14 -18 -3 -11 -13 -27 -19 -43 -17 -19 2 -28 -3 -38 -24 -8 -19 -9 -30 -1 -38
14 -14 12 -26 -5 -26 -8 0 -15 7 -15 15 0 8 -3 15 -7 15 -11 0 -73 -44 -73
-52 0 -12 10 -9 27 8 9 9 22 12 32 8 9 -3 34 -10 56 -15 22 -5 61 -18 87 -29
54 -23 58 -24 58 -10 0 6 -9 10 -20 10 -11 0 -20 4 -20 9 0 5 -9 11 -20 14
-11 3 -20 10 -20 17 0 6 4 9 9 6 5 -3 14 8 20 24 5 17 17 30 25 30 9 0 17 9
18 23 2 41 -4 82 -13 85 -5 2 -9 23 -9 46 0 86 -33 147 -132 244 -70 69 -92
85 -96 74 -2 -7 -11 -8 -28 -2 -15 6 -24 6 -24 0z"/>
<path d="M760 943 c0 -10 4 -14 8 -8 4 6 11 13 16 18 5 4 2 7 -7 7 -10 0 -17
-8 -17 -17z"/>
<path d="M1305 950 c3 -5 8 -10 11 -10 2 0 4 5 4 10 0 6 -5 10 -11 10 -5 0 -7
-4 -4 -10z"/>
<path d="M395 934 c9 -9 19 -13 23 -10 3 4 0 11 -8 16 -24 15 -33 11 -15 -6z"/>
<path d="M606 941 c-4 -6 -3 -11 3 -11 5 0 11 -10 13 -22 3 -22 33 -34 44 -17
3 5 -2 9 -10 9 -8 0 -22 12 -29 26 -9 17 -17 23 -21 15z"/>
<path d="M1330 936 c0 -2 9 -6 20 -9 11 -3 20 -1 20 4 0 5 -9 9 -20 9 -11 0
-20 -2 -20 -4z"/>
<path d="M450 920 c-8 -5 -10 -10 -5 -10 6 0 17 5 25 10 8 5 11 10 5 10 -5 0
-17 -5 -25 -10z"/>
<path d="M1190 920 c-13 -8 -13 -10 2 -10 9 0 20 5 23 10 8 13 -5 13 -25 0z"/>
<path d="M828 913 c7 -3 16 -2 19 1 4 3 -2 6 -13 5 -11 0 -14 -3 -6 -6z"/>
<path d="M1306 912 c-2 -4 -1 -13 3 -20 4 -8 11 -5 19 8 10 16 10 20 -2 20 -8
0 -17 -4 -20 -8z"/>
<path d="M908 903 c7 -3 16 -2 19 1 4 3 -2 6 -13 5 -11 0 -14 -3 -6 -6z"/>
<path d="M852 886 c11 -10 32 -16 60 -15 l43 1 -35 7 c-19 4 -46 11 -60 16
-22 7 -23 6 -8 -9z"/>
<path d="M684 860 c4 -33 -17 -60 -30 -39 -5 8 -3 9 6 4 8 -5 11 -4 7 2 -10
16 -60 23 -74 11 -7 -6 -20 -8 -28 -4 -9 3 -13 2 -10 -4 3 -6 -1 -10 -9 -10
-9 0 -21 9 -28 20 -16 25 -25 26 -25 3 0 -10 10 -29 23 -43 l23 -26 -23 -27
c-13 -15 -27 -27 -32 -27 -21 -1 -57 -38 -49 -50 6 -10 10 -10 19 1 22 29 88
61 132 64 63 5 60 -21 -3 -27 -27 -3 -64 -13 -83 -22 l-35 -16 40 7 c22 5 86
7 142 7 104 -2 131 9 48 19 -50 5 -66 14 -47 26 9 6 8 11 -5 24 -11 9 -24 13
-31 8 -22 -13 -59 0 -70 24 -9 20 -9 23 3 18 8 -3 13 -9 10 -13 -3 -5 -1 -11
5 -15 9 -6 12 1 9 22 -1 12 38 22 60 16 12 -3 21 -9 21 -14 0 -11 11 -11 29 0
16 10 24 91 10 91 -5 0 -7 -13 -5 -30z"/>
<path d="M1350 879 c0 -12 50 -20 67 -10 12 6 6 10 -25 13 -23 2 -42 1 -42 -3z"/>
<path d="M1453 883 c-25 -9 -12 -18 27 -21 22 -1 40 -1 40 2 0 8 -55 23 -67
19z"/>
<path d="M386 857 c3 -10 9 -15 12 -12 3 3 0 11 -7 18 -10 9 -11 8 -5 -6z"/>
<path d="M1326 823 c-14 -28 -14 -29 7 -28 17 1 21 7 19 26 -5 34 -9 34 -26 2z"/>
<path d="M1421 824 c0 -11 3 -14 6 -6 3 7 2 16 -1 19 -3 4 -6 -2 -5 -13z"/>
<path d="M730 820 c0 -5 5 -10 11 -10 5 0 7 5 4 10 -3 6 -8 10 -11 10 -2 0 -4
-4 -4 -10z"/>
<path d="M975 820 c-3 -5 -1 -10 4 -10 6 0 11 5 11 10 0 6 -2 10 -4 10 -3 0
-8 -4 -11 -10z"/>
<path d="M1505 820 c3 -5 10 -10 16 -10 5 0 9 5 9 10 0 6 -7 10 -16 10 -8 0
-12 -4 -9 -10z"/>
<path d="M765 770 c-3 -6 1 -7 9 -4 18 7 21 14 7 14 -6 0 -13 -4 -16 -10z"/>
<path d="M1350 771 c0 -5 5 -13 10 -16 6 -3 10 -2 10 4 0 5 -4 13 -10 16 -5 3
-10 2 -10 -4z"/>
<path d="M677 743 c-10 -9 -9 -23 1 -23 5 0 9 7 9 15 0 17 -1 18 -10 8z"/>
<path d="M1410 740 c0 -5 5 -10 11 -10 5 0 7 5 4 10 -3 6 -8 10 -11 10 -2 0
-4 -4 -4 -10z"/>
<path d="M1336 732 c-3 -5 1 -9 9 -9 8 0 12 4 9 9 -3 4 -7 8 -9 8 -2 0 -6 -4
-9 -8z"/>
<path d="M1381 724 c0 -11 3 -14 6 -6 3 7 2 16 -1 19 -3 4 -6 -2 -5 -13z"/>
<path d="M735 705 c17 -13 39 -24 50 -25 19 0 19 1 -2 22 -12 11 -34 22 -49
24 l-28 3 29 -24z"/>
<path d="M1460 701 c0 -6 4 -13 10 -16 6 -3 7 1 4 9 -7 18 -14 21 -14 7z"/>
<path d="M968 686 c-29 -10 -38 -26 -14 -26 7 0 19 7 26 15 10 12 15 13 20 4
5 -7 10 -8 14 -1 9 15 -16 20 -46 8z"/>
<path d="M1355 683 c3 -3 0 -12 -6 -20 -6 -7 -8 -13 -4 -13 5 0 0 -9 -10 -20
-10 -11 -24 -20 -32 -20 -7 0 -13 -4 -13 -10 0 -16 25 -11 53 10 l26 20 6 -20
c9 -29 23 -24 17 6 -4 21 -2 25 9 19 8 -5 11 -4 6 1 -5 5 -16 9 -25 9 -9 0
-17 8 -17 17 0 9 -4 19 -8 22 -4 3 -5 3 -2 -1z"/>
<path d="M1435 680 c-3 -5 -1 -10 4 -10 6 0 11 5 11 10 0 6 -2 10 -4 10 -3 0
-8 -4 -11 -10z"/>
<path d="M1310 665 c0 -8 4 -15 10 -15 5 0 7 7 4 15 -4 8 -8 15 -10 15 -2 0
-4 -7 -4 -15z"/>
<path d="M1385 670 c3 -5 8 -10 11 -10 2 0 4 5 4 10 0 6 -5 10 -11 10 -5 0 -7
-4 -4 -10z"/>
<path d="M1548 673 c6 -2 18 -2 25 0 6 3 1 5 -13 5 -14 0 -19 -2 -12 -5z"/>
<path d="M616 650 c-16 -5 -49 -8 -73 -6 -36 3 -41 1 -32 -10 11 -14 1 -18
-38 -17 -7 1 -13 -3 -13 -8 0 -9 34 -14 55 -9 37 9 76 9 70 1 -3 -6 12 2 35
16 57 37 55 50 -4 33z"/>
<path d="M845 647 c-4 -10 -2 -23 5 -32 14 -17 30 -11 30 11 0 8 -4 13 -9 9
-5 -3 -11 3 -14 12 -4 17 -4 17 -12 0z"/>
<path d="M1254 645 c17 -18 39 -20 34 -3 -2 6 -14 13 -27 15 -20 3 -21 1 -7
-12z"/>
<path d="M677 639 c7 -9 10 -19 6 -22 -3 -4 -1 -7 5 -7 17 0 15 16 -5 31 -16
12 -17 12 -6 -2z"/>
<path d="M1190 620 c-8 -11 -26 -21 -40 -24 -14 -2 -38 -11 -55 -20 -16 -9
-38 -16 -47 -16 -10 0 -23 -9 -30 -20 -7 -11 -20 -20 -28 -20 -8 0 -21 -4 -29
-9 -19 -12 -4 -51 20 -51 11 0 18 -4 15 -9 -4 -5 3 -7 14 -4 11 3 20 10 20 15
0 6 -7 7 -15 4 -9 -3 -18 1 -21 9 -3 7 -12 11 -20 8 -8 -3 -14 0 -14 5 0 6 14
9 30 7 17 -2 30 0 30 5 0 5 7 7 15 4 10 -4 15 0 15 12 0 9 3 15 6 12 3 -3 31
9 61 28 31 19 62 34 68 34 7 0 17 11 23 25 14 30 3 32 -18 5z"/>
<path d="M641 616 c-10 -11 -9 -14 1 -12 14 2 23 15 15 22 -2 2 -10 -2 -16
-10z"/>
<path d="M795 610 c4 -6 11 -8 16 -5 14 9 11 15 -7 15 -8 0 -12 -5 -9 -10z"/>
<path d="M1240 603 c-8 -3 -22 -14 -31 -25 -9 -12 -28 -20 -43 -20 -15 0 -25
-5 -23 -12 3 -10 62 -10 80 1 7 4 40 64 35 62 -2 0 -10 -3 -18 -6z"/>
<path d="M1433 593 c-7 -2 -13 -9 -13 -14 0 -6 4 -8 10 -4 5 3 16 -8 25 -25
16 -31 29 -38 40 -20 3 6 -1 10 -9 10 -15 0 -42 38 -38 53 1 4 1 7 0 6 -2 0
-9 -3 -15 -6z"/>
<path d="M875 580 c-3 -5 -1 -10 4 -10 6 0 11 5 11 10 0 6 -2 10 -4 10 -3 0
-8 -4 -11 -10z"/>
<path d="M905 580 c3 -5 8 -10 11 -10 2 0 4 5 4 10 0 6 -5 10 -11 10 -5 0 -7
-4 -4 -10z"/>
<path d="M1329 573 c-13 -8 -35 -30 -47 -49 -12 -19 -27 -34 -32 -34 -18 0
-11 19 17 45 31 28 17 35 -15 7 -11 -10 -32 -27 -46 -37 -14 -11 -26 -26 -26
-33 0 -7 -4 -10 -10 -7 -5 3 -10 -2 -10 -12 0 -23 -32 -44 -50 -33 -18 11
-102 3 -111 -11 -5 -8 -8 -8 -13 0 -4 6 -18 11 -32 11 -26 0 -47 31 -26 38 19
6 14 33 -5 30 -10 -2 -17 3 -15 10 2 14 -14 16 -22 3 -4 -5 0 -12 6 -14 7 -3
0 -5 -17 -5 -29 1 -98 -9 -122 -17 -7 -2 -13 2 -13 10 0 8 7 15 15 15 18 0 20
16 3 23 -8 4 -7 6 3 6 9 1 20 -6 23 -14 5 -13 10 -14 27 -4 12 6 40 17 63 25
l41 14 -50 -6 c-27 -3 -63 -7 -80 -9 -16 -1 -37 -3 -46 -3 -14 -2 -18 -24 -11
-66 1 -5 25 -5 55 -1 28 5 64 8 79 7 15 -1 30 3 33 9 4 5 11 7 16 3 6 -3 5
-12 -3 -21 -10 -12 -9 -18 6 -29 18 -12 17 -14 -8 -25 -28 -13 -37 -33 -10
-22 14 5 33 -11 34 -29 0 -14 -71 -50 -87 -44 -9 4 -20 1 -24 -6 -6 -9 -12 -8
-25 3 -16 13 -17 12 -10 -6 21 -52 18 -59 -10 -24 -16 20 -35 34 -42 31 -19
-6 -14 -18 13 -30 14 -6 22 -17 20 -25 -11 -26 38 -13 54 15 18 31 42 36 61
13 7 -8 22 -15 34 -14 19 1 19 2 -3 8 -14 4 -27 13 -29 20 -3 8 1 12 9 9 7 -2
22 4 33 14 11 10 28 18 38 18 16 0 35 12 72 45 6 6 30 11 54 12 33 0 47 6 59
22 8 12 21 20 29 17 9 -3 14 1 14 13 0 22 35 55 49 46 6 -3 11 -14 11 -23 0
-10 6 -5 16 13 8 17 31 44 51 62 33 30 37 31 59 17 17 -12 28 -13 41 -5 17 10
17 10 -2 11 -11 0 -30 6 -41 14 -17 12 -23 12 -45 -1z m-229 -163 c0 -5 -4
-10 -10 -10 -5 0 -10 5 -10 10 0 6 5 10 10 10 6 0 10 -4 10 -10z m-119 -20
c10 0 19 -5 19 -11 0 -6 -10 -8 -22 -5 -13 3 -17 3 -10 0 18 -9 14 -24 -7 -24
-22 0 -36 41 -18 52 7 4 14 3 15 -2 2 -6 12 -10 23 -10z"/>
<path d="M920 560 c-9 -6 -10 -10 -3 -10 6 0 15 5 18 10 8 12 4 12 -15 0z"/>
<path d="M946 543 c-6 -14 -5 -15 5 -6 7 7 10 15 7 18 -3 3 -9 -2 -12 -12z"/>
<path d="M584 530 c0 -13 4 -16 10 -10 7 7 7 13 0 20 -6 6 -10 3 -10 -10z"/>
<path d="M638 533 c7 -3 16 -2 19 1 4 3 -2 6 -13 5 -11 0 -14 -3 -6 -6z"/>
<path d="M677 520 c3 -11 7 -20 9 -20 2 0 4 9 4 20 0 11 -4 20 -9 20 -5 0 -7
-9 -4 -20z"/>
<path d="M1102 522 c2 -9 12 -17 23 -17 11 -1 19 -6 17 -13 -2 -10 2 -10 17 0
11 7 17 16 14 21 -3 5 -9 3 -14 -4 -5 -8 -9 -9 -9 -4 0 6 -12 15 -26 22 -22
10 -25 9 -22 -5z"/>
<path d="M1340 531 c0 -6 4 -13 10 -16 6 -3 7 1 4 9 -7 18 -14 21 -14 7z"/>
<path d="M1323 505 c0 -8 4 -12 9 -9 5 3 6 10 3 15 -9 13 -12 11 -12 -6z"/>
<path d="M1398 503 c6 -2 18 -2 25 0 6 3 1 5 -13 5 -14 0 -19 -2 -12 -5z"/>
<path d="M1063 493 c-15 -6 -18 -53 -3 -53 6 0 10 12 10 27 0 26 0 26 19 7 10
-10 17 -22 14 -26 -2 -5 1 -8 6 -8 6 0 11 3 11 8 -1 8 -36 52 -42 51 -1 0 -9
-3 -15 -6z"/>
<path d="M682 472 c4 -12 3 -22 -1 -22 -5 0 -18 -9 -31 -20 -13 -11 -18 -20
-12 -20 6 0 14 5 17 11 4 6 13 8 20 5 7 -2 21 1 30 8 17 12 17 13 1 19 -10 4
-15 11 -11 16 3 5 0 13 -6 17 -9 5 -10 0 -7 -14z"/>
<path d="M1330 471 c0 -5 11 -8 25 -8 13 0 22 3 19 8 -3 5 -14 9 -25 9 -10 0
-19 -4 -19 -9z"/>
<path d="M856 442 c-3 -6 3 -12 15 -15 12 -3 19 -1 16 6 -5 15 -24 20 -31 9z"/>
<path d="M1225 439 c-4 -6 -5 -12 -2 -15 2 -3 7 2 10 11 7 17 1 20 -8 4z"/>
<path d="M1315 430 c3 -5 8 -10 11 -10 2 0 4 5 4 10 0 6 -5 10 -11 10 -5 0 -7
-4 -4 -10z"/>
<path d="M1478 429 c-2 -6 -22 -12 -43 -13 -22 0 -43 -5 -47 -11 -4 -5 -11
-10 -15 -11 -8 -1 -75 -31 -179 -80 -50 -24 -101 -66 -62 -52 24 10 29 -1 11
-28 -14 -22 -14 -24 1 -24 10 0 13 6 10 15 -4 9 0 15 9 15 8 0 18 -6 20 -12 4
-8 6 -7 6 3 1 9 -6 19 -14 23 -8 3 -15 10 -15 16 0 6 5 8 10 5 6 -3 13 1 16 9
4 9 23 19 45 22 21 4 39 12 39 18 0 6 12 13 26 14 14 1 39 10 55 19 25 15 31
15 38 4 7 -10 13 -11 27 -2 17 9 17 10 2 11 -10 0 -18 5 -18 10 0 6 13 8 32 5
20 -4 34 -1 39 7 7 10 9 10 10 -2 1 -17 17 16 18 38 1 15 -16 16 -21 1z"/>
<path d="M1527 409 c7 -7 15 -10 18 -7 3 3 -2 9 -12 12 -14 6 -15 5 -6 -5z"/>
<path d="M1168 399 c-26 -14 -51 -70 -37 -83 6 -7 10 -7 9 -1 -5 24 14 53 43
67 22 10 26 16 16 20 -9 3 -23 2 -31 -3z"/>
<path d="M1583 394 c5 -5 13 -10 18 -10 5 -1 14 -2 20 -3 5 0 8 -5 5 -9 -3 -5
8 -9 24 -10 37 -1 38 5 5 18 -43 16 -81 24 -72 14z"/>
<path d="M0 365 c0 -8 2 -15 4 -15 2 0 6 7 10 15 3 8 1 15 -4 15 -6 0 -10 -7
-10 -15z"/>
<path d="M540 370 c0 -5 5 -10 11 -10 5 0 7 5 4 10 -3 6 -8 10 -11 10 -2 0 -4
-4 -4 -10z"/>
<path d="M860 366 c0 -8 4 -17 9 -20 5 -4 7 3 4 14 -6 23 -13 26 -13 6z"/>
<path d="M1040 355 c0 -8 -4 -15 -8 -15 -5 0 -17 -7 -28 -15 -17 -13 -17 -14
-2 -15 10 0 31 14 48 30 27 27 29 30 10 30 -11 0 -20 -7 -20 -15z"/>
<path d="M1563 343 c9 -2 25 -2 35 0 9 3 1 5 -18 5 -19 0 -27 -2 -17 -5z"/>
<path d="M280 330 c-8 -5 -12 -12 -9 -15 4 -3 12 1 19 10 14 17 11 19 -10 5z"/>
<path d="M710 330 c0 -6 7 -10 15 -10 8 0 15 2 15 4 0 2 -7 6 -15 10 -8 3 -15
1 -15 -4z"/>
<path d="M780 330 c-9 -6 -10 -10 -3 -10 6 0 15 5 18 10 8 12 4 12 -15 0z"/>
<path d="M1410 325 c0 -7 -8 -18 -17 -24 -10 -5 -15 -12 -12 -16 4 -3 14 1 22
10 14 14 16 13 20 -2 2 -10 3 -6 2 9 -1 15 3 30 9 32 6 2 3 5 -6 5 -10 1 -18
-6 -18 -14z"/>
<path d="M540 321 c0 -14 18 -23 31 -15 8 4 7 9 -2 15 -18 11 -29 11 -29 0z"/>
<path d="M50 305 c-11 -13 -10 -14 4 -9 9 3 16 10 16 15 0 13 -6 11 -20 -6z"/>
<path d="M188 313 c-28 -7 -21 -21 7 -15 14 2 25 8 25 13 0 9 -4 10 -32 2z"/>
<path d="M395 310 c-3 -5 -2 -10 4 -10 5 0 13 5 16 10 3 6 2 10 -4 10 -5 0
-13 -4 -16 -10z"/>
<path d="M960 310 c0 -5 5 -10 10 -10 6 0 10 5 10 10 0 6 -4 10 -10 10 -5 0
-10 -4 -10 -10z"/>
<path d="M1046 311 c-3 -5 1 -11 9 -15 8 -3 15 -1 15 4 0 13 -18 22 -24 11z"/>
<path d="M1089 298 c-12 -22 -11 -22 7 -8 10 8 20 15 22 16 2 1 -1 5 -7 8 -5
4 -15 -4 -22 -16z"/>
<path d="M324 294 c3 -9 6 -20 6 -25 0 -5 4 -9 9 -9 4 0 6 11 3 25 -2 14 -9
25 -14 25 -6 0 -7 -7 -4 -16z"/>
<path d="M1347 303 c-10 -9 -9 -23 2 -23 5 0 11 7 15 15 5 15 -5 20 -17 8z"/>
<path d="M293 293 c-21 -7 -15 -29 7 -29 21 0 24 5 12 22 -4 6 -13 9 -19 7z"/>
<path d="M660 290 c0 -5 5 -10 11 -10 5 0 7 5 4 10 -3 6 -8 10 -11 10 -2 0 -4
-4 -4 -10z"/>
<path d="M360 280 c0 -5 5 -10 10 -10 6 0 10 -11 10 -25 0 -16 6 -25 15 -25 8
0 15 5 15 10 0 6 -5 10 -11 10 -6 0 -9 6 -7 12 3 7 -1 18 -8 25 -15 16 -24 17
-24 3z"/>
<path d="M570 281 c0 -6 5 -13 10 -16 6 -3 10 1 10 9 0 9 -4 16 -10 16 -5 0
-10 -4 -10 -9z"/>
<path d="M998 279 c-26 -10 -58 -68 -58 -107 0 -10 -5 -23 -12 -30 -14 -14 0
-16 21 -3 7 5 11 13 7 19 -3 5 0 15 8 21 8 7 12 20 9 30 -5 19 34 64 47 56 5
-3 10 2 14 10 6 17 2 17 -36 4z"/>
<path d="M1262 275 c-7 -8 -10 -15 -6 -15 3 0 1 -7 -6 -15 -11 -13 -10 -14 4
-9 15 6 36 34 36 48 0 11 -15 5 -28 -9z"/>
<path d="M55 270 c-18 -8 -17 -9 8 -9 15 -1 27 4 27 9 0 12 -8 12 -35 0z"/>
<path d="M146 271 c-3 -5 1 -11 9 -15 8 -3 15 -1 15 4 0 13 -18 22 -24 11z"/>
<path d="M8 263 c7 -3 16 -2 19 1 4 3 -2 6 -13 5 -11 0 -14 -3 -6 -6z"/>
<path d="M720 251 c0 -25 6 -27 13 -6 4 8 2 17 -3 20 -6 4 -10 -3 -10 -14z"/>
<path d="M846 254 c-4 -9 -4 -19 -1 -22 3 -3 5 0 5 7 0 7 4 10 8 7 5 -3 9 1 9
9 0 20 -13 19 -21 -1z"/>
<path d="M1050 260 c-9 -6 -10 -10 -3 -10 6 0 15 5 18 10 8 12 4 12 -15 0z"/>
<path d="M1198 263 c7 -3 16 -2 19 1 4 3 -2 6 -13 5 -11 0 -14 -3 -6 -6z"/>
<path d="M1320 255 c0 -8 4 -15 10 -15 5 0 7 7 4 15 -4 8 -8 15 -10 15 -2 0
-4 -7 -4 -15z"/>
<path d="M630 244 c14 -10 31 -24 38 -32 10 -14 12 -13 12 5 0 15 -10 24 -31
32 -44 15 -48 14 -19 -5z"/>
<path d="M1086 244 c-11 -8 -16 -14 -10 -14 13 0 39 18 34 24 -3 2 -14 -2 -24
-10z"/>
<path d="M1465 250 c-3 -6 1 -7 9 -4 18 7 21 14 7 14 -6 0 -13 -4 -16 -10z"/>
<path d="M1507 253 c-12 -12 -7 -41 8 -47 9 -3 15 0 15 9 0 8 -5 15 -11 15 -6
0 -9 7 -5 15 6 16 3 19 -7 8z"/>
<path d="M220 234 c0 -8 5 -12 10 -9 6 4 8 11 5 16 -9 14 -15 11 -15 -7z"/>
<path d="M459 233 c14 -28 59 -73 71 -73 6 0 -8 20 -31 45 -46 48 -55 55 -40
28z"/>
<path d="M905 242 c-11 -2 -24 -11 -28 -19 -5 -8 -18 -13 -30 -12 -43 3 -55
-1 -53 -18 1 -13 -5 -17 -19 -15 -16 2 -17 1 -6 -7 15 -10 51 2 51 17 0 12 64
12 72 -1 13 -20 9 -30 -7 -17 -13 11 -14 10 -9 -4 10 -26 25 -14 41 33 16 48
16 49 -12 43z"/>
<path d="M1283 183 c-33 -104 -48 -187 -33 -178 5 3 11 23 15 45 4 21 17 69
30 107 13 37 20 73 16 80 -4 8 -15 -12 -28 -54z"/>
<path d="M1410 240 c0 -8 -3 -26 -7 -39 -4 -16 -2 -22 4 -18 15 10 22 43 12
58 -7 12 -9 11 -9 -1z"/>
<path d="M1205 230 c-3 -5 1 -10 10 -10 9 0 13 5 10 10 -3 6 -8 10 -10 10 -2
0 -7 -4 -10 -10z"/>
<path d="M435 210 c3 -5 8 -10 11 -10 2 0 4 5 4 10 0 6 -5 10 -11 10 -5 0 -7
-4 -4 -10z"/>
<path d="M395 199 c-4 -6 -4 -13 -1 -16 3 -4 -3 -12 -14 -20 -21 -15 -27 -43
-10 -43 19 0 50 40 50 65 0 26 -14 33 -25 14z"/>
<path d="M710 201 c0 -5 7 -14 15 -21 9 -7 14 -19 11 -27 -3 -7 1 -13 9 -13
18 0 18 -1 4 39 -10 28 -39 45 -39 22z"/>
<path d="M1010 200 c-12 -8 -10 -10 8 -10 13 0 20 4 17 10 -7 12 -6 12 -25 0z"/>
<path d="M1050 200 c0 -5 5 -10 10 -10 6 0 10 5 10 10 0 6 -4 10 -10 10 -5 0
-10 -4 -10 -10z"/>
<path d="M1090 200 c0 -5 4 -10 9 -10 6 0 13 5 16 10 3 6 -1 10 -9 10 -9 0
-16 -4 -16 -10z"/>
<path d="M1540 190 c0 -5 7 -10 15 -10 8 0 15 5 15 10 0 6 -7 10 -15 10 -8 0
-15 -4 -15 -10z"/>
<path d="M693 185 c3 -6 -3 -30 -14 -54 -18 -42 -18 -45 -2 -63 12 -14 24 -17
43 -13 29 8 26 4 34 33 5 16 3 22 -7 22 -8 0 -14 -8 -13 -17 1 -13 -6 -18 -24
-18 -21 0 -24 4 -21 25 1 14 6 27 10 30 9 7 7 48 -3 57 -5 4 -7 3 -3 -2z"/>
<path d="M1020 169 c0 -5 5 -7 10 -4 6 3 10 8 10 11 0 2 -4 4 -10 4 -5 0 -10
-5 -10 -11z"/>
<path d="M1380 154 c0 -8 5 -12 10 -9 6 3 10 10 10 16 0 5 -4 9 -10 9 -5 0
-10 -7 -10 -16z"/>
<path d="M550 150 c0 -9 39 -25 45 -18 2 2 -7 8 -21 15 -13 6 -24 7 -24 3z"/>
<path d="M843 148 c4 -10 2 -18 -3 -18 -5 0 -16 -14 -24 -32 -15 -29 -15 -33
0 -47 9 -9 14 -10 10 -3 -4 7 2 31 14 54 16 32 18 43 9 52 -9 8 -10 7 -6 -6z"/>
<path d="M1593 139 c-2 -23 3 -25 10 -4 4 8 3 16 -1 19 -4 3 -9 -4 -9 -15z"/>
<path d="M899 127 c6 -8 8 -17 4 -20 -10 -11 -9 -67 2 -67 5 0 4 -5 -3 -12
-14 -14 -60 -20 -67 -8 -3 5 -20 4 -38 -1 -17 -5 -58 -8 -90 -8 -32 1 -61 -1
-64 -5 -4 -4 50 -6 120 -5 70 1 130 5 132 9 3 4 15 6 27 3 33 -5 48 9 49 48 2
55 0 59 -25 59 -14 0 -28 5 -31 10 -3 6 -11 10 -17 10 -7 0 -7 -4 1 -13z m53
-52 c9 -34 -3 -51 -27 -41 -13 5 -14 10 -7 19 7 8 7 18 2 27 -5 8 -6 18 -3 23
9 15 27 1 35 -28z"/>
<path d="M1440 130 c0 -5 5 -10 10 -10 6 0 10 5 10 10 0 6 -4 10 -10 10 -5 0
-10 -4 -10 -10z"/>
<path d="M90 120 c-12 -8 -11 -10 8 -10 12 0 22 5 22 10 0 13 -11 13 -30 0z"/>
<path d="M600 103 c0 -10 -3 -36 -6 -58 -4 -30 -3 -36 5 -25 6 8 11 28 11 44
0 19 4 27 13 23 8 -3 13 3 13 14 0 12 -7 19 -18 19 -10 0 -18 -7 -18 -17z"/>
<path d="M335 86 c-21 -23 -31 -66 -14 -66 5 0 9 9 9 19 0 11 4 23 10 26 13 8
33 45 23 44 -4 -1 -17 -11 -28 -23z"/>
<path d="M999 93 c-13 -17 -13 -17 6 -3 11 8 22 16 24 17 2 2 0 3 -6 3 -6 0
-17 -8 -24 -17z"/>
<path d="M127 89 c-10 -6 -24 -8 -31 -6 -8 3 -18 -8 -26 -29 -10 -25 -20 -34
-36 -34 -13 0 -26 -5 -29 -10 -4 -7 3 -8 22 -4 35 8 50 20 59 46 3 11 11 17
18 15 7 -3 23 4 37 14 26 20 16 25 -14 8z"/>
<path d="M1385 90 c5 -7 12 -27 16 -44 7 -29 8 -29 6 8 -1 24 -8 41 -16 44 -9
3 -11 0 -6 -8z"/>
<path d="M1640 89 c0 -5 5 -7 10 -4 6 3 10 8 10 11 0 2 -4 4 -10 4 -5 0 -10
-5 -10 -11z"/>
<path d="M390 88 c-2 -5 -3 -11 -4 -15 -1 -5 -5 -14 -9 -20 -5 -8 -4 -13 3
-13 13 0 24 25 17 42 -3 7 -6 10 -7 6z"/>
<path d="M35 70 c-3 -5 -1 -10 4 -10 6 0 11 5 11 10 0 6 -2 10 -4 10 -3 0 -8
-4 -11 -10z"/>
<path d="M768 73 c7 -3 16 -2 19 1 4 3 -2 6 -13 5 -11 0 -14 -3 -6 -6z"/>
<path d="M1320 60 c0 -11 2 -20 4 -20 2 0 6 9 9 20 3 11 1 20 -4 20 -5 0 -9
-9 -9 -20z"/>
<path d="M1605 70 c-3 -5 1 -10 10 -10 9 0 13 5 10 10 -3 6 -8 10 -10 10 -2 0
-7 -4 -10 -10z"/>
<path d="M244 50 c-6 -6 -33 -19 -60 -30 -33 -13 -42 -19 -26 -20 27 0 73 22
91 44 15 18 11 22 -5 6z"/>
<path d="M1521 44 c0 -11 3 -14 6 -6 3 7 2 16 -1 19 -3 4 -6 -2 -5 -13z"/>
<path d="M270 35 c-14 -16 -10 -18 14 -9 9 3 16 10 16 15 0 14 -16 11 -30 -6z"/>
<path d="M1270 20 c0 -5 5 -10 11 -10 5 0 7 5 4 10 -3 6 -8 10 -11 10 -2 0 -4
-4 -4 -10z"/>
</g>
</svg>
