<?xml version="1.0" standalone="no"?>
<!DOCTYPE svg PUBLIC "-//W3C//DTD SVG 20010904//EN"
 "http://www.w3.org/TR/2001/REC-SVG-20010904/DTD/svg10.dtd">
<svg version="1.0" xmlns="http://www.w3.org/2000/svg"
 width="140.000000pt" height="105.000000pt" viewBox="0 0 300.000000 211.000000"
 preserveAspectRatio="none">
<metadata>
Created by potrace 1.10, written by Peter Selinger 2001-2011
</metadata>
<g transform="translate(0.000000,211.000000) scale(0.100000,-0.100000)"
fill="#2be506" stroke="none">
<path d="M1934 1935 c-18 -9 -41 -25 -52 -35 -11 -10 -22 -16 -25 -13 -3 3 -3
-4 0 -16 4 -14 -1 -23 -13 -28 -16 -7 -18 -15 -13 -48 3 -22 7 -35 8 -30 2 6
4 18 6 29 2 10 14 29 27 43 13 13 22 27 20 29 -1 3 11 16 27 29 l29 25 300 0
301 0 -4 -32 c-4 -35 -10 -138 -25 -478 -5 -118 -13 -246 -16 -283 l-7 -68
-161 6 c-88 3 -187 8 -218 11 -47 4 -58 2 -58 -10 0 -9 12 -17 33 -20 31 -5
839 -47 885 -46 43 0 17 25 -29 27 -54 2 -256 13 -324 18 -27 2 -63 4 -78 4
l-29 1 6 58 c9 101 21 296 20 334 -1 21 2 36 6 33 4 -2 7 50 7 118 0 67 3 168
6 224 4 82 3 104 -9 114 -10 8 -97 13 -302 16 -248 3 -291 1 -318 -12z"><animate attributeName="fill" dur="5000ms" to="#f06d06" fill="freeze"  repeatCount="indefinite"/></path>
<path d="M1550 1878 c0 -9 16 -25 35 -37 20 -11 38 -27 41 -36 8 -21 19 -19
21 4 1 13 -8 23 -28 30 -17 6 -39 21 -49 33 -16 18 -19 20 -20 6z"/>
<path d="M1980 1880 c-8 -5 -10 -10 -5 -10 6 0 17 5 25 10 8 5 11 10 5 10 -5
0 -17 -5 -25 -10z"/>
<path d="M2278 1883 c7 -3 16 -2 19 1 4 3 -2 6 -13 5 -11 0 -14 -3 -6 -6z"/>
<path d="M2480 1870 c0 -5 7 -10 15 -10 8 0 15 5 15 10 0 6 -7 10 -15 10 -8 0
-15 -4 -15 -10z"/>
<path d="M1915 1840 c-10 -11 -15 -23 -12 -27 7 -6 36 25 37 40 0 11 -6 8 -25
-13z"/>
<path d="M1498 1813 c7 -3 16 -2 19 1 4 3 -2 6 -13 5 -11 0 -14 -3 -6 -6z"/>
<path d="M1881 1798 c-1 -16 4 -28 9 -28 12 0 12 8 0 35 -8 18 -9 17 -9 -7z"/>
<path d="M1945 1726 c0 -67 3 -86 16 -94 14 -9 16 -5 12 32 -5 44 18 116 36
116 6 0 11 7 11 15 0 18 -16 20 -24 3 -5 -10 -7 -10 -12 0 -3 6 -13 12 -22 12
-15 0 -17 -12 -17 -84z"/>
<path d="M2090 1790 c0 -5 5 -10 10 -10 6 0 10 5 10 10 0 6 -4 10 -10 10 -5 0
-10 -4 -10 -10z"/>
<path d="M2288 1792 c7 -5 29 -8 50 -6 77 4 75 9 66 -144 -4 -76 -8 -173 -9
-217 -2 -44 -3 -96 -4 -115 -1 -28 -5 -36 -21 -37 -11 -1 -20 1 -21 5 -8 90
-19 105 -19 28 l0 -58 30 4 c27 4 30 2 30 -23 0 -15 -7 -29 -16 -33 -22 -8
-26 -8 -19 4 3 6 1 10 -4 10 -6 0 -11 -4 -11 -8 0 -4 -18 -9 -40 -10 -40 -3
-40 -2 -34 25 3 15 7 34 10 41 5 17 -13 62 -26 62 -6 0 -8 -11 -4 -26 5 -20 4
-25 -5 -19 -9 5 -12 -1 -9 -21 2 -17 8 -28 16 -26 14 2 15 -7 3 -26 -5 -9 -19
-12 -42 -8 -19 3 -50 2 -69 -3 -30 -8 -25 -9 45 -12 44 -2 112 -3 150 -4 l70
0 6 195 c3 107 10 248 14 313 l7 117 -79 0 c-44 0 -72 -4 -65 -8z"/>
<path d="M1487 1783 c-14 -14 -6 -19 23 -15 17 2 33 8 36 13 6 10 -49 12 -59
2z"/>
<path d="M1705 1780 c4 -6 11 -8 16 -5 14 9 11 15 -7 15 -8 0 -12 -5 -9 -10z"/>
<path d="M1740 1780 c0 -6 7 -10 15 -10 8 0 15 2 15 4 0 2 -7 6 -15 10 -8 3
-15 1 -15 -4z"/>
<path d="M1435 1770 l-30 -8 33 -1 c17 0 32 4 32 9 0 6 -1 9 -2 9 -2 -1 -16
-5 -33 -9z"/>
<path d="M1572 1764 c-7 -8 -17 -12 -22 -9 -4 3 -11 -2 -14 -11 -4 -10 -2 -14
6 -10 7 2 30 10 51 17 20 7 37 16 37 21 0 14 -44 8 -58 -8z"/>
<path d="M1654 1744 c4 -16 7 -37 7 -46 0 -10 5 -18 11 -18 6 0 8 -3 5 -6 -3
-4 -2 -15 3 -25 6 -10 11 -29 12 -43 1 -15 5 -26 9 -26 11 0 48 -68 54 -98 2
-15 10 -39 16 -55 15 -36 9 -41 -41 -27 -23 6 -48 9 -55 6 -8 -3 -16 0 -18 7
-3 9 -7 9 -18 0 -8 -6 -37 -15 -64 -18 -56 -8 -68 -13 -60 -25 6 -9 81 -8 90
2 4 3 20 2 37 -3 17 -4 34 -6 39 -4 4 3 26 6 50 7 43 1 89 31 68 44 -5 3 -9
13 -7 22 3 21 -43 120 -68 147 -11 12 -20 39 -22 64 -2 24 -10 51 -18 59 -9 8
-13 20 -11 26 3 6 -2 18 -11 25 -13 13 -14 11 -8 -15z"/>
<path d="M1369 1743 c-13 -15 -12 -15 9 -4 23 12 28 21 13 21 -5 0 -15 -7 -22
-17z"/>
<path d="M1770 1747 c0 -14 24 -57 32 -57 14 0 9 16 -12 40 -11 13 -20 20 -20
17z"/>
<path d="M1447 1704 c-22 -14 -37 -27 -34 -30 7 -7 37 7 37 17 0 5 6 9 14 9 7
0 19 7 26 15 18 22 0 17 -43 -11z"/>
<path d="M1576 1697 c3 -10 9 -15 12 -12 3 3 0 11 -7 18 -10 9 -11 8 -5 -6z"/>
<path d="M1265 1689 c-11 -16 -1 -19 13 -3 7 8 8 14 3 14 -5 0 -13 -5 -16 -11z"/>
<path d="M1504 1664 c-18 -14 -18 -14 5 -4 18 9 25 9 31 0 5 -8 16 -10 25 -6
21 8 18 11 -16 19 -16 4 -33 1 -45 -9z"/>
<path d="M1810 1646 c4 -17 20 -58 35 -91 16 -33 27 -66 26 -73 -3 -18 46 -92
60 -92 17 0 -1 41 -30 67 -17 16 -22 26 -14 29 9 4 6 19 -12 54 -22 43 -22 47
-6 43 10 -2 26 -21 35 -40 9 -20 19 -33 21 -31 7 7 -24 66 -39 75 -15 9 -40
53 -30 53 13 0 -17 28 -35 33 -16 4 -17 0 -11 -27z m30 -18 c0 -19 -2 -20 -10
-8 -13 19 -13 30 0 30 6 0 10 -10 10 -22z"/>
<path d="M1896 1665 c4 -8 10 -15 15 -15 4 0 6 7 3 15 -4 8 -10 15 -15 15 -4
0 -6 -7 -3 -15z"/>
<path d="M2044 1636 c-35 -15 -81 -106 -68 -134 4 -10 8 -21 9 -27 4 -30 20
-72 32 -83 8 -8 11 -23 8 -36 -5 -15 -4 -17 3 -7 8 10 14 11 32 1 l23 -12 -21
30 c-12 16 -26 41 -32 56 -5 14 -14 26 -20 26 -18 0 -11 27 8 33 11 2 21 13
24 24 4 16 1 19 -18 15 -28 -5 -29 -1 -9 38 9 17 13 30 9 30 -4 0 -1 6 5 14
14 17 83 27 78 12 -2 -6 -14 -10 -25 -8 -23 3 -28 -12 -13 -37 10 -16 64 -18
69 -2 2 6 10 11 19 11 10 0 12 6 7 22 -15 49 -58 61 -120 34z"><animate attributeName="fill" dur="5000ms" to="#f06d06" fill="freeze"  repeatCount="indefinite"/></path>
<path d="M1520 1629 c0 -5 5 -7 10 -4 6 3 10 8 10 11 0 2 -4 4 -10 4 -5 0 -10
-5 -10 -11z"/>

<path d="M1743 1632 c-8 -5 -9 -13 -3 -22 11 -17 23 -8 18 14 -2 9 -8 12 -15
8z"/>
<path d="M1276 1613 c-6 -14 -5 -15 5 -6 7 7 10 15 7 18 -3 3 -9 -2 -12 -12z"/>
<path d="M1480 1620 c0 -5 5 -10 10 -10 6 0 10 5 10 10 0 6 -4 10 -10 10 -5 0
-10 -4 -10 -10z"/>
<path d="M2191 1594 c1 -50 -4 -90 -8 -76 -8 22 -23 2 -17 -23 4 -17 1 -24
-13 -28 -15 -4 -14 -5 4 -6 12 0 24 -7 26 -13 4 -10 6 -10 6 -1 1 7 8 10 16 7
11 -5 15 1 16 22 4 82 -1 118 -15 132 -14 14 -15 13 -15 -14z"/>
<path d="M2065 1470 c-3 -5 1 -10 10 -10 9 0 13 5 10 10 -3 6 -8 10 -10 10 -2
0 -7 -4 -10 -10z"/>
<path d="M2091 1424 c0 -11 3 -14 6 -6 3 7 2 16 -1 19 -3 4 -6 -2 -5 -13z"/>
<path d="M1950 1390 c0 -16 4 -30 8 -30 5 0 7 14 4 30 -2 17 -6 30 -8 30 -2 0
-4 -13 -4 -30z"/>
<path d="M2162 1408 c-19 -19 -14 -30 8 -18 11 6 20 15 20 20 0 14 -14 12 -28
-2z"/>
<path d="M1855 1389 c11 -13 21 -26 22 -28 2 -2 3 3 3 12 0 9 -10 22 -22 28
l-23 12 20 -24z"/>
<path d="M1154 1367 c-20 -25 -16 -28 29 -18 20 5 54 5 75 0 55 -13 72 -11 66
5 -3 8 -12 12 -20 9 -8 -3 -14 -1 -14 5 0 6 -27 12 -60 14 -49 2 -63 0 -76
-15z"/>
<path d="M1786 1372 c-4 -6 3 -30 14 -52 42 -82 45 -171 14 -332 -5 -23 -2
-28 14 -28 43 0 47 8 47 84 0 41 -3 78 -7 82 -13 12 -9 24 5 18 10 -3 13 6 11
36 l-2 42 24 -23 c13 -12 24 -17 24 -10 0 6 -16 21 -35 32 -26 15 -44 40 -68
91 -19 40 -37 66 -41 60z m64 -386 c0 -3 -4 -8 -10 -11 -5 -3 -10 -1 -10 4 0
6 5 11 10 11 6 0 10 -2 10 -4z"/>
<path d="M2108 1373 c7 -3 16 -2 19 1 4 3 -2 6 -13 5 -11 0 -14 -3 -6 -6z"/>
<path d="M1927 1312 c-31 -19 -34 -27 -12 -36 9 -3 15 0 15 9 0 8 8 18 17 24
10 5 16 12 13 15 -3 2 -18 -3 -33 -12z"/>
<path d="M2026 1321 c-3 -5 1 -11 9 -14 9 -4 12 -1 8 9 -6 16 -10 17 -17 5z"/>
<path d="M1543 1304 c-3 -8 -12 -13 -20 -10 -8 3 -12 2 -9 -3 3 -4 -1 -17 -9
-27 -21 -28 -18 -36 25 -67 27 -19 41 -24 46 -16 9 15 -35 49 -53 42 -20 -8
-16 31 5 49 31 26 72 39 90 28 16 -9 14 -11 -18 -14 -8 0 -15 -10 -16 -22 -1
-28 55 -50 86 -34 11 6 20 15 20 21 0 6 9 8 20 4 15 -5 20 -2 20 12 0 21 -18
43 -34 43 -6 0 -2 -7 8 -15 35 -27 9 -27 -47 -1 -61 29 -105 33 -114 10z m135
-33 c10 -6 7 -12 -12 -25 -25 -16 -26 -16 -26 2 0 30 14 39 38 23z"/>
<path d="M1658 1313 c7 -3 16 -2 19 1 4 3 -2 6 -13 5 -11 0 -14 -3 -6 -6z"/>
<path d="M1110 1283 c0 -21 3 -24 9 -14 5 8 7 20 4 28 -8 21 -13 15 -13 -14z"/>
<path d="M1172 1279 c-11 -11 -18 -29 -15 -38 5 -22 49 -45 58 -31 3 5 12 7
19 4 15 -6 33 13 38 41 3 20 0 22 -54 24 -25 1 -29 4 -18 11 9 6 10 10 3 10
-7 0 -21 -9 -31 -21z m34 -25 c-5 -12 -2 -15 10 -10 10 4 14 1 12 -6 -6 -18
-22 -20 -43 -3 -17 13 -18 16 -5 25 22 15 33 12 26 -6z"/>
<path d="M1275 1290 c11 -5 27 -9 35 -9 13 -1 13 0 0 9 -8 5 -24 9 -35 9 -20
0 -20 0 0 -9z"/>
<path d="M1893 1255 c15 -14 33 -25 40 -25 7 0 3 7 -8 15 -11 8 -25 19 -32 25
-7 5 -16 10 -20 10 -4 0 5 -12 20 -25z"/>
<path d="M1530 1260 c-8 -5 -11 -12 -8 -16 10 -9 38 3 38 16 0 12 -10 13 -30
0z"/>
<path d="M2030 1260 c-9 -6 -10 -10 -3 -10 6 0 15 5 18 10 8 12 4 12 -15 0z"/>
<path d="M1297 1245 c-5 -10 0 -15 14 -15 12 0 19 5 17 12 -6 18 -25 20 -31 3z"/>
<path d="M2050 1235 c-10 -12 -10 -15 4 -15 9 0 16 7 16 15 0 8 -2 15 -4 15
-2 0 -9 -7 -16 -15z"/>
<path d="M1401 1197 c1 -26 6 -50 10 -53 5 -2 5 -12 2 -21 -6 -15 -5 -16 9 -3
9 8 13 17 9 20 -3 3 -7 23 -8 44 -4 60 -24 71 -22 13z"/>
<path d="M2118 1213 c7 -3 16 -2 19 1 4 3 -2 6 -13 5 -11 0 -14 -3 -6 -6z"/>
<path d="M1106 1195 c-9 -26 -7 -32 5 -12 6 10 9 21 6 23 -2 3 -7 -2 -11 -11z"/>
<path d="M1275 1180 c-3 -5 -1 -10 4 -10 6 0 11 5 11 10 0 6 -2 10 -4 10 -3 0
-8 -4 -11 -10z"/>
<path d="M1595 1180 c-4 -6 -5 -12 -4 -14 60 -40 93 -46 103 -20 9 24 8 24
-21 9 -25 -13 -29 -13 -33 1 -3 8 -10 15 -14 14 -5 -1 -12 4 -16 10 -6 9 -9 9
-15 0z"/>
<path d="M2042 1179 c2 -7 10 -15 17 -17 8 -3 12 1 9 9 -2 7 -10 15 -17 17 -8
3 -12 -1 -9 -9z"/>
<path d="M0 1171 c0 -6 15 -11 33 -11 40 0 375 -18 467 -25 133 -10 435 -14
390 -6 -25 5 -115 12 -200 16 -85 3 -182 8 -215 11 -33 3 -109 7 -170 9 -60 2
-154 7 -207 11 -69 4 -98 3 -98 -5z"/>
<path d="M1077 1147 c-13 -34 -7 -87 19 -170 57 -180 73 -212 141 -279 65 -62
103 -88 130 -88 8 0 12 -4 9 -9 -3 -4 6 -7 19 -5 14 1 23 -2 19 -7 -3 -5 1 -9
8 -9 8 0 6 -5 -5 -11 -9 -6 -26 -7 -37 -4 -16 5 -19 3 -13 -11 5 -13 3 -16
-10 -11 -11 4 -20 -1 -27 -13 -5 -10 -25 -23 -44 -30 -38 -12 -66 -47 -66 -82
0 -17 -3 -19 -12 -10 -10 10 -10 17 -1 31 10 15 9 20 -1 24 -9 4 -16 -4 -19
-21 -3 -15 -8 -34 -12 -43 -5 -14 -1 -16 27 -10 26 5 34 13 42 41 10 34 36 72
36 52 0 -5 -7 -26 -16 -47 l-15 -37 43 7 c24 4 47 14 51 21 4 8 13 14 19 14 7
0 6 -5 -2 -15 -16 -19 0 -19 26 0 19 14 19 14 -1 16 -11 1 -26 2 -33 2 -7 -1
-12 6 -10 16 2 9 11 15 21 15 9 -1 17 3 17 8 0 5 -13 7 -30 3 -47 -10 -55 5
-13 26 22 11 39 15 41 9 5 -13 32 -13 32 0 0 6 -4 10 -10 10 -5 0 -10 4 -10
10 0 5 7 7 15 4 8 -4 15 -1 15 6 0 7 8 9 22 4 20 -6 21 -5 10 9 -12 14 -10 16
15 17 62 2 83 6 95 18 19 19 26 14 22 -18 -4 -35 -3 -35 38 -14 28 15 30 17
14 26 -13 8 -21 7 -27 -3 -4 -7 -12 -10 -16 -5 -7 7 6 20 52 53 6 5 17 9 25
11 27 6 36 22 20 33 -13 10 -13 10 1 6 13 -4 45 27 37 35 -2 2 5 14 15 28 9
13 17 31 17 40 0 8 -12 -5 -27 -30 -15 -25 -26 -49 -25 -53 1 -5 -2 -6 -8 -2
-5 3 -33 -11 -62 -33 -31 -22 -66 -39 -85 -40 -18 -1 -44 -7 -58 -12 -45 -17
-80 -11 -153 26 -109 54 -159 120 -202 264 -12 41 -27 86 -32 100 -6 14 -14
54 -17 90 -4 43 -9 59 -14 47z m253 -721 c0 -5 -7 -3 -15 4 -8 7 -15 20 -15
28 0 13 3 12 15 -4 8 -10 15 -23 15 -28z"/>
<path d="M2096 1145 c5 -11 0 -15 -17 -13 -26 3 -34 -22 -10 -30 8 -3 11 0 7
7 -5 7 1 11 13 11 22 0 29 24 11 35 -6 3 -7 -1 -4 -10z"/>
<path d="M925 1096 c-3 -9 -7 -23 -10 -31 -2 -8 -1 -15 4 -15 5 0 11 12 14 28
6 30 0 44 -8 18z"/>
<path d="M1540 1085 c6 -16 9 -39 6 -50 -4 -17 1 -24 27 -33 43 -15 47 -15 47
2 0 8 -9 18 -20 21 -11 4 -18 11 -14 16 7 11 -6 53 -14 45 -3 -3 -14 2 -24 11
-18 16 -19 16 -8 -12z"/>
<path d="M1331 1086 c-7 -8 -8 -17 -3 -20 6 -3 13 1 16 10 9 23 2 28 -13 10z"/>
<path d="M1430 1081 c0 -5 -6 -11 -14 -13 -13 -3 -13 -6 -1 -28 14 -24 14 -24
15 -3 0 12 5 25 10 28 6 3 10 10 10 16 0 5 -4 9 -10 9 -5 0 -10 -4 -10 -9z"/>
<path d="M2030 1065 c0 -8 5 -15 10 -15 6 0 10 7 10 15 0 8 -4 15 -10 15 -5 0
-10 -7 -10 -15z"/>
<path d="M910 1025 c0 -8 2 -15 4 -15 2 0 6 7 10 15 3 8 1 15 -4 15 -6 0 -10
-7 -10 -15z"/>
<path d="M1350 1021 c0 -5 19 -18 42 -29 l42 -19 -33 -17 c-32 -17 -33 -18
-14 -35 19 -18 73 -37 73 -26 0 3 -13 11 -30 16 -16 6 -30 17 -30 25 0 19 16
18 24 -3 7 -18 26 -7 29 18 4 24 18 40 44 50 13 5 21 13 18 19 -9 15 -31 12
-49 -6 -22 -21 -82 -20 -90 3 -6 15 -26 18 -26 4z"/>
<path d="M445 1010 c3 -5 16 -10 28 -9 21 0 21 1 2 9 -28 12 -37 12 -30 0z"/>
<path d="M528 1003 c12 -2 30 -2 40 0 9 3 -1 5 -23 4 -22 0 -30 -2 -17 -4z"/>
<path d="M591 1006 c2 -2 24 -7 49 -10 32 -5 41 -4 30 4 -14 9 -88 15 -79 6z"/>
<path d="M894 941 c-5 -33 -6 -57 -2 -55 4 3 8 14 8 25 0 11 5 29 10 40 6 11
7 26 2 34 -6 11 -11 -3 -18 -44z"/>
<path d="M1330 989 c0 -5 5 -7 10 -4 6 3 10 8 10 11 0 2 -4 4 -10 4 -5 0 -10
-5 -10 -11z"/>
<path d="M2059 963 c-8 -53 0 -63 50 -63 39 0 34 12 -7 18 -34 4 -39 9 -22 25
10 10 11 9 5 -2 -6 -10 -4 -12 4 -7 9 6 9 11 0 22 -12 15 -28 19 -30 7z"/>
<path d="M1856 951 c-3 -4 -17 -6 -31 -3 -21 4 -25 1 -25 -19 0 -22 0 -22 14
-3 8 10 17 16 21 12 4 -4 -2 -16 -13 -28 -23 -25 -35 -70 -18 -70 6 0 4 -6 -5
-13 -13 -10 -39 -86 -39 -116 0 -5 8 -11 18 -14 14 -3 12 -6 -9 -15 -19 -8
-28 -21 -33 -47 -4 -21 -5 -39 -3 -41 2 -3 7 9 10 26 4 19 16 34 32 42 14 6
25 16 25 22 0 6 9 33 19 61 11 27 23 59 26 70 5 14 8 16 14 6 5 -8 10 5 15 35
8 64 8 76 -4 69 -6 -4 -8 -10 -5 -15 5 -9 -1 -26 -37 -110 -11 -24 -25 -56
-30 -70 -6 -14 -12 -20 -15 -14 -2 6 7 37 21 68 14 31 21 56 16 56 -5 0 -2 12
6 28 7 15 14 31 14 36 0 6 10 20 22 33 12 13 16 23 10 23 -6 0 -13 -4 -16 -9z"/>
<path d="M2150 939 c0 -5 9 -9 20 -9 11 0 20 2 20 4 0 2 -9 6 -20 9 -11 3 -20
1 -20 -4z"/>
<path d="M2206 911 c-3 -5 3 -11 14 -14 24 -6 36 8 14 17 -20 8 -22 8 -28 -3z"/>
<path d="M2150 901 c0 -5 9 -7 20 -4 11 3 20 7 20 9 0 2 -9 4 -20 4 -11 0 -20
-4 -20 -9z"/>
<path d="M2260 901 c0 -7 34 -11 92 -11 50 0 89 2 87 4 -11 10 -179 16 -179 7z"/>
<path d="M1462 885 c-8 -10 -22 -12 -42 -9 -38 8 -122 -4 -115 -16 3 -5 31 -7
62 -5 45 4 54 2 45 -7 -7 -7 -12 -16 -12 -22 0 -5 3 -6 6 -3 11 11 45 -13 37
-26 -4 -7 1 -5 11 3 17 14 17 15 -3 24 -64 28 41 58 112 31 9 -4 17 -3 17 3 0
9 -40 25 -67 27 -6 0 -15 4 -19 8 -10 10 -17 8 -32 -8z"/>
<path d="M859 841 c-21 -21 -34 -61 -20 -61 6 0 11 9 11 19 0 11 9 26 21 34
11 8 17 17 12 20 -4 2 -15 -3 -24 -12z"/>
<path d="M1460 775 c-5 -14 -15 -25 -22 -25 -10 0 -9 -3 1 -9 9 -6 11 -18 7
-36 -4 -16 -3 -24 3 -21 5 4 12 -2 16 -13 5 -17 33 -36 41 -28 2 2 -7 19 -21
37 -30 41 -31 57 -6 65 11 3 24 12 30 19 8 10 5 16 -14 24 -23 11 -27 9 -35
-13z"/>
<path d="M2040 770 c0 -5 10 -10 23 -10 19 -1 17 -3 -12 -19 -22 -12 -30 -21
-22 -25 7 -5 22 0 34 10 12 11 23 19 25 20 1 1 0 9 -4 18 -7 17 -44 23 -44 6z"/>
<path d="M2110 734 c-38 -23 -62 -32 -79 -28 -20 4 -22 2 -16 -13 13 -33 16
-73 6 -73 -6 0 -11 13 -11 29 0 17 -4 33 -10 36 -5 3 -10 -3 -10 -14 0 -42
-22 -120 -39 -140 -23 -27 -28 -26 -34 2 -4 16 -5 13 -4 -8 0 -16 -7 -43 -16
-60 l-16 -30 -1 40 c-1 38 -1 39 -13 17 -16 -27 -29 -18 -21 15 4 13 1 30 -6
38 -10 12 -10 15 3 15 8 0 18 -6 20 -12 4 -9 6 -8 6 2 1 8 6 22 11 30 8 13 11
12 24 -5 9 -11 16 -14 16 -7 0 6 4 12 9 12 5 0 7 -9 4 -20 -3 -11 0 -20 6 -20
6 0 11 6 11 14 0 8 3 22 7 31 5 14 2 16 -18 10 -21 -7 -22 -6 -10 9 7 9 19 16
26 16 7 0 15 9 18 20 3 11 1 20 -4 20 -5 0 -9 -5 -9 -10 0 -6 -21 -20 -47 -31
-26 -11 -50 -23 -53 -27 -3 -4 -22 -16 -42 -26 -21 -10 -40 -27 -43 -37 -4
-11 -12 -19 -20 -19 -21 0 -46 -45 -32 -59 18 -18 27 -13 27 19 0 17 5 30 10
30 13 0 13 -43 0 -56 -7 -7 -3 -18 13 -35 32 -33 40 -65 16 -66 -11 -1 -19 2
-19 8 0 5 5 9 10 9 6 0 10 5 10 11 0 6 -6 9 -14 6 -9 -4 -16 4 -21 21 -6 24
-8 25 -16 9 -8 -13 -6 -22 6 -34 13 -12 15 -26 11 -57 l-7 -41 25 30 c28 34
35 23 9 -15 -9 -14 -11 -20 -5 -15 6 6 28 36 49 67 45 66 164 206 176 207 5 1
41 34 81 74 55 55 75 81 80 110 4 20 6 37 4 36 -2 0 -28 -16 -58 -35z m34 -37
c-3 -8 -12 -18 -19 -21 -10 -3 -12 0 -8 11 4 11 2 14 -5 9 -7 -4 -12 -14 -12
-21 0 -15 -34 -38 -43 -29 -2 3 -2 15 1 27 5 20 6 20 13 1 7 -18 8 -17 8 4 1
12 8 23 16 23 28 3 33 4 41 12 11 10 15 2 8 -16z m-124 -101 c0 -17 -14 -29
-23 -20 -8 8 3 34 14 34 5 0 9 -6 9 -14z m-209 -78 c0 -10 2 -10 6 0 2 6 9 12
14 12 6 0 5 -10 -2 -22 -10 -19 -8 -25 15 -44 27 -24 38 -46 11 -24 -12 10
-16 9 -21 -4 -3 -9 -1 -23 6 -31 9 -10 9 -15 1 -15 -6 0 -11 4 -11 10 0 5 -7
7 -15 4 -18 -7 -19 9 -4 35 9 13 9 23 1 37 -10 18 -11 18 -21 -6 -11 -29 -14
-16 -5 29 6 30 23 43 25 19z"></path>
<path d="M2200 724 c0 -8 5 -12 10 -9 6 3 10 10 10 16 0 5 -4 9 -10 9 -5 0
-10 -7 -10 -16z"/>
<path d="M418 712 c-3 -11 0 -19 8 -19 16 0 19 23 5 31 -5 3 -11 -2 -13 -12z"/>
<path d="M1821 706 c-6 -16 -10 -31 -7 -33 7 -8 28 37 23 50 -3 7 -10 -1 -16
-17z"/>
<path d="M2229 718 c-1 -7 -1 -19 0 -27 2 -7 -5 -31 -13 -52 -21 -52 -21 -52
19 -47 24 3 36 -1 40 -11 8 -20 23 -2 27 34 l4 30 10 -34 c6 -21 19 -37 32
-42 15 -6 21 -5 17 1 -3 6 -2 10 3 10 17 0 12 83 -5 102 -9 10 -39 25 -66 33
-61 18 -67 18 -68 3z m38 -28 c-1 -11 -7 -20 -14 -20 -16 0 -17 12 -1 28 16
16 17 15 15 -8z m85 -17 l23 -25 -25 6 c-14 3 -19 3 -12 0 6 -3 10 -10 7 -15
-3 -5 -1 -18 5 -29 9 -16 8 -20 -5 -20 -8 0 -15 8 -15 18 0 9 -11 35 -24 58
l-23 41 23 -5 c12 -2 33 -15 46 -29z m-68 -29 c4 -11 0 -15 -16 -12 -12 2 -23
9 -26 16 -6 18 35 15 42 -4z m81 -14 c3 -5 1 -10 -4 -10 -6 0 -11 5 -11 10 0
6 2 10 4 10 3 0 8 -4 11 -10z"/>
<path d="M800 711 c0 -6 5 -13 10 -16 6 -3 10 1 10 9 0 9 -4 16 -10 16 -5 0
-10 -4 -10 -9z"/>
<path d="M138 703 c6 -2 18 -2 25 0 6 3 1 5 -13 5 -14 0 -19 -2 -12 -5z"/>
<path d="M2202 675 c0 -16 2 -22 5 -12 2 9 2 23 0 30 -3 6 -5 -1 -5 -18z"/>
<path d="M770 680 c-8 -5 -12 -12 -9 -15 4 -3 12 1 19 10 14 17 11 19 -10 5z"/>
<path d="M2430 679 c0 -5 15 -9 33 -10 17 0 40 -2 50 -4 9 -2 17 2 17 8 0 7
-20 13 -50 14 -28 0 -50 -3 -50 -8z"/>
<path d="M1713 660 c-7 -10 -28 -24 -48 -31 -19 -7 -35 -17 -35 -21 0 -12 14
-10 36 7 10 8 25 15 33 15 12 0 12 -4 -5 -46 -3 -6 2 -11 10 -11 8 0 13 3 11
7 -2 3 1 26 6 49 11 49 9 59 -8 31z"/>
<path d="M1783 649 c-14 -5 -23 -17 -23 -28 0 -25 20 -19 38 10 16 26 13 29
-15 18z"/>
<path d="M640 598 c0 -4 9 -8 20 -8 11 0 20 4 20 8 0 4 -9 8 -20 8 -11 0 -20
-4 -20 -8z"/>
<path d="M592 575 c-37 -20 -45 -32 -22 -30 11 1 31 11 43 23 24 24 15 27 -21
7z"/>
<path d="M1755 580 c3 -5 8 -10 11 -10 2 0 4 5 4 10 0 6 -5 10 -11 10 -5 0 -7
-4 -4 -10z"/>
<path d="M1495 563 c-11 -3 -23 -11 -28 -19 -4 -7 -14 -11 -22 -8 -9 4 -15 0
-15 -10 0 -20 29 -21 36 -1 4 8 13 15 21 15 13 0 13 -3 3 -15 -10 -12 -9 -15
6 -15 11 0 27 -7 37 -14 18 -14 18 -14 -1 -20 -20 -7 -37 -34 -27 -44 3 -3 6
-3 8 -1 2 2 15 19 30 37 35 43 33 96 -4 99 -13 0 -33 -1 -44 -4z m56 -41 c7
-17 5 -20 -9 -15 -21 8 -32 24 -25 36 8 13 25 3 34 -21z"/>
<path d="M492 500 c-7 -11 -8 -20 -3 -20 9 0 24 30 18 36 -1 2 -8 -6 -15 -16z"/>
<path d="M1946 452 c-31 -32 -76 -86 -101 -121 -25 -34 -52 -65 -60 -68 -20
-7 -19 -57 1 -74 13 -10 17 -10 25 2 5 8 7 20 4 28 -3 7 0 20 6 27 6 7 8 17 5
22 -5 9 48 92 59 92 3 0 -7 -18 -21 -40 -19 -29 -24 -44 -17 -51 8 -8 13 -2
18 20 4 17 10 31 15 31 4 0 18 17 30 38 12 20 16 31 9 25 -31 -31 -30 -9 2 25
71 77 93 102 87 102 -3 0 -31 -26 -62 -58z m-141 -242 c3 -5 1 -10 -4 -10 -6
0 -11 5 -11 10 0 6 2 10 4 10 3 0 8 -4 11 -10z"/>
<path d="M2245 486 c20 -30 42 -39 48 -22 7 18 -12 36 -29 29 -8 -3 -14 0 -14
6 0 6 -5 11 -10 11 -6 0 -3 -11 5 -24z"/>
<path d="M1080 475 c-5 -14 -9 -29 -9 -33 3 -20 -2 -45 -8 -39 -3 4 -15 0 -25
-10 -17 -15 -18 -15 -19 3 0 11 -3 13 -6 6 -2 -6 -10 -9 -16 -5 -7 4 -8 0 -4
-11 4 -10 7 -24 7 -32 0 -22 37 -16 43 7 5 17 11 20 31 15 14 -3 26 -2 26 3 0
5 9 11 20 14 14 4 20 0 21 -11 0 -10 6 -5 14 13 20 44 19 58 -6 52 -15 -4 -22
1 -29 18 -13 35 -29 39 -40 10z m30 -19 c0 -8 5 -16 12 -18 7 -3 9 -12 4 -23
-6 -16 -9 -17 -16 -5 -8 13 -10 12 -10 -2 0 -10 -4 -18 -10 -18 -6 0 -6 9 0
25 5 14 7 32 4 40 -4 8 -1 15 5 15 6 0 11 -6 11 -14z"/>
<path d="M1486 488 c-18 -10 -39 -16 -64 -17 -7 -1 -11 -5 -8 -10 7 -11 74 3
89 18 15 15 5 21 -17 9z"/>
<path d="M2547 479 c7 -7 15 -10 18 -7 3 3 -2 9 -12 12 -14 6 -15 5 -6 -5z"/>
<path d="M2170 466 c0 -9 5 -16 10 -16 6 0 10 4 10 9 0 6 -4 13 -10 16 -5 3
-10 -1 -10 -9z"/>
<path d="M426 436 c-25 -22 -36 -41 -33 -53 3 -15 6 -14 15 8 6 15 23 36 38
48 15 12 25 24 22 26 -3 3 -22 -10 -42 -29z"/>
<path d="M1590 463 c0 -6 -3 -20 -6 -30 -7 -17 -6 -17 12 -1 14 14 16 21 6 30
-8 8 -12 9 -12 1z"/>
<path d="M2304 459 c-4 -7 4 -20 17 -30 26 -20 19 -25 -12 -8 -12 6 6 -16 38
-49 72 -73 88 -82 155 -82 30 0 59 -5 65 -11 12 -12 53 4 53 20 0 11 -19 9
-37 -2 -8 -5 -13 -3 -13 4 0 7 -9 9 -22 6 -47 -13 -113 12 -159 60 -43 44 -37
51 9 10 12 -11 22 -16 22 -10 0 6 -7 13 -15 17 -8 3 -15 17 -15 32 0 19 -4 25
-16 20 -8 -3 -12 -2 -9 3 3 5 1 12 -5 16 -5 3 -10 0 -10 -7 0 -8 -5 -6 -11 5
-12 20 -25 22 -35 6z"/>
<path d="M1707 423 c17 -25 17 -27 1 -20 -10 3 -20 2 -23 -3 -4 -6 -2 -10 4
-10 5 0 13 -20 17 -45 10 -69 24 -64 20 7 -4 67 -12 98 -27 98 -5 0 -1 -12 8
-27z"/>
<path d="M2670 432 c6 -13 14 -21 18 -18 3 4 -2 14 -12 24 -18 16 -18 16 -6
-6z"/>
<path d="M2158 408 c-5 -31 18 -88 35 -88 10 0 -1 77 -15 103 -12 24 -15 22
-20 -15z"/>
<path d="M2645 400 c17 -19 33 -37 36 -40 3 -3 8 -13 12 -22 4 -10 13 -15 25
-11 17 4 14 9 -22 42 -63 56 -84 69 -51 31z"/>
<path d="M1408 413 c-10 -2 -18 -9 -18 -14 0 -6 -4 -8 -8 -5 -5 3 -19 -8 -30
-24 -26 -34 -29 -48 -7 -30 9 7 18 10 22 7 3 -4 -6 -16 -20 -28 -15 -11 -27
-28 -27 -37 0 -25 -60 -94 -76 -88 -8 3 -14 2 -14 -3 0 -5 9 -11 21 -14 24 -6
91 22 83 35 -3 4 -1 8 4 8 6 0 13 8 17 17 4 11 -5 7 -24 -11 -20 -19 -31 -24
-31 -15 1 22 38 62 53 56 8 -3 14 1 14 9 0 8 -7 14 -14 14 -8 0 -11 5 -8 11 4
6 13 8 21 5 10 -4 14 3 14 27 0 24 8 39 32 59 32 27 31 30 -4 21z"/>
<path d="M1462 396 c-7 -16 -8 -26 -1 -26 12 0 22 25 17 41 -2 6 -9 0 -16 -15z"/>
<path d="M2420 401 c0 -6 4 -12 9 -15 5 -3 7 -15 4 -25 -3 -13 2 -21 17 -26
26 -8 26 -8 35 28 6 22 4 27 -11 28 -18 0 -17 1 1 9 16 7 13 9 -17 9 -21 1
-38 -3 -38 -8z"/>
<path d="M2700 406 c0 -2 7 -9 15 -16 9 -7 15 -8 15 -2 0 5 -7 12 -15 16 -8 3
-15 4 -15 2z"/>
<path d="M860 381 c-6 -12 -17 -21 -25 -21 -7 0 -17 -9 -20 -20 -4 -11 -10
-18 -14 -15 -5 2 -13 -7 -19 -20 -11 -25 -52 -36 -52 -14 0 5 -5 7 -11 3 -8
-4 -7 -9 2 -15 7 -4 10 -11 6 -15 -4 -4 -13 -2 -19 4 -15 15 -32 16 -23 2 8
-13 -5 -13 -25 0 -10 6 -21 3 -37 -12 l-23 -21 20 -32 20 -32 -41 -26 c-29
-20 -48 -25 -66 -21 -24 6 -25 5 -19 -19 3 -14 2 -29 -4 -32 -5 -3 -10 -16
-10 -28 0 -18 4 -15 19 13 13 24 15 37 8 42 -6 4 -8 10 -4 15 10 10 28 -18 22
-34 -15 -39 -15 -46 2 -23 30 41 106 120 111 115 5 -5 -67 -105 -76 -105 -11
0 -43 -62 -37 -69 4 -3 11 3 17 14 6 11 21 29 32 40 35 36 96 113 96 122 0 5
-13 17 -30 26 -17 11 -30 27 -30 38 0 18 2 19 29 5 16 -9 32 -26 35 -38 4 -13
10 -18 12 -11 3 7 0 22 -6 33 -6 12 -9 25 -5 28 9 10 25 -19 25 -48 l1 -25 15
29 c13 22 18 26 25 15 7 -11 9 -11 9 3 0 9 -8 19 -17 22 -10 2 -4 4 12 3 41
-2 57 10 49 35 -4 13 -2 18 4 14 6 -3 13 3 17 14 3 11 12 20 20 20 7 0 16 12
19 26 9 34 1 42 -14 15z"/>
<path d="M970 371 c0 -18 -4 -22 -17 -16 -31 11 -38 10 -38 -5 0 -9 7 -14 20
-11 20 3 20 3 0 -20 -11 -13 -23 -26 -26 -29 -3 -3 -6 -12 -6 -20 0 -8 -3 -26
-8 -40 l-7 -25 20 25 c11 14 21 34 23 45 3 15 34 39 67 51 1 1 -4 16 -12 35
-13 29 -15 31 -16 10z"/>
<path d="M1237 384 c-4 -4 -7 -20 -7 -35 0 -15 -4 -30 -9 -33 -4 -3 -11 -27
-15 -53 -3 -27 -13 -60 -20 -75 -9 -16 -11 -30 -5 -33 5 -4 9 -1 9 4 0 6 5 11
12 11 9 0 9 -3 0 -12 -23 -23 -11 -37 16 -19 10 6 11 18 3 51 -9 41 -8 44 27
76 41 37 58 37 23 0 -16 -16 -19 -26 -11 -31 6 -4 19 1 29 12 20 21 24 53 7
53 -6 0 -2 7 8 15 11 8 16 15 12 15 -4 0 2 14 14 30 27 38 16 38 -43 0 -43
-27 -47 -28 -47 -10 0 13 5 18 15 14 8 -4 15 -1 15 6 0 6 -4 9 -9 6 -5 -4 -11
-1 -13 5 -2 5 -7 7 -11 3z m70 -39 c-9 -8 -17 -20 -19 -27 -2 -6 -10 -8 -16
-4 -18 11 -15 20 11 32 32 17 41 16 24 -1z m-49 -42 c-2 -9 -8 -18 -15 -20 -7
-3 -9 3 -6 16 6 25 26 28 21 4z"/>
<path d="M1547 352 c-9 -24 -15 -47 -12 -52 3 -5 -1 -25 -9 -45 -8 -19 -16
-39 -16 -43 -1 -4 -10 -10 -21 -14 -10 -4 -19 -14 -19 -22 0 -10 -6 -13 -15
-9 -9 3 -15 1 -13 -3 2 -5 -7 -20 -19 -34 -13 -13 -23 -31 -23 -39 0 -11 4
-10 15 5 8 10 15 15 15 10 0 -5 7 -3 15 4 10 8 15 9 15 1 0 -6 -16 -21 -35
-33 -19 -13 -35 -27 -35 -32 0 -5 9 -1 20 9 22 20 28 8 8 -15 -7 -7 2 -3 20 9
18 12 30 26 27 31 -3 5 4 14 15 20 11 6 20 17 20 25 0 17 -16 20 -22 5 -2 -6
-8 -6 -18 0 -13 8 -12 10 3 10 9 0 17 6 17 14 0 15 18 31 26 23 10 -10 13 -51
4 -67 -6 -12 -5 -17 4 -17 15 0 31 82 19 100 -3 6 -1 7 5 3 11 -7 17 41 15
119 0 11 4 23 9 26 5 4 8 17 6 30 -3 21 -6 18 -21 -19z"/>
<path d="M2502 360 c-14 -38 2 -48 51 -32 27 8 28 10 9 11 -13 1 -21 5 -18 10
3 4 -3 16 -13 25 -18 16 -19 15 -29 -14z"/>
<path d="M887 364 c-4 -4 -7 -14 -7 -23 0 -11 3 -12 11 -4 6 6 10 16 7 23 -2
6 -7 8 -11 4z"/>
<path d="M1159 363 c-1 -5 -1 -11 0 -15 0 -5 -14 -8 -31 -8 -18 0 -28 -4 -23
-8 15 -10 17 -32 5 -46 -5 -7 -7 -16 -3 -20 4 -3 -2 -12 -12 -19 -15 -12 -16
-14 -1 -14 9 0 16 4 16 9 0 4 4 8 9 8 5 0 6 -15 2 -33 -8 -32 -28 -77 -35 -77
-7 0 6 40 15 46 15 9 10 24 -8 24 -9 0 -14 -3 -10 -6 3 -4 0 -22 -8 -41 -8
-18 -12 -40 -9 -47 3 -8 1 -17 -5 -21 -7 -4 -9 1 -5 12 5 16 4 16 -10 -1 -24
-29 -4 -42 32 -21 21 13 32 28 35 52 7 39 52 140 75 166 8 9 17 28 18 42 2 21
-2 25 -22 25 -13 0 -25 -3 -25 -7z m21 -41 c0 -2 -12 -18 -26 -36 -25 -29 -26
-29 -19 -6 4 14 12 27 16 28 5 2 7 7 5 11 -3 4 1 8 9 8 8 0 15 -2 15 -5z"/>
<path d="M1578 308 c-9 -29 -13 -60 -9 -71 5 -13 10 -4 20 35 7 29 15 61 18
71 2 9 0 17 -4 17 -5 0 -16 -23 -25 -52z"/>
<path d="M1390 339 c0 -5 5 -7 10 -4 6 3 10 8 10 11 0 2 -4 4 -10 4 -5 0 -10
-5 -10 -11z"/>
<path d="M896 315 c-9 -9 -16 -22 -16 -28 0 -6 10 -2 22 11 12 12 19 24 16 27
-3 3 -13 -1 -22 -10z"/>
<path d="M2142 313 c5 -25 28 -28 28 -4 0 12 -6 21 -16 21 -9 0 -14 -7 -12
-17z"/>
<path d="M2364 311 c21 -23 26 -26 26 -11 0 5 -10 15 -22 21 -23 12 -23 12 -4
-10z"/>
<path d="M1663 293 c-4 -10 -18 -35 -32 -56 -21 -32 -22 -40 -10 -48 19 -12
29 -11 29 1 0 6 5 10 12 10 6 0 2 -10 -10 -23 -30 -32 -28 -46 2 -18 35 33 61
107 48 134 l-11 22 0 -23 c-1 -13 -5 -21 -11 -17 -5 3 -7 12 -3 20 3 8 2 15
-1 15 -4 0 -10 -8 -13 -17z m27 -55 c0 -6 -7 -5 -15 2 -8 7 -15 17 -15 22 0 6
7 5 15 -2 8 -7 15 -17 15 -22z"/>
<path d="M2722 296 c2 -7 41 -46 88 -86 47 -41 84 -77 82 -82 -4 -15 39 -69
49 -62 6 4 3 14 -7 25 -9 11 -14 22 -11 26 4 3 18 -6 31 -20 37 -40 51 -33 19
8 -15 19 -32 35 -36 35 -9 0 -108 75 -143 108 -11 10 -31 25 -44 32 -23 13
-24 13 -5 21 18 7 18 8 -3 8 -15 1 -22 -4 -20 -13z"/>
<path d="M2633 283 c-21 -8 -15 -22 7 -16 11 3 20 9 20 14 0 10 -8 10 -27 2z"/>
<path d="M2131 261 c-5 -9 -18 -49 -30 -90 l-22 -74 38 -37 c44 -41 110 -59
154 -40 22 10 22 10 2 6 -13 -2 -25 -1 -28 4 -3 4 -19 11 -37 14 -18 3 -48 20
-65 37 -34 31 -44 55 -19 46 10 -4 13 3 12 26 -4 53 3 61 30 36 13 -12 24 -27
24 -31 0 -18 29 -38 53 -38 13 0 32 9 42 20 10 11 24 20 32 20 7 0 12 5 11 12
-2 6 8 17 20 24 15 7 19 13 11 16 -10 3 -9 6 2 10 21 8 38 -4 42 -30 2 -12 21
-42 43 -66 22 -24 46 -56 54 -70 7 -14 19 -26 26 -26 6 0 14 -7 18 -15 3 -8
16 -15 28 -15 20 0 18 5 -24 48 -61 61 -102 111 -119 143 -8 15 -28 39 -46 53
l-32 27 -41 -55 c-46 -61 -90 -96 -90 -72 0 8 -6 17 -12 19 -9 4 -9 8 -3 14
21 17 15 33 -12 34 -26 0 -27 1 -7 11 15 7 20 16 16 33 -3 19 -10 23 -34 23
-16 -1 -33 -8 -37 -17z m39 -21 c-20 -13 -33 -13 -25 0 3 6 14 10 23 10 15 0
15 -2 2 -10z"><animate attributeName="fill" dur="5000ms" to="#f06d06" fill="freeze"  repeatCount="indefinite"/></path>
<path d="M852 258 c-13 -17 -42 -87 -41 -102 0 -6 4 -1 9 12 5 12 16 22 24 22
15 0 32 37 22 47 -3 4 -1 12 5 20 7 8 8 13 1 13 -5 0 -14 -6 -20 -12z"/>
<path d="M2392 254 c10 -10 20 -15 24 -12 3 4 -5 12 -18 18 -22 12 -22 12 -6
-6z"/>
<path d="M1481 252 c0 -8 -10 -27 -22 -43 -11 -16 -17 -29 -12 -29 15 1 44 50
40 68 -3 9 -5 11 -6 4z"/>
<path d="M57 239 c7 -7 15 -10 18 -7 3 3 -2 9 -12 12 -14 6 -15 5 -6 -5z"/>
<path d="M310 194 c-28 -47 -45 -94 -34 -94 5 0 34 63 34 75 0 6 9 21 21 33
11 13 19 27 17 33 -2 5 -19 -16 -38 -47z"/>
<path d="M1226 235 c-3 -8 -1 -15 4 -15 6 0 10 7 10 15 0 8 -2 15 -4 15 -2 0
-6 -7 -10 -15z"/>
<path d="M1591 213 c-9 -20 -15 -23 -20 -14 -6 9 -8 4 -8 -13 0 -14 3 -23 8
-20 12 7 42 65 36 70 -2 2 -9 -8 -16 -23z"/>
<path d="M2228 223 c7 -3 16 -2 19 1 4 3 -2 6 -13 5 -11 0 -14 -3 -6 -6z"/>
<path d="M1050 204 c0 -8 5 -12 10 -9 6 3 10 10 10 16 0 5 -4 9 -10 9 -5 0
-10 -7 -10 -16z"/>
<path d="M1737 166 c-17 -52 -14 -84 7 -98 5 -4 14 -4 18 -2 14 9 9 22 -9 27
-16 4 -16 5 1 6 16 1 17 3 5 18 -12 15 -12 16 4 10 21 -8 23 17 4 62 l-13 31
-17 -54z"/>
<path d="M943 188 c-8 -24 -10 -33 -12 -58 -1 -12 -3 -12 -10 -2 -6 10 -10 10
-21 -3 -11 -13 -10 -14 6 -8 17 6 17 5 5 -10 -8 -10 -9 -17 -3 -17 13 0 47 57
56 93 8 32 -9 37 -21 5z"/>
<path d="M2491 206 c2 -2 30 -16 63 -30 43 -19 55 -22 45 -9 -16 18 -70 43
-95 43 -10 0 -15 -2 -13 -4z"/>
<path d="M1927 171 c-14 -28 -14 -29 4 -18 10 6 19 20 19 29 0 26 -6 22 -23
-11z"/>
<path d="M1583 144 c-18 -20 -33 -40 -33 -44 0 -5 -12 -21 -26 -35 -14 -14
-23 -29 -19 -33 3 -4 11 1 16 11 6 9 17 17 26 17 14 0 12 -4 -6 -24 -19 -20
-20 -24 -6 -30 9 -3 13 -2 10 3 -3 5 12 19 32 31 33 18 62 51 97 110 11 18
-35 -19 -47 -38 -13 -20 -50 -52 -55 -47 -3 2 1 11 7 19 7 8 10 20 6 26 -3 5
-1 10 5 10 6 0 9 4 5 9 -3 6 4 15 15 21 11 6 20 15 20 20 0 18 -15 10 -47 -26z"/>
<path d="M1145 159 c-4 -6 -4 -13 -1 -16 3 -4 -2 -15 -11 -26 -17 -19 -17 -20
4 -9 16 9 22 9 25 0 7 -19 26 1 21 21 -3 12 -11 17 -19 14 -10 -4 -12 0 -8 11
7 18 -1 22 -11 5z"/>
<path d="M1700 131 c-6 -23 -13 -41 -17 -41 -3 0 -3 10 0 21 3 12 2 18 -2 13
-5 -5 -11 -22 -15 -39 -5 -22 -4 -26 4 -15 7 11 9 5 7 -25 -2 -35 1 -40 21
-43 20 -3 22 0 22 50 0 38 -3 49 -10 38 -13 -20 -13 0 1 39 6 18 9 34 6 38 -3
3 -11 -13 -17 -36z"/>
<path d="M2492 161 c4 -13 18 -16 19 -4 0 4 -5 9 -11 12 -7 2 -11 -2 -8 -8z"/>
<path d="M2532 142 c-11 -23 -7 -29 47 -83 32 -33 64 -59 70 -59 7 0 10 4 7 9
-4 5 -2 11 4 13 6 2 -5 20 -23 41 -23 28 -35 35 -43 27 -8 -8 -13 -5 -16 14
-5 24 -4 24 16 11 11 -8 24 -15 29 -15 15 0 -12 27 -47 48 l-32 19 -12 -25z
m118 -113 c0 -14 -17 -10 -23 5 -4 10 -1 13 9 9 7 -3 14 -9 14 -14z"/>
<path d="M1020 125 c-6 -15 -8 -30 -6 -33 3 -3 10 8 16 23 6 15 8 30 6 33 -3
3 -10 -8 -16 -23z"/>
<path d="M1895 120 c3 -5 8 -10 11 -10 2 0 4 5 4 10 0 6 -5 10 -11 10 -5 0 -7
-4 -4 -10z"/>
<path d="M440 103 c0 -7 -4 -13 -9 -13 -5 0 -12 -17 -16 -37 -5 -26 -9 -33
-15 -23 -7 11 -11 11 -24 1 -9 -8 -16 -19 -16 -25 0 -6 4 -5 9 3 8 12 12 13
26 1 13 -11 18 -10 30 6 8 10 15 25 15 32 0 7 5 23 11 34 8 15 13 17 19 8 6
-9 11 -7 19 8 10 19 8 21 -19 20 -18 -1 -30 -6 -30 -15z"/>
<path d="M820 105 c-7 -9 -11 -17 -9 -20 3 -2 10 5 17 15 14 24 10 26 -8 5z"/>
<path d="M1822 63 c-18 -20 -32 -40 -32 -44 0 -4 -8 -10 -17 -12 -10 -3 2 -5
27 -4 44 2 45 3 43 32 -2 25 -1 27 6 10 5 -11 10 -15 11 -10 1 6 3 17 5 26 7
36 -11 37 -43 2z"/>
<path d="M215 53 c-27 -40 -31 -53 -16 -53 5 0 12 8 16 19 3 10 17 31 30 45
16 18 20 26 10 26 -8 0 -26 -17 -40 -37z"/>
<path d="M352 78 c1 -7 -4 -23 -11 -36 -7 -13 -10 -28 -8 -35 2 -7 12 5 21 27
19 45 20 56 6 56 -6 0 -10 -6 -8 -12z"/>
<path d="M615 50 c-21 -22 -35 -43 -31 -47 9 -9 37 8 46 28 4 8 12 24 19 37
16 30 11 28 -34 -18z"/>
<path d="M905 70 c-3 -5 -1 -10 4 -10 6 0 11 5 11 10 0 6 -2 10 -4 10 -3 0 -8
-4 -11 -10z"/>
<path d="M468 40 c-11 -22 -13 -36 -7 -39 18 -6 31 15 27 45 l-3 29 -17 -35z"/>
<path d="M860 59 c0 -5 5 -7 10 -4 6 3 10 8 10 11 0 2 -4 4 -10 4 -5 0 -10 -5
-10 -11z"/>
<path d="M797 49 c-18 -11 -24 -39 -7 -39 6 0 10 6 10 14 0 8 6 16 13 19 6 2
10 7 7 10 -3 3 -13 1 -23 -4z"/>
<path d="M1060 45 c0 -13 4 -14 20 -5 11 6 20 13 20 15 0 3 -9 5 -20 5 -11 0
-20 -7 -20 -15z"/>
<path d="M1121 52 c-1 -7 -12 -17 -26 -22 -29 -11 -34 -30 -5 -23 25 7 43 29
37 45 -4 10 -6 10 -6 0z"/>
<path d="M2698 30 c-4 -24 -1 -30 14 -30 13 0 17 6 14 23 -3 12 -5 25 -5 30
-2 20 -19 3 -23 -23z"/>
<path d="M729 23 c-13 -15 -16 -21 -6 -14 12 10 17 10 17 2 0 -7 5 -9 11 -5 8
4 7 9 -2 15 -13 8 -5 13 14 10 5 -1 6 3 2 9 -8 14 -8 14 -36 -17z"/>
<path d="M915 30 c-10 -11 -16 -22 -13 -25 3 -3 13 4 23 15 10 11 16 22 13 25
-3 3 -13 -4 -23 -15z"/>
<path d="M1588 29 c-10 -5 -18 -14 -18 -19 0 -17 26 -11 45 10 20 22 4 28 -27
9z"/>
<path d="M1015 23 c-34 -8 -38 -20 -5 -15 16 2 30 8 30 13 0 5 -1 8 -2 8 -2
-1 -12 -3 -23 -6z"/>
<path d="M1225 20 c-4 -6 -14 -8 -23 -6 -10 3 -24 1 -32 -4 -11 -7 -7 -10 17
-10 37 0 63 9 63 21 0 12 -17 11 -25 -1z"/>
<path d="M1434 20 c-5 -5 -25 -11 -44 -13 -23 -3 -18 -4 18 -4 28 0 52 4 52 8
0 13 -16 19 -26 9z"/>
<path d="M1485 10 c-3 -5 -1 -10 4 -10 6 0 11 5 11 10 0 6 -2 10 -4 10 -3 0
-8 -4 -11 -10z"/>
</g>
</svg>
