<?xml version="1.0" standalone="no"?>
<!DOCTYPE svg PUBLIC "-//W3C//DTD SVG 20010904//EN"
 "http://www.w3.org/TR/2001/REC-SVG-20010904/DTD/svg10.dtd">
<svg version="1.0" xmlns="http://www.w3.org/2000/svg"
 width="300.000000pt" height="385.000000pt" viewBox="0 0 300.000000 385.000000"
 preserveAspectRatio="xMidYMid meet">
<metadata>
Created by potrace 1.10, written by Peter Selinger 2001-2011
</metadata>
<g transform="translate(0.000000,385.000000) scale(0.100000,-0.100000)"
fill="#2be506" stroke="none">
<path d="M88 3843 c7 -3 16 -2 19 1 4 3 -2 6 -13 5 -11 0 -14 -3 -6 -6z"/>
<path d="M260 3838 c0 -9 -6 -18 -14 -21 -14 -6 -29 -47 -17 -47 12 0 46 68
38 76 -4 4 -7 0 -7 -8z"/>
<path d="M484 3838 c-5 -8 -2 -9 9 -5 11 4 17 1 17 -7 0 -7 7 -19 15 -26 12
-10 15 -9 16 6 1 11 5 7 9 -11 7 -27 8 -26 7 12 -1 24 -5 43 -9 43 -5 0 -8 -7
-8 -15 0 -8 -4 -15 -10 -15 -5 0 -10 7 -10 15 0 18 -26 20 -36 3z"/>
<path d="M790 3846 c0 -2 7 -9 15 -16 13 -11 14 -10 9 4 -5 14 -24 23 -24 12z"/>
<path d="M1045 3840 c3 -5 8 -10 11 -10 2 0 4 5 4 10 0 6 -5 10 -11 10 -5 0
-7 -4 -4 -10z"/>
<path d="M2257 3830 c-3 -11 -1 -20 4 -20 5 0 9 -7 9 -15 0 -8 5 -15 10 -15 6
0 10 7 10 15 0 8 -4 15 -10 15 -5 0 -7 6 -4 14 3 8 1 17 -4 20 -5 3 -12 -3
-15 -14z"/>
<path d="M2367 3828 c4 -19 3 -20 -6 -8 -9 13 -11 13 -11 0 0 -9 4 -20 9 -25
11 -12 19 -115 9 -108 -8 4 -10 -6 -13 -75 -1 -26 1 -38 6 -30 6 9 9 6 9 -10
0 -13 -4 -20 -10 -17 -5 3 -10 1 -10 -4 0 -6 5 -11 10 -11 6 0 10 -23 10 -51
0 -35 -3 -48 -12 -43 -7 4 -8 3 -4 -5 17 -26 30 -2 32 56 0 33 4 65 8 71 3 6
2 13 -3 17 -6 3 -8 12 -4 20 3 9 -1 15 -11 15 -20 0 -20 7 -1 27 9 8 15 29 13
47 -1 17 1 36 4 42 4 6 3 26 -1 46 -5 20 -4 43 1 52 7 12 5 16 -11 16 -15 0
-18 -5 -14 -22z"/>
<path d="M2658 3843 c7 -3 16 -2 19 1 4 3 -2 6 -13 5 -11 0 -14 -3 -6 -6z"/>
<path d="M2660 3801 c-12 -30 -6 -86 11 -96 5 -4 7 12 5 37 -2 24 1 51 5 60 5
10 5 19 0 22 -5 3 -14 -7 -21 -23z"/>
<path d="M1017 3800 c-3 -11 -1 -20 4 -20 5 0 9 9 9 20 0 11 -2 20 -4 20 -2 0
-6 -9 -9 -20z"/>
<path d="M1720 3805 c0 -8 -7 -15 -15 -15 -8 0 -15 -4 -15 -10 0 -5 9 -10 20
-10 15 0 20 7 20 25 0 14 -2 25 -5 25 -3 0 -5 -7 -5 -15z"/>
<path d="M1880 3805 c0 -8 4 -15 10 -15 5 0 7 7 4 15 -4 8 -8 15 -10 15 -2 0
-4 -7 -4 -15z"/>
<path d="M1347 3793 c6 -15 13 -16 31 -4 10 6 7 10 -11 13 -18 4 -24 1 -20 -9z"/>
<path d="M1406 3801 c-3 -5 7 -11 22 -14 15 -3 39 -9 55 -13 16 -4 27 -2 27 4
0 5 -20 15 -44 21 -54 13 -53 13 -60 2z"/>
<path d="M1640 3800 c-8 -5 -10 -10 -5 -10 6 0 17 5 25 10 8 5 11 10 5 10 -5
0 -17 -5 -25 -10z"/>
<path d="M27 3780 c-3 -13 0 -20 9 -20 8 0 14 9 14 20 0 11 -4 20 -9 20 -5 0
-11 -9 -14 -20z"/>
<path d="M1765 3790 c-4 -6 7 -10 25 -10 18 0 29 4 25 10 -3 6 -15 10 -25 10
-10 0 -22 -4 -25 -10z"/>
<path d="M485 3779 c-4 -6 -5 -12 -2 -15 2 -3 7 2 10 11 7 17 1 20 -8 4z"/>
<path d="M807 3775 c-4 -8 -2 -17 3 -20 5 -3 5 -18 1 -33 -7 -23 -7 -108 0
-122 1 -3 5 29 9 70 4 41 4 79 -1 84 -4 5 -5 15 -2 22 3 8 3 14 0 14 -3 0 -7
-7 -10 -15z"/>
<path d="M1590 3771 c-6 -12 -7 -21 -1 -21 10 0 24 30 17 37 -2 3 -9 -5 -16
-16z"/>
<path d="M1741 3774 c0 -11 3 -14 6 -6 3 7 2 16 -1 19 -3 4 -6 -2 -5 -13z"/>
<path d="M510 3770 c0 -5 5 -10 10 -10 6 0 10 5 10 10 0 6 -4 10 -10 10 -5 0
-10 -4 -10 -10z"/>
<path d="M2008 3773 c7 -3 16 -2 19 1 4 3 -2 6 -13 5 -11 0 -14 -3 -6 -6z"/>
<path d="M2240 3767 c0 -8 4 -18 10 -22 5 -3 6 -15 0 -29 -5 -13 -5 -40 0 -62
5 -21 6 -42 3 -47 -3 -6 -1 -7 5 -3 7 4 9 28 6 66 -4 41 -2 60 6 60 6 0 10 -6
9 -12 -3 -24 1 -38 10 -38 15 0 -5 56 -28 81 -17 18 -21 20 -21 6z"/>
<path d="M1638 3758 c5 -5 16 -8 23 -6 8 3 3 7 -10 11 -17 4 -21 3 -13 -5z"/>
<path d="M892 3735 c0 -16 2 -22 5 -12 2 9 2 23 0 30 -3 6 -5 -1 -5 -18z"/>
<path d="M1357 3749 c-9 -6 -17 -14 -17 -18 0 -14 54 -7 66 8 9 11 15 11 37
-4 15 -9 27 -14 27 -9 0 4 5 3 12 -4 14 -14 28 -16 28 -3 0 13 -64 41 -94 41
-14 0 -26 -6 -26 -12 0 -10 -2 -10 -8 -1 -5 8 -13 8 -25 2z"/>
<path d="M2500 3750 c0 -5 7 -10 15 -10 8 0 15 5 15 10 0 6 -7 10 -15 10 -8 0
-15 -4 -15 -10z"/>
<path d="M2870 3744 c0 -8 5 -12 10 -9 6 4 8 11 5 16 -9 14 -15 11 -15 -7z"/>
<path d="M1191 3734 c0 -11 3 -14 6 -6 3 7 2 16 -1 19 -3 4 -6 -2 -5 -13z"/>
<path d="M1518 3743 c6 -2 10 -8 8 -12 -3 -4 8 -8 23 -8 20 0 28 4 24 14 -3 7
-19 13 -37 12 -17 0 -25 -3 -18 -6z"/>
<path d="M1759 3739 c-8 -5 -22 -6 -33 -3 -12 4 -16 2 -12 -5 4 -6 0 -11 -8
-11 -9 0 -16 5 -16 11 0 7 -10 5 -25 -5 -13 -9 -38 -16 -54 -16 -16 0 -32 -6
-35 -12 -5 -10 -7 -10 -12 0 -3 6 -13 12 -22 12 -13 0 -12 -3 4 -15 21 -16 59
-20 50 -6 -3 5 9 9 28 9 19 0 43 3 54 6 11 4 23 2 27 -4 4 -6 17 -5 40 4 18 8
36 12 39 8 4 -3 30 -6 60 -7 29 -1 58 -5 65 -9 6 -4 57 -9 113 -12 58 -3 105
-9 109 -15 4 -8 8 -7 11 2 3 8 9 11 13 7 4 -4 2 -15 -6 -25 -8 -9 -9 -14 -2
-10 6 4 14 3 18 -3 8 -14 25 -3 25 16 0 8 -4 12 -10 9 -5 -3 -10 4 -10 16 0
16 5 20 20 16 11 -3 18 -2 15 3 -2 4 -62 8 -132 9 -100 2 -131 5 -145 18 -11
10 -29 14 -55 11 -21 -3 -52 -1 -69 2 -18 4 -38 4 -45 -1z"/>
<path d="M2158 3743 c6 -2 18 -2 25 0 6 3 1 5 -13 5 -14 0 -19 -2 -12 -5z"/>
<path d="M2344 3739 c-3 -6 -1 -16 5 -22 8 -8 11 -5 11 11 0 24 -5 28 -16 11z"/>
<path d="M2800 3740 c0 -5 5 -10 10 -10 6 0 10 5 10 10 0 6 -4 10 -10 10 -5 0
-10 -4 -10 -10z"/>
<path d="M1040 3731 c0 -5 7 -12 16 -15 14 -5 15 -4 4 9 -14 17 -20 19 -20 6z"/>
<path d="M1161 3714 c0 -11 3 -14 6 -6 3 7 2 16 -1 19 -3 4 -6 -2 -5 -13z"/>
<path d="M2930 3714 c0 -8 5 -12 10 -9 6 4 8 11 5 16 -9 14 -15 11 -15 -7z"/>
<path d="M1296 3704 c-8 -22 -6 -23 24 -12 20 7 22 11 10 18 -21 14 -27 12
-34 -6z"/>
<path d="M2645 3691 c3 -18 5 -42 5 -52 0 -11 5 -19 11 -19 5 0 7 5 3 11 -3 6
0 15 7 20 11 7 11 11 2 17 -7 4 -17 19 -23 32 -10 23 -10 22 -5 -9z"/>
<path d="M2896 3705 c-9 -26 -7 -32 5 -12 6 10 9 21 6 23 -2 3 -7 -2 -11 -11z"/>
<path d="M525 3700 c-3 -5 -1 -10 4 -10 6 0 11 5 11 10 0 6 -2 10 -4 10 -3 0
-8 -4 -11 -10z"/>
<path d="M1358 3703 c7 -3 16 -2 19 1 4 3 -2 6 -13 5 -11 0 -14 -3 -6 -6z"/>
<path d="M2761 3694 c0 -11 3 -14 6 -6 3 7 2 16 -1 19 -3 4 -6 -2 -5 -13z"/>
<path d="M1184 3685 c-4 -8 -14 -15 -23 -16 -13 0 -14 -2 -1 -6 8 -4 20 -13
26 -21 9 -13 12 -12 17 7 4 15 10 19 22 15 16 -6 16 -5 -1 14 -22 26 -32 28
-40 7z"/>
<path d="M1485 3691 c-3 -5 -1 -12 5 -16 5 -3 10 1 10 9 0 18 -6 21 -15 7z"/>
<path d="M2841 3684 c0 -11 3 -14 6 -6 3 7 2 16 -1 19 -3 4 -6 -2 -5 -13z"/>
<path d="M371 3674 c0 -11 3 -14 6 -6 3 7 2 16 -1 19 -3 4 -6 -2 -5 -13z"/>
<path d="M705 3680 c-3 -5 1 -10 9 -10 9 0 16 -5 16 -12 0 -6 2 -9 5 -6 7 7
-5 38 -15 38 -5 0 -12 -4 -15 -10z"/>
<path d="M1378 3683 c7 -3 16 -2 19 1 4 3 -2 6 -13 5 -11 0 -14 -3 -6 -6z"/>
<path d="M1877 3669 c4 -16 8 -17 14 -7 13 19 11 28 -5 28 -9 0 -12 -7 -9 -21z"/>
<path d="M2477 3683 c-4 -3 -7 -11 -7 -17 0 -6 5 -5 12 2 6 6 9 14 7 17 -3 3
-9 2 -12 -2z"/>
<path d="M130 3665 c0 -16 16 -20 24 -6 3 5 -1 11 -9 15 -9 3 -15 0 -15 -9z"/>
<path d="M500 3668 c0 -9 5 -20 10 -23 13 -8 13 5 0 25 -8 13 -10 13 -10 -2z"/>
<path d="M545 3670 c-3 -5 -1 -10 4 -10 6 0 11 5 11 10 0 6 -2 10 -4 10 -3 0
-8 -4 -11 -10z"/>
<path d="M1020 3666 c0 -9 5 -16 10 -16 7 0 7 -7 0 -21 -7 -11 -10 -23 -7 -25
2 -2 10 7 17 21 11 20 19 24 48 20 19 -2 40 -10 48 -16 10 -8 14 -8 14 0 0 6
-4 11 -10 11 -5 0 -7 6 -4 14 4 10 -5 14 -36 14 -22 0 -49 4 -60 7 -14 5 -20
2 -20 -9z"/>
<path d="M1292 3645 c-6 -14 -10 -25 -9 -25 2 0 13 11 25 25 15 17 17 25 9 25
-8 0 -19 -11 -25 -25z"/>
<path d="M1348 3663 c7 -3 16 -2 19 1 4 3 -2 6 -13 5 -11 0 -14 -3 -6 -6z"/>
<path d="M1855 3660 c3 -5 8 -10 11 -10 2 0 4 5 4 10 0 6 -5 10 -11 10 -5 0
-7 -4 -4 -10z"/>
<path d="M2761 3654 c0 -11 3 -14 6 -6 3 7 2 16 -1 19 -3 4 -6 -2 -5 -13z"/>
<path d="M1255 3650 c-3 -5 -1 -10 4 -10 6 0 11 5 11 10 0 6 -2 10 -4 10 -3 0
-8 -4 -11 -10z"/>
<path d="M1464 3649 c-3 -6 -2 -15 4 -21 6 -6 11 -2 15 11 5 22 -7 29 -19 10z"/>
<path d="M1807 3642 c1 -8 3 -16 3 -19 0 -3 7 0 15 7 8 7 15 17 15 22 0 6 -6
6 -14 -1 -8 -7 -16 -8 -18 -4 -3 4 -3 2 -1 -5z"/>
<path d="M2286 3643 c-6 -14 -5 -15 5 -6 7 7 10 15 7 18 -3 3 -9 -2 -12 -12z"/>
<path d="M550 3636 c0 -9 -4 -14 -10 -11 -6 4 -10 -12 -10 -42 0 -31 3 -43 9
-34 7 11 11 10 21 -5 11 -18 11 -18 6 -1 -3 10 -6 23 -6 28 0 6 -5 7 -10 4
-11 -7 -8 18 5 48 4 10 5 21 1 24 -3 4 -6 -1 -6 -11z"/>
<path d="M2189 3630 c-12 -13 -13 -21 -3 -46 l12 -29 11 27 c6 15 7 36 3 46
-6 16 -8 16 -23 2z"/>
<path d="M2591 3634 c0 -11 3 -14 6 -6 3 7 2 16 -1 19 -3 4 -6 -2 -5 -13z"/>
<path d="M660 3630 c0 -5 5 -10 11 -10 5 0 7 5 4 10 -3 6 -8 10 -11 10 -2 0
-4 -4 -4 -10z"/>
<path d="M1214 3626 c-9 -10 -7 -18 8 -37 l19 -24 -12 25 c-9 18 -9 25 0 28
12 4 15 22 4 22 -5 -1 -13 -7 -19 -14z"/>
<path d="M990 3615 c0 -8 -7 -15 -15 -15 -8 0 -15 -5 -15 -11 0 -6 7 -9 15 -5
8 3 15 0 15 -6 0 -19 11 -2 16 26 2 14 0 26 -6 26 -5 0 -10 -7 -10 -15z"/>
<path d="M1360 3620 c-9 -6 -10 -10 -3 -10 6 0 15 5 18 10 8 12 4 12 -15 0z"/>
<path d="M455 3610 c-3 -5 -1 -10 4 -10 6 0 11 5 11 10 0 6 -2 10 -4 10 -3 0
-8 -4 -11 -10z"/>
<path d="M1110 3609 c0 -5 5 -7 10 -4 6 3 10 8 10 11 0 2 -4 4 -10 4 -5 0 -10
-5 -10 -11z"/>
<path d="M1430 3610 c0 -5 7 -10 16 -10 8 0 12 5 9 10 -3 6 -10 10 -16 10 -5
0 -9 -4 -9 -10z"/>
<path d="M1680 3610 c0 -5 5 -10 10 -10 6 0 10 5 10 10 0 6 -4 10 -10 10 -5 0
-10 -4 -10 -10z"/>
<path d="M2145 3611 c3 -6 -2 -14 -11 -19 -15 -8 -14 -11 7 -25 12 -9 24 -16
25 -14 6 7 -10 67 -18 67 -5 0 -7 -4 -3 -9z"/>
<path d="M715 3600 c-8 -13 -1 -24 14 -19 6 3 7 10 2 18 -6 10 -10 10 -16 1z"/>
<path d="M145 3590 c-3 -5 -1 -10 4 -10 6 0 11 5 11 10 0 6 -2 10 -4 10 -3 0
-8 -4 -11 -10z"/>
<path d="M885 3589 c-12 -19 5 -23 22 -6 16 16 16 17 1 17 -9 0 -20 -5 -23
-11z"/>
<path d="M1130 3590 c0 -5 4 -10 9 -10 5 0 18 -3 28 -6 16 -6 16 -5 -2 9 -23
19 -35 21 -35 7z"/>
<path d="M2076 3573 c-6 -14 -5 -15 5 -6 7 7 10 15 7 18 -3 3 -9 -2 -12 -12z"/>
<path d="M480 3570 c0 -5 5 -10 11 -10 5 0 7 5 4 10 -3 6 -8 10 -11 10 -2 0
-4 -4 -4 -10z"/>
<path d="M661 3564 c0 -11 3 -14 6 -6 3 7 2 16 -1 19 -3 4 -6 -2 -5 -13z"/>
<path d="M834 3572 c3 -5 0 -12 -6 -15 -10 -3 -10 -8 -2 -16 9 -9 13 -7 17 8
3 12 0 24 -5 28 -6 3 -8 1 -4 -5z"/>
<path d="M1730 3570 c0 -5 5 -10 11 -10 5 0 7 5 4 10 -3 6 -8 10 -11 10 -2 0
-4 -4 -4 -10z"/>
<path d="M1940 3554 c0 -8 5 -12 10 -9 6 4 8 11 5 16 -9 14 -15 11 -15 -7z"/>
<path d="M2110 3559 c0 -5 5 -7 10 -4 6 3 10 8 10 11 0 2 -4 4 -10 4 -5 0 -10
-5 -10 -11z"/>
<path d="M2649 3563 c-1 -5 -2 -21 -3 -38 -1 -16 -6 -39 -11 -49 -5 -11 -4
-30 2 -47 6 -16 9 -37 6 -48 -3 -10 1 -22 8 -26 9 -6 10 8 6 64 -7 71 -3 82
22 59 11 -11 11 -9 2 9 -6 12 -11 31 -11 42 0 12 -6 21 -12 21 -9 0 -8 4 2 10
10 6 11 10 3 10 -7 0 -13 -3 -14 -7z"/>
<path d="M2825 3561 c-3 -5 -1 -12 5 -16 5 -3 10 1 10 9 0 18 -6 21 -15 7z"/>
<path d="M2220 3550 c0 -5 5 -10 10 -10 6 0 10 5 10 10 0 6 -4 10 -10 10 -5 0
-10 -4 -10 -10z"/>
<path d="M235 3540 c3 -5 8 -10 11 -10 2 0 4 5 4 10 0 6 -5 10 -11 10 -5 0 -7
-4 -4 -10z"/>
<path d="M949 3545 c-3 -2 -19 -5 -37 -7 -18 -1 -32 -6 -32 -10 0 -9 -47 -31
-67 -33 -13 0 -53 -43 -53 -57 0 -4 5 -8 11 -8 5 0 8 4 5 9 -3 5 1 14 9 21 13
10 15 9 15 -9 0 -22 14 -28 25 -10 4 6 -1 17 -11 24 -18 14 -18 14 6 16 14 1
31 1 38 0 7 -1 15 5 19 14 4 13 7 14 14 4 6 -11 15 -7 37 14 15 15 31 24 35
20 4 -3 7 -1 7 5 0 12 -13 16 -21 7z"/>
<path d="M1865 3530 c3 -5 8 -10 11 -10 2 0 4 5 4 10 0 6 -5 10 -11 10 -5 0
-7 -4 -4 -10z"/>
<path d="M2746 3531 c-3 -5 1 -11 9 -15 9 -3 15 0 15 9 0 16 -16 20 -24 6z"/>
<path d="M534 3468 c3 -35 6 -65 7 -68 3 -9 6 -25 7 -37 1 -7 5 -13 10 -13 11
0 1 114 -11 122 -7 4 -7 11 2 22 13 16 7 36 -10 36 -6 0 -8 -24 -5 -62z"/>
<path d="M1625 3519 c-4 -6 -5 -12 -2 -15 2 -3 7 2 10 11 7 17 1 20 -8 4z"/>
<path d="M2325 3521 c-3 -5 -1 -12 5 -16 5 -3 10 1 10 9 0 18 -6 21 -15 7z"/>
<path d="M81 3504 c0 -11 3 -14 6 -6 3 7 2 16 -1 19 -3 4 -6 -2 -5 -13z"/>
<path d="M978 3513 c7 -3 16 -2 19 1 4 3 -2 6 -13 5 -11 0 -14 -3 -6 -6z"/>
<path d="M1482 3490 c0 -14 2 -19 5 -12 2 6 2 18 0 25 -3 6 -5 1 -5 -13z"/>
<path d="M1745 3500 c-3 -5 -1 -10 4 -10 6 0 11 5 11 10 0 6 -2 10 -4 10 -3 0
-8 -4 -11 -10z"/>
<path d="M2130 3495 c0 -8 4 -15 8 -15 5 0 9 7 9 15 0 8 -4 15 -9 15 -4 0 -8
-7 -8 -15z"/>
<path d="M2352 3490 c0 -14 2 -19 5 -12 2 6 2 18 0 25 -3 6 -5 1 -5 -13z"/>
<path d="M1649 3483 c-13 -16 -12 -17 4 -4 9 7 17 15 17 17 0 8 -8 3 -21 -13z"/>
<path d="M967 3483 c-4 -3 -7 -11 -7 -17 0 -6 5 -5 12 2 6 6 9 14 7 17 -3 3
-9 2 -12 -2z"/>
<path d="M2907 3467 c-11 -29 -9 -43 4 -30 6 6 9 19 7 29 -3 18 -4 18 -11 1z"/>
<path d="M290 3465 c0 -3 13 -17 29 -32 15 -16 40 -48 55 -72 35 -56 93 -114
106 -106 14 8 13 26 -1 23 -6 -2 -14 3 -16 10 -3 7 3 12 13 12 14 0 15 3 6 12
-7 7 -15 8 -24 1 -9 -7 -18 -4 -30 8 -10 10 -13 21 -8 24 6 4 5 13 -2 25 -7
10 -15 17 -18 15 -4 -2 -24 16 -46 40 -33 38 -64 57 -64 40z"/>
<path d="M2215 3450 c20 -22 35 -26 35 -10 0 6 -7 10 -15 10 -8 0 -15 5 -15
10 0 6 -5 10 -12 10 -6 0 -3 -9 7 -20z"/>
<path d="M1110 3450 c0 -5 5 -10 10 -10 6 0 10 5 10 10 0 6 -4 10 -10 10 -5 0
-10 -4 -10 -10z"/>
<path d="M2280 3448 c0 -10 18 -9 45 2 16 6 14 8 -12 7 -18 0 -33 -4 -33 -9z"/>
<path d="M1625 3440 c-3 -5 -1 -10 4 -10 6 0 11 5 11 10 0 6 -2 10 -4 10 -3 0
-8 -4 -11 -10z"/>
<path d="M2861 3435 c1 -19 18 -51 18 -35 0 8 -4 22 -9 30 -5 8 -9 11 -9 5z"/>
<path d="M910 3414 c0 -8 5 -12 10 -9 6 4 8 11 5 16 -9 14 -15 11 -15 -7z"/>
<path d="M235 3411 c-3 -5 -1 -12 5 -16 5 -3 10 1 10 9 0 18 -6 21 -15 7z"/>
<path d="M296 3390 c8 -41 22 -81 23 -62 1 7 6 10 11 7 6 -4 9 -12 8 -18 -4
-20 32 -77 48 -77 13 0 13 3 -1 30 -8 16 -15 34 -15 40 0 5 -8 18 -17 28 -28
29 -50 58 -57 73 -3 8 -3 -2 0 -21z"/>
<path d="M645 3409 c-4 -6 -5 -12 -2 -15 2 -3 7 2 10 11 7 17 1 20 -8 4z"/>
<path d="M1145 3410 c-3 -5 -1 -10 4 -10 6 0 11 5 11 10 0 6 -2 10 -4 10 -3 0
-8 -4 -11 -10z"/>
<path d="M2366 3395 c-3 -9 -1 -15 7 -14 26 3 37 -2 37 -16 0 -8 5 -15 10 -15
6 0 9 6 8 13 -2 8 10 11 40 10 31 -1 42 2 42 13 0 8 -4 14 -9 14 -5 0 -17 3
-27 7 -11 4 -15 3 -11 -4 5 -8 -5 -8 -31 -2 -52 12 -59 11 -66 -6z"/>
<path d="M793 3385 c-8 -9 -9 -16 -3 -20 6 -3 13 1 16 10 9 21 2 26 -13 10z"/>
<path d="M1220 3391 c0 -6 5 -13 10 -16 6 -3 10 1 10 9 0 9 -4 16 -10 16 -5 0
-10 -4 -10 -9z"/>
<path d="M1360 3388 c0 -9 5 -20 10 -23 13 -8 13 5 0 25 -8 13 -10 13 -10 -2z"/>
<path d="M510 3380 c0 -5 5 -10 11 -10 5 0 7 5 4 10 -3 6 -8 10 -11 10 -2 0
-4 -4 -4 -10z"/>
<path d="M1026 3377 c3 -10 9 -15 12 -12 3 3 0 11 -7 18 -10 9 -11 8 -5 -6z"/>
<path d="M2221 3374 c0 -11 3 -14 6 -6 3 7 2 16 -1 19 -3 4 -6 -2 -5 -13z"/>
<path d="M2532 3370 c7 -11 18 -20 25 -20 19 0 16 6 -12 24 -25 17 -25 16 -13
-4z"/>
<path d="M2750 3375 c-7 -9 -8 -15 -2 -15 5 0 12 7 16 15 3 8 4 15 2 15 -2 0
-9 -7 -16 -15z"/>
<path d="M694 3369 c-28 -8 -67 -39 -50 -39 4 0 0 -7 -9 -16 -8 -9 -22 -13
-31 -10 -9 3 -12 2 -9 -5 4 -6 -2 -13 -14 -16 -12 -3 -21 -10 -21 -17 0 -6 -9
-22 -20 -36 -11 -14 -20 -32 -20 -42 0 -9 -6 -18 -12 -21 -7 -2 -9 -8 -5 -13
4 -5 12 -2 17 6 5 8 12 11 17 7 4 -5 1 -12 -6 -16 -11 -7 -9 -14 8 -32 l22
-24 -8 25 c-5 14 -8 32 -7 40 1 8 2 23 3 33 0 10 5 16 10 13 5 -4 12 7 16 24
4 16 11 33 17 37 7 4 9 0 5 -10 -3 -10 -5 -17 -3 -17 3 0 12 -3 21 -7 15 -5
16 -3 7 14 -16 29 20 68 48 53 23 -12 25 -7 10 21 -9 16 -7 19 9 19 11 0 23 5
27 11 4 8 9 7 15 -2 4 -7 10 -11 13 -8 3 3 0 12 -7 21 -9 12 -19 13 -43 7z"/>
<path d="M2130 3372 c0 -5 7 -13 16 -16 10 -4 14 -1 12 6 -5 15 -28 23 -28 10z"/>
<path d="M255 3360 c-3 -5 1 -10 9 -10 9 0 16 5 16 10 0 6 -4 10 -9 10 -6 0
-13 -4 -16 -10z"/>
<path d="M2046 3355 c4 -8 10 -15 15 -15 5 0 9 7 9 15 0 8 -7 15 -15 15 -9 0
-12 -6 -9 -15z"/>
<path d="M2255 3360 c3 -5 11 -10 16 -10 6 0 7 5 4 10 -3 6 -11 10 -16 10 -6
0 -7 -4 -4 -10z"/>
<path d="M940 3350 c0 -5 4 -10 9 -10 6 0 13 5 16 10 3 6 -1 10 -9 10 -9 0
-16 -4 -16 -10z"/>
<path d="M2000 3352 c-18 -6 -30 -22 -30 -42 0 -9 5 -7 16 8 8 12 19 20 24 17
5 -3 11 -1 14 4 8 13 -5 20 -24 13z"/>
<path d="M2371 3344 c0 -11 3 -14 6 -6 3 7 2 16 -1 19 -3 4 -6 -2 -5 -13z"/>
<path d="M2961 3351 c-8 -5 -9 -11 -3 -15 5 -3 12 1 16 9 6 17 6 18 -13 6z"/>
<path d="M1600 3340 c0 -5 5 -10 10 -10 6 0 10 5 10 10 0 6 -4 10 -10 10 -5 0
-10 -4 -10 -10z"/>
<path d="M2436 3342 c-2 -4 2 -18 11 -32 9 -16 12 -18 7 -5 -3 11 -7 26 -7 33
0 14 -4 15 -11 4z"/>
<path d="M20 3330 c0 -5 5 -10 10 -10 6 0 10 5 10 10 0 6 -4 10 -10 10 -5 0
-10 -4 -10 -10z"/>
<path d="M277 3334 c-3 -4 0 -13 8 -21 8 -8 15 -25 15 -39 0 -13 4 -24 8 -24
4 0 13 -15 20 -33 7 -18 28 -52 47 -74 19 -23 35 -46 35 -53 0 -6 5 -8 12 -4
6 4 8 3 4 -4 -12 -20 9 -20 29 1 17 17 17 19 3 14 -21 -8 -30 4 -17 23 6 10
12 11 17 5 4 -6 23 -12 42 -13 33 -3 34 -2 17 15 -18 18 -77 27 -77 12 0 -4
-9 -7 -20 -6 -11 1 -20 8 -20 18 0 9 -7 20 -15 23 -9 3 -27 31 -41 62 -14 31
-31 63 -39 71 -9 8 -13 19 -10 24 7 10 -8 13 -18 3z"/>
<path d="M555 3329 c-11 -16 -1 -19 13 -3 7 8 8 14 3 14 -5 0 -13 -5 -16 -11z"/>
<path d="M885 3330 c3 -5 8 -10 11 -10 2 0 4 5 4 10 0 6 -5 10 -11 10 -5 0 -7
-4 -4 -10z"/>
<path d="M1150 3331 c0 -5 5 -13 10 -16 6 -3 10 -2 10 4 0 5 -4 13 -10 16 -5
3 -10 2 -10 -4z"/>
<path d="M2632 3320 c-10 -16 -10 -20 2 -20 8 0 17 -6 19 -12 3 -7 6 2 6 20 1
37 -9 41 -27 12z"/>
<path d="M500 3296 c0 -9 7 -12 20 -9 11 3 20 9 20 14 0 5 -9 9 -20 9 -11 0
-20 -6 -20 -14z"/>
<path d="M1318 3303 c7 -3 16 -2 19 1 4 3 -2 6 -13 5 -11 0 -14 -3 -6 -6z"/>
<path d="M1590 3298 c0 -9 5 -20 10 -23 13 -8 13 5 0 25 -8 13 -10 13 -10 -2z"/>
<path d="M1660 3294 c0 -8 5 -12 10 -9 6 3 10 10 10 16 0 5 -4 9 -10 9 -5 0
-10 -7 -10 -16z"/>
<path d="M1930 3301 c0 -5 7 -12 16 -15 24 -9 27 -7 10 9 -17 17 -26 19 -26 6z"/>
<path d="M2283 3302 c-13 -2 -23 -7 -23 -12 0 -15 14 -17 38 -5 27 14 19 23
-15 17z"/>
<path d="M1 3273 c0 -18 2 -33 7 -33 12 0 32 -51 32 -81 0 -15 4 -31 10 -34 6
-4 7 1 3 11 -4 12 -3 15 5 10 7 -4 12 -12 12 -17 0 -6 7 -17 16 -26 8 -9 13
-22 10 -30 -4 -9 -2 -11 6 -7 7 5 9 -2 5 -22 -3 -16 -4 -23 -1 -16 8 17 24 15
24 -3 0 -9 6 -12 15 -9 10 4 15 0 15 -14 0 -11 7 -25 15 -32 8 -7 15 -18 15
-25 0 -7 6 -18 14 -24 16 -14 15 -36 -2 -53 -7 -7 -12 -16 -12 -20 0 -4 9 1
20 12 11 11 20 25 20 31 0 8 5 8 15 -1 20 -17 20 4 -1 24 -8 9 -20 14 -25 11
-5 -4 -9 5 -9 18 0 14 -7 30 -15 37 -8 7 -15 18 -15 26 0 7 -9 18 -20 24 -11
6 -20 18 -20 26 0 8 -4 12 -10 9 -5 -3 -10 3 -10 14 0 12 -4 21 -10 21 -5 0
-10 7 -10 16 0 9 -9 25 -21 35 -12 10 -18 23 -13 30 4 7 3 9 -4 5 -7 -4 -13 7
-18 28 -3 20 -11 34 -17 33 -6 -1 -14 12 -18 28 l-7 30 -1 -32z"/>
<path d="M1225 3280 c3 -5 8 -10 11 -10 2 0 4 5 4 10 0 6 -5 10 -11 10 -5 0
-7 -4 -4 -10z"/>
<path d="M2190 3290 c-8 -26 -7 -41 2 -32 6 6 8 16 5 24 -3 7 -6 11 -7 8z"/>
<path d="M2420 3280 c0 -5 5 -10 10 -10 6 0 10 5 10 10 0 6 -4 10 -10 10 -5 0
-10 -4 -10 -10z"/>
<path d="M160 3270 c0 -5 5 -10 11 -10 5 0 7 5 4 10 -3 6 -8 10 -11 10 -2 0
-4 -4 -4 -10z"/>
<path d="M1793 3245 c0 -22 2 -30 4 -17 2 12 2 30 0 40 -3 9 -5 -1 -4 -23z"/>
<path d="M1830 3265 c-10 -12 -10 -15 4 -15 9 0 16 7 16 15 0 8 -2 15 -4 15
-2 0 -9 -7 -16 -15z"/>
<path d="M1931 3264 c0 -11 3 -14 6 -6 3 7 2 16 -1 19 -3 4 -6 -2 -5 -13z"/>
<path d="M1995 3270 c-3 -5 -1 -10 4 -10 6 0 11 5 11 10 0 6 -2 10 -4 10 -3 0
-8 -4 -11 -10z"/>
<path d="M2222 3260 c0 -14 2 -19 5 -12 2 6 2 18 0 25 -3 6 -5 1 -5 -13z"/>
<path d="M2513 3263 c11 -12 25 -19 33 -16 9 3 14 -2 14 -15 0 -12 4 -23 9
-27 5 -3 9 8 9 25 -1 28 -30 51 -45 36 -4 -3 -13 0 -22 6 -11 9 -10 5 2 -9z"/>
<path d="M2735 3270 c-3 -5 -1 -10 4 -10 6 0 11 5 11 10 0 6 -2 10 -4 10 -3 0
-8 -4 -11 -10z"/>
<path d="M1485 3260 c-3 -5 -1 -10 4 -10 6 0 11 5 11 10 0 6 -2 10 -4 10 -3 0
-8 -4 -11 -10z"/>
<path d="M2642 3258 c-14 -14 -16 -38 -3 -38 10 0 26 39 19 46 -2 2 -10 -2
-16 -8z"/>
<path d="M1630 3249 c0 -5 5 -7 10 -4 6 3 10 8 10 11 0 2 -4 4 -10 4 -5 0 -10
-5 -10 -11z"/>
<path d="M2481 3250 c0 -8 4 -22 9 -30 12 -18 12 -2 0 25 -6 13 -9 15 -9 5z"/>
<path d="M710 3240 c0 -5 5 -10 10 -10 6 0 10 5 10 10 0 6 -4 10 -10 10 -5 0
-10 -4 -10 -10z"/>
<path d="M1090 3236 c0 -8 5 -18 10 -21 6 -3 10 3 10 14 0 12 -4 21 -10 21 -5
0 -10 -6 -10 -14z"/>
<path d="M1660 3240 c0 -5 5 -10 11 -10 5 0 7 5 4 10 -3 6 -8 10 -11 10 -2 0
-4 -4 -4 -10z"/>
<path d="M1947 3236 c-9 -7 -17 -18 -17 -25 0 -6 9 -2 21 10 24 24 22 33 -4
15z"/>
<path d="M2383 3235 c0 -18 5 -18 37 0 l25 14 -31 1 c-21 0 -31 -5 -31 -15z"/>
<path d="M2961 3234 c0 -11 3 -14 6 -6 3 7 2 16 -1 19 -3 4 -6 -2 -5 -13z"/>
<path d="M2866 3225 c4 -8 8 -15 10 -15 2 0 4 7 4 15 0 8 -4 15 -10 15 -5 0
-7 -7 -4 -15z"/>
<path d="M1480 3221 c0 -5 9 -7 20 -4 11 3 20 7 20 9 0 2 -9 4 -20 4 -11 0
-20 -4 -20 -9z"/>
<path d="M1725 3220 c-3 -5 -1 -10 4 -10 6 0 11 5 11 10 0 6 -2 10 -4 10 -3 0
-8 -4 -11 -10z"/>
<path d="M2315 3220 c-3 -5 1 -10 10 -10 9 0 13 5 10 10 -3 6 -8 10 -10 10 -2
0 -7 -4 -10 -10z"/>
<path d="M272 3195 c0 -16 2 -22 5 -12 2 9 2 23 0 30 -3 6 -5 -1 -5 -18z"/>
<path d="M630 3210 c0 -5 5 -10 11 -10 5 0 7 5 4 10 -3 6 -8 10 -11 10 -2 0
-4 -4 -4 -10z"/>
<path d="M1383 3205 c2 -5 13 -11 25 -13 15 -2 20 1 17 10 -6 16 -47 19 -42 3z"/>
<path d="M2526 3204 c-8 -21 3 -84 15 -84 11 0 11 0 -2 39 -8 24 -8 35 1 46 7
9 8 15 2 15 -5 0 -13 -7 -16 -16z"/>
<path d="M1755 3200 c-3 -5 -1 -10 4 -10 6 0 11 5 11 10 0 6 -2 10 -4 10 -3 0
-8 -4 -11 -10z"/>
<path d="M1651 3184 c0 -11 3 -14 6 -6 3 7 2 16 -1 19 -3 4 -6 -2 -5 -13z"/>
<path d="M2080 3185 c14 -17 5 -36 -14 -29 -8 3 -17 0 -21 -5 -3 -6 -10 -9
-14 -7 -4 3 -8 -1 -8 -9 0 -17 13 -20 22 -5 4 6 14 10 23 9 43 -4 83 2 77 11
-3 6 1 10 9 10 9 0 16 -4 16 -10 0 -5 7 -10 16 -10 13 0 13 2 2 13 -22 22 -46
27 -52 11 -3 -8 -15 -14 -28 -14 -17 0 -19 3 -10 12 12 12 -1 38 -20 38 -6 0
-5 -6 2 -15z"/>
<path d="M2630 3197 c0 -3 7 -18 15 -33 l16 -29 -3 29 c-2 16 -9 31 -15 34 -7
2 -13 2 -13 -1z"/>
<path d="M2940 3188 c0 -7 5 -20 10 -28 8 -12 10 -11 10 7 0 12 -4 25 -10 28
-5 3 -10 0 -10 -7z"/>
<path d="M1186 3175 c-3 -8 -1 -15 4 -15 6 0 10 7 10 15 0 8 -2 15 -4 15 -2 0
-6 -7 -10 -15z"/>
<path d="M1690 3170 c0 -11 5 -20 10 -20 6 0 10 9 10 20 0 11 -4 20 -10 20 -5
0 -10 -9 -10 -20z"/>
<path d="M1857 3184 c-8 -8 1 -24 12 -24 4 0 8 7 8 15 0 16 -9 20 -20 9z"/>
<path d="M1103 3164 c-13 -14 -17 -34 -7 -34 13 0 32 28 26 37 -5 7 -11 6 -19
-3z"/>
<path d="M1387 3173 c-12 -12 -7 -21 11 -19 10 0 16 -6 16 -16 -1 -10 5 -18
12 -18 11 0 12 5 5 18 -13 25 -36 43 -44 35z"/>
<path d="M1490 3169 c0 -5 -5 -7 -12 -3 -7 4 -8 3 -4 -4 10 -17 36 -15 36 3 0
8 -4 15 -10 15 -5 0 -10 -5 -10 -11z"/>
<path d="M1898 3173 c7 -3 16 -2 19 1 4 3 -2 6 -13 5 -11 0 -14 -3 -6 -6z"/>
<path d="M1950 3176 c0 -2 7 -6 15 -10 8 -3 15 -1 15 4 0 6 -7 10 -15 10 -8 0
-15 -2 -15 -4z"/>
<path d="M120 3160 c0 -5 5 -10 10 -10 6 0 10 5 10 10 0 6 -4 10 -10 10 -5 0
-10 -4 -10 -10z"/>
<path d="M235 3160 c-3 -5 1 -10 10 -10 9 0 13 5 10 10 -3 6 -8 10 -10 10 -2
0 -7 -4 -10 -10z"/>
<path d="M1211 3154 c0 -11 3 -14 6 -6 3 7 2 16 -1 19 -3 4 -6 -2 -5 -13z"/>
<path d="M1570 3159 c0 -5 5 -7 10 -4 6 3 10 8 10 11 0 2 -4 4 -10 4 -5 0 -10
-5 -10 -11z"/>
<path d="M1610 3155 c0 -8 5 -15 10 -15 6 0 10 7 10 15 0 8 -4 15 -10 15 -5 0
-10 -7 -10 -15z"/>
<path d="M1781 3151 c-13 -10 -19 -21 -14 -24 10 -7 50 29 42 37 -2 3 -15 -3
-28 -13z"/>
<path d="M2416 3155 c-3 -8 -3 -15 0 -15 3 0 12 7 20 15 13 13 13 15 1 15 -8
0 -17 -7 -21 -15z"/>
<path d="M2911 3154 c0 -11 3 -14 6 -6 3 7 2 16 -1 19 -3 4 -6 -2 -5 -13z"/>
<path d="M290 3140 c0 -11 4 -20 9 -20 5 0 7 9 4 20 -3 11 -7 20 -9 20 -2 0
-4 -9 -4 -20z"/>
<path d="M1531 3144 c0 -11 3 -14 6 -6 3 7 2 16 -1 19 -3 4 -6 -2 -5 -13z"/>
<path d="M1885 3150 c-3 -5 -1 -10 4 -10 6 0 11 5 11 10 0 6 -2 10 -4 10 -3 0
-8 -4 -11 -10z"/>
<path d="M1938 3151 c10 -6 8 -10 -10 -15 -21 -6 -20 -8 17 -21 28 -10 43 -11
52 -3 15 12 17 28 3 28 -5 0 -10 -7 -10 -16 0 -11 -5 -14 -16 -10 -9 3 -18 6
-20 6 -14 0 -1 20 14 21 14 0 14 2 -3 9 -26 11 -44 12 -27 1z"/>
<path d="M2560 3147 c0 -14 19 -37 31 -37 4 0 2 11 -4 25 -13 27 -27 33 -27
12z"/>
<path d="M2672 3130 c0 -19 2 -27 5 -17 2 9 2 25 0 35 -3 9 -5 1 -5 -18z"/>
<path d="M1357 3143 c-4 -3 -7 -11 -7 -17 0 -6 5 -5 12 2 6 6 9 14 7 17 -3 3
-9 2 -12 -2z"/>
<path d="M1826 3142 c-3 -6 -1 -14 5 -17 15 -10 25 3 12 16 -7 7 -13 7 -17 1z"/>
<path d="M1015 3130 c3 -5 16 -10 27 -10 26 0 16 13 -13 17 -12 2 -18 -1 -14
-7z"/>
<path d="M1661 3124 c0 -11 3 -14 6 -6 3 7 2 16 -1 19 -3 4 -6 -2 -5 -13z"/>
<path d="M1720 3130 c-9 -6 -10 -10 -3 -10 6 0 15 5 18 10 8 12 4 12 -15 0z"/>
<path d="M2475 3130 c3 -5 14 -10 23 -10 15 0 15 2 2 10 -20 13 -33 13 -25 0z"/>
<path d="M2957 3125 c-4 -11 -10 -27 -13 -35 -3 -8 1 -5 11 8 9 12 15 28 13
34 -3 7 -7 4 -11 -7z"/>
<path d="M1205 3120 c-4 -7 0 -19 9 -28 18 -18 21 -16 30 18 6 19 5 22 -3 10
-9 -12 -12 -13 -20 -1 -6 10 -10 10 -16 1z"/>
<path d="M2148 3123 c7 -3 16 -2 19 1 4 3 -2 6 -13 5 -11 0 -14 -3 -6 -6z"/>
<path d="M2762 3110 c0 -14 2 -19 5 -12 2 6 2 18 0 25 -3 6 -5 1 -5 -13z"/>
<path d="M891 3109 c0 -9 6 -22 14 -29 10 -9 15 -9 15 -1 0 6 -4 11 -9 11 -5
0 -12 8 -14 18 -4 14 -5 14 -6 1z"/>
<path d="M1110 3112 c0 -4 9 -8 20 -8 11 0 20 4 20 8 0 4 -9 8 -20 8 -11 0
-20 -4 -20 -8z"/>
<path d="M1370 3100 c0 -11 5 -20 10 -20 6 0 10 9 10 20 0 11 -4 20 -10 20 -5
0 -10 -9 -10 -20z"/>
<path d="M1785 3110 c-4 -6 -15 -8 -25 -5 -12 4 -19 -1 -23 -15 -6 -25 -5 -25
39 -1 19 11 31 22 25 25 -5 4 -13 2 -16 -4z"/>
<path d="M2098 3108 c5 -5 16 -8 23 -6 8 3 3 7 -10 11 -17 4 -21 3 -13 -5z"/>
<path d="M2211 3101 c-9 -12 -13 -13 -17 -3 -3 6 -12 12 -20 12 -11 0 -10 -5
5 -21 16 -18 22 -19 41 -9 18 10 24 9 31 -1 10 -17 21 -7 14 14 -9 22 -40 27
-54 8z"/>
<path d="M831 3094 c0 -11 3 -14 6 -6 3 7 2 16 -1 19 -3 4 -6 -2 -5 -13z"/>
<path d="M1050 3101 c0 -5 9 -7 20 -4 11 3 20 7 20 9 0 2 -9 4 -20 4 -11 0
-20 -4 -20 -9z"/>
<path d="M1320 3099 c12 -8 12 -9 -5 -7 -11 1 -20 -2 -20 -7 0 -6 11 -9 25 -7
32 4 38 11 20 22 -20 13 -39 12 -20 -1z"/>
<path d="M1608 3103 c-10 -2 -18 -11 -18 -19 0 -8 -8 -14 -19 -14 -10 0 -24
-7 -31 -15 -10 -12 -10 -15 4 -15 9 0 16 5 16 10 0 6 3 9 8 9 23 -4 42 2 37
12 -4 6 2 13 14 16 12 3 21 9 21 14 0 9 -4 10 -32 2z"/>
<path d="M1677 3104 c-10 -10 5 -34 22 -34 13 0 13 2 2 9 -7 5 -10 14 -7 20 7
11 -6 16 -17 5z"/>
<path d="M1853 3099 c14 -8 22 -8 30 0 8 8 3 11 -18 11 -26 -1 -28 -2 -12 -11z"/>
<path d="M2365 3100 c3 -5 12 -7 20 -3 21 7 19 13 -6 13 -11 0 -18 -4 -14 -10z"/>
<path d="M1160 3090 c0 -5 5 -10 10 -10 6 0 10 5 10 10 0 6 -4 10 -10 10 -5 0
-10 -4 -10 -10z"/>
<path d="M1925 3090 c-3 -5 -1 -10 4 -10 6 0 11 5 11 10 0 6 -2 10 -4 10 -3 0
-8 -4 -11 -10z"/>
<path d="M2520 3094 c0 -16 28 -50 35 -42 4 4 -2 17 -14 29 -12 13 -21 18 -21
13z"/>
<path d="M2825 3090 c-3 -5 -1 -10 4 -10 6 0 11 5 11 10 0 6 -2 10 -4 10 -3 0
-8 -4 -11 -10z"/>
<path d="M2981 3084 c0 -11 3 -14 6 -6 3 7 2 16 -1 19 -3 4 -6 -2 -5 -13z"/>
<path d="M370 3075 c0 -8 7 -15 15 -15 9 0 20 -10 25 -22 8 -22 9 -22 9 5 1
21 -4 27 -20 27 -11 0 -17 5 -14 10 3 6 1 10 -4 10 -6 0 -11 -7 -11 -15z"/>
<path d="M960 3086 c0 -2 7 -6 15 -10 8 -3 15 -1 15 4 0 6 -7 10 -15 10 -8 0
-15 -2 -15 -4z"/>
<path d="M1110 3075 c0 -8 7 -15 16 -15 14 0 14 3 4 15 -7 8 -14 15 -16 15 -2
0 -4 -7 -4 -15z"/>
<path d="M1430 3077 c14 -8 27 -12 30 -10 7 6 -23 23 -40 23 -8 0 -4 -6 10
-13z"/>
<path d="M2615 3073 c13 -13 16 -28 12 -66 -2 -28 -1 -43 4 -35 10 15 12 79 3
102 -3 9 -13 16 -21 16 -12 0 -11 -3 2 -17z"/>
<path d="M1020 3070 c0 -5 5 -10 10 -10 6 0 10 5 10 10 0 6 -4 10 -10 10 -5 0
-10 -4 -10 -10z"/>
<path d="M795 3061 c-10 -17 12 -21 25 -6 10 12 10 15 -3 15 -9 0 -18 -4 -22
-9z"/>
<path d="M1645 3060 c3 -5 -3 -10 -14 -10 -12 0 -21 -7 -21 -15 0 -18 2 -18
35 -3 28 12 34 38 9 38 -8 0 -12 -4 -9 -10z"/>
<path d="M2285 3050 c2 -23 45 -60 45 -38 0 8 6 6 18 -5 14 -14 14 -19 4 -26
-18 -11 10 -23 57 -27 30 -1 32 0 15 9 -10 6 -22 12 -26 12 -9 0 -48 46 -48
56 0 5 -11 11 -25 15 -14 3 -25 10 -25 15 0 5 -4 9 -8 9 -5 0 -8 -9 -7 -20z"/>
<path d="M462 3040 c0 -14 2 -19 5 -12 2 6 2 18 0 25 -3 6 -5 1 -5 -13z"/>
<path d="M710 3040 c-10 -19 -10 -20 9 -8 22 13 28 28 11 28 -5 0 -14 -9 -20
-20z"/>
<path d="M873 3050 c-41 -17 -17 -60 33 -60 13 0 14 3 4 15 -7 8 -18 15 -26
15 -7 0 -16 5 -20 12 -5 8 0 9 14 6 15 -4 22 -2 22 8 0 8 -1 14 -2 13 -2 0
-13 -4 -25 -9z"/>
<path d="M920 3056 c0 -9 26 -36 34 -36 3 0 6 8 6 17 0 9 -3 13 -7 10 -3 -4
-12 -2 -20 4 -7 6 -13 8 -13 5z"/>
<path d="M1237 3045 c-4 -8 -2 -17 3 -20 6 -4 10 3 10 14 0 25 -6 27 -13 6z"/>
<path d="M1315 3051 c-3 -5 -1 -12 5 -16 5 -3 10 1 10 9 0 18 -6 21 -15 7z"/>
<path d="M2595 3050 c3 -5 8 -10 11 -10 2 0 4 5 4 10 0 6 -5 10 -11 10 -5 0
-7 -4 -4 -10z"/>
<path d="M2760 3049 c0 -5 5 -7 10 -4 6 3 10 8 10 11 0 2 -4 4 -10 4 -5 0 -10
-5 -10 -11z"/>
<path d="M1086 3041 c-4 -5 -2 -12 3 -15 5 -4 12 -2 15 3 4 5 2 12 -3 15 -5 4
-12 2 -15 -3z"/>
<path d="M1358 3038 c9 -9 15 -9 24 0 9 9 7 12 -12 12 -19 0 -21 -3 -12 -12z"/>
<path d="M1487 3036 c-4 -10 -5 -21 -2 -24 9 -9 17 6 13 25 -3 17 -4 17 -11
-1z"/>
<path d="M776 3032 c-3 -5 1 -9 9 -9 8 0 12 4 9 9 -3 4 -7 8 -9 8 -2 0 -6 -4
-9 -8z"/>
<path d="M1008 3028 c-8 -19 16 -57 28 -45 5 4 3 11 -3 15 -6 4 -12 16 -15 27
-3 17 -5 18 -10 3z"/>
<path d="M1120 3019 c0 -5 5 -7 10 -4 6 3 10 8 10 11 0 2 -4 4 -10 4 -5 0 -10
-5 -10 -11z"/>
<path d="M1170 3020 c0 -5 7 -7 15 -4 8 4 15 8 15 10 0 2 -7 4 -15 4 -8 0 -15
-4 -15 -10z"/>
<path d="M2911 3014 c0 -11 3 -14 6 -6 3 7 2 16 -1 19 -3 4 -6 -2 -5 -13z"/>
<path d="M380 3010 c0 -5 5 -10 10 -10 6 0 10 5 10 10 0 6 -4 10 -10 10 -5 0
-10 -4 -10 -10z"/>
<path d="M1315 3010 c-3 -5 1 -10 9 -10 9 0 16 5 16 10 0 6 -4 10 -9 10 -6 0
-13 -4 -16 -10z"/>
<path d="M1532 2993 c-22 -27 -28 -43 -16 -43 7 0 29 25 45 53 15 27 -5 20
-29 -10z"/>
<path d="M2535 3010 c3 -5 8 -10 11 -10 2 0 4 5 4 10 0 6 -5 10 -11 10 -5 0
-7 -4 -4 -10z"/>
<path d="M2587 3000 c3 -11 9 -20 15 -20 5 0 4 9 -2 20 -6 11 -12 20 -14 20
-2 0 -2 -9 1 -20z"/>
<path d="M315 3000 c3 -5 8 -10 11 -10 2 0 4 5 4 10 0 6 -5 10 -11 10 -5 0 -7
-4 -4 -10z"/>
<path d="M340 2996 c0 -8 4 -17 9 -21 6 -3 9 4 8 15 -1 23 -17 28 -17 6z"/>
<path d="M2941 3000 c0 -8 4 -24 9 -35 5 -13 9 -14 9 -5 0 8 -4 24 -9 35 -5
13 -9 14 -9 5z"/>
<path d="M935 2990 c3 -5 10 -10 16 -10 5 0 9 5 9 10 0 6 -7 10 -16 10 -8 0
-12 -4 -9 -10z"/>
<path d="M2652 2979 c-8 -13 -9 -25 -3 -36 5 -9 5 -29 1 -44 -8 -26 -1 -72 15
-112 5 -12 3 -17 -5 -15 -7 2 -15 -4 -17 -12 -4 -13 -3 -13 6 0 9 13 11 12 11
-5 0 -17 2 -18 11 -5 8 12 9 9 5 -12 -5 -21 -3 -28 9 -28 11 0 14 7 10 28 -3
15 -2 20 1 12 4 -8 12 -19 18 -23 8 -6 7 -10 -1 -14 -7 -2 -13 -11 -13 -18 0
-16 32 -13 38 3 4 13 -46 102 -57 102 -4 0 -9 44 -10 97 -1 53 -3 98 -4 100
-2 1 -8 -7 -15 -18z"/>
<path d="M281 2974 c0 -11 3 -14 6 -6 3 7 2 16 -1 19 -3 4 -6 -2 -5 -13z"/>
<path d="M814 2971 c-10 -11 -23 -21 -29 -21 -6 0 -20 -7 -31 -16 -18 -15 -18
-15 8 -10 16 4 28 1 31 -7 3 -7 6 -4 6 6 1 10 6 15 11 12 6 -3 10 4 10 17 0
17 3 19 9 9 6 -10 10 -10 16 -1 14 23 -12 33 -31 11z"/>
<path d="M376 2954 c-9 -24 -4 -25 23 -3 22 18 22 19 3 19 -11 0 -23 -7 -26
-16z"/>
<path d="M2390 2935 c0 -2 10 -13 21 -24 12 -11 23 -30 24 -43 1 -13 3 -27 4
-31 0 -4 10 -3 20 3 28 15 33 13 19 -9 -7 -11 -16 -17 -20 -15 -4 3 -8 0 -8
-5 0 -6 7 -11 15 -11 8 0 15 -7 15 -15 0 -8 4 -15 9 -15 5 0 8 19 6 43 -3 34
-7 42 -23 40 -17 -2 -18 2 -12 44 6 38 5 44 -5 30 -11 -15 -14 -16 -25 -2 -11
14 -40 21 -40 10z"/>
<path d="M2610 2926 c0 -9 5 -16 10 -16 6 0 10 4 10 9 0 6 -4 13 -10 16 -5 3
-10 -1 -10 -9z"/>
<path d="M751 2903 c-1 -6 -4 -20 -7 -30 -5 -17 -5 -17 6 0 6 10 9 23 6 30 -3
9 -5 9 -5 0z"/>
<path d="M340 2889 c0 -5 5 -7 10 -4 6 3 10 8 10 11 0 2 -4 4 -10 4 -5 0 -10
-5 -10 -11z"/>
<path d="M694 2866 c-4 -9 -4 -20 0 -23 3 -3 -4 -14 -16 -24 -11 -11 -16 -19
-10 -19 6 0 13 -8 15 -17 3 -11 5 -6 6 11 1 22 4 26 14 18 9 -8 12 -2 12 23 0
38 -12 56 -21 31z"/>
<path d="M2510 2869 c0 -5 5 -7 10 -4 6 3 10 8 10 11 0 2 -4 4 -10 4 -5 0 -10
-5 -10 -11z"/>
<path d="M265 2860 c3 -5 8 -10 11 -10 2 0 4 5 4 10 0 6 -5 10 -11 10 -5 0 -7
-4 -4 -10z"/>
<path d="M2600 2851 c0 -5 5 -13 10 -16 6 -3 10 -2 10 4 0 5 -4 13 -10 16 -5
3 -10 2 -10 -4z"/>
<path d="M770 2826 c0 -31 6 -34 13 -6 3 11 1 23 -4 26 -5 3 -9 -6 -9 -20z"/>
<path d="M355 2830 c-3 -5 -2 -10 4 -10 5 0 13 5 16 10 3 6 2 10 -4 10 -5 0
-13 -4 -16 -10z"/>
<path d="M2510 2792 c0 -18 -4 -32 -10 -32 -5 0 -10 -5 -10 -11 0 -5 5 -7 11
-3 8 5 9 -6 4 -37 -6 -41 -5 -42 7 -19 8 14 13 46 11 74 -3 55 -13 76 -13 28z"/>
<path d="M643 2773 c-7 -2 -13 -13 -13 -24 0 -18 1 -18 20 1 28 28 25 37 -7
23z"/>
<path d="M730 2759 c0 -5 5 -7 10 -4 6 3 10 8 10 11 0 2 -4 4 -10 4 -5 0 -10
-5 -10 -11z"/>
<path d="M681 2744 c0 -11 3 -14 6 -6 3 7 2 16 -1 19 -3 4 -6 -2 -5 -13z"/>
<path d="M1520 2750 c0 -5 7 -10 15 -10 8 0 15 5 15 10 0 6 -7 10 -15 10 -8 0
-15 -4 -15 -10z"/>
<path d="M2581 2744 c0 -11 3 -14 6 -6 3 7 2 16 -1 19 -3 4 -6 -2 -5 -13z"/>
<path d="M1480 2746 c0 -2 7 -7 16 -10 8 -3 12 -2 9 4 -6 10 -25 14 -25 6z"/>
<path d="M651 2733 c0 -6 -10 -15 -22 -18 -12 -4 -18 -13 -15 -20 3 -8 1 -27
-4 -44 -5 -19 -5 -31 2 -33 8 -3 7 -11 -1 -26 -6 -12 -9 -33 -5 -47 4 -15 2
-25 -5 -25 -6 0 -11 -8 -11 -17 0 -16 2 -16 11 -3 8 11 9 4 6 -27 -3 -24 -1
-46 5 -49 5 -3 7 -12 4 -20 -3 -8 0 -14 8 -14 9 0 11 13 9 48 -6 74 -4 118 7
147 13 34 13 35 -3 35 -9 0 -12 10 -9 30 4 26 7 29 20 18 13 -11 14 -10 4 9
-9 15 -9 22 -1 25 6 2 9 13 6 23 -2 11 -5 15 -6 8z"/>
<path d="M707 2733 c-10 -9 -9 -23 1 -23 5 0 9 7 9 15 0 17 -1 18 -10 8z"/>
<path d="M1243 2730 c4 -18 47 -27 47 -10 0 7 -7 9 -17 6 -9 -4 -20 -1 -25 6
-7 10 -9 9 -5 -2z"/>
<path d="M1370 2730 c0 -5 5 -10 10 -10 6 0 10 5 10 10 0 6 -4 10 -10 10 -5 0
-10 -4 -10 -10z"/>
<path d="M2541 2712 c-1 -22 -5 -31 -12 -26 -8 5 -10 -1 -7 -19 3 -15 0 -28
-6 -31 -7 -3 -5 -9 6 -16 13 -8 15 -16 7 -43 -14 -48 -9 -66 7 -28 14 32 14
77 -1 101 -4 6 0 19 9 29 12 14 14 24 7 42 -9 23 -10 22 -10 -9z"/>
<path d="M2310 2720 c0 -5 5 -10 10 -10 6 0 10 5 10 10 0 6 -4 10 -10 10 -5 0
-10 -4 -10 -10z"/>
<path d="M595 2680 c3 -5 8 -10 11 -10 2 0 4 5 4 10 0 6 -5 10 -11 10 -5 0 -7
-4 -4 -10z"/>
<path d="M2662 2670 c0 -14 2 -19 5 -12 2 6 2 18 0 25 -3 6 -5 1 -5 -13z"/>
<path d="M2948 2653 c7 -3 16 -2 19 1 4 3 -2 6 -13 5 -11 0 -14 -3 -6 -6z"/>
<path d="M510 2636 c0 -8 -3 -23 -7 -33 -6 -16 -5 -16 10 -4 18 15 23 51 7 51
-5 0 -10 -6 -10 -14z"/>
<path d="M565 2640 c3 -5 10 -10 16 -10 5 0 9 5 9 10 0 6 -7 10 -16 10 -8 0
-12 -4 -9 -10z"/>
<path d="M2561 2634 c0 -11 3 -14 6 -6 3 7 2 16 -1 19 -3 4 -6 -2 -5 -13z"/>
<path d="M2698 2612 c22 -20 30 -34 26 -46 -4 -11 -2 -15 8 -11 11 5 14 -1 10
-25 -3 -22 -1 -30 9 -28 23 5 28 21 11 35 -11 8 -12 12 -4 13 6 0 12 5 12 12
0 6 -3 8 -7 5 -4 -4 -12 6 -19 23 -7 17 -17 29 -21 28 -4 -1 -19 3 -33 10 -20
11 -19 8 8 -16z"/>
<path d="M2780 2621 c0 -5 7 -11 15 -15 9 -3 15 0 15 9 0 8 -7 15 -15 15 -8 0
-15 -4 -15 -9z"/>
<path d="M2955 2611 c-3 -5 -1 -12 5 -16 5 -3 10 1 10 9 0 18 -6 21 -15 7z"/>
<path d="M150 2580 c0 -5 5 -10 10 -10 6 0 10 5 10 10 0 6 -4 10 -10 10 -5 0
-10 -4 -10 -10z"/>
<path d="M1680 2580 c-13 -8 -12 -10 3 -10 9 0 17 5 17 10 0 12 -1 12 -20 0z"/>
<path d="M1850 2586 c0 -2 7 -9 15 -16 9 -7 15 -8 15 -2 0 5 -7 12 -15 16 -8
3 -15 4 -15 2z"/>
<path d="M1905 2580 c-3 -5 -1 -10 4 -10 6 0 11 5 11 10 0 6 -2 10 -4 10 -3 0
-8 -4 -11 -10z"/>
<path d="M500 2560 c0 -11 4 -20 9 -20 5 0 7 9 4 20 -3 11 -7 20 -9 20 -2 0
-4 -9 -4 -20z"/>
<path d="M1576 2572 c-3 -6 -15 -8 -25 -5 -10 3 -32 -3 -47 -12 -29 -16 -28
-16 34 -11 54 5 120 25 85 26 -6 0 -18 3 -26 6 -8 3 -18 1 -21 -4z"/>
<path d="M2572 2555 c0 -16 2 -22 5 -12 2 9 2 23 0 30 -3 6 -5 -1 -5 -18z"/>
<path d="M2595 2570 c-3 -6 1 -7 9 -4 18 7 21 14 7 14 -6 0 -13 -4 -16 -10z"/>
<path d="M2671 2570 c0 -8 4 -24 9 -35 9 -20 9 -20 9 0 0 11 -4 27 -9 35 -9
13 -10 13 -9 0z"/>
<path d="M1420 2550 c0 -5 4 -10 9 -10 6 0 13 5 16 10 3 6 -1 10 -9 10 -9 0
-16 -4 -16 -10z"/>
<path d="M2275 2549 c-4 -6 -5 -12 -2 -15 2 -3 7 2 10 11 7 17 1 20 -8 4z"/>
<path d="M265 2540 c3 -5 10 -10 16 -10 5 0 9 5 9 10 0 6 -7 10 -16 10 -8 0
-12 -4 -9 -10z"/>
<path d="M2301 2533 c0 -5 4 -17 9 -28 8 -18 9 -17 9 8 1 15 -3 27 -9 27 -5 0
-10 -3 -9 -7z"/>
<path d="M260 2511 c0 -7 -4 -9 -10 -6 -5 3 -10 -2 -10 -12 0 -16 1 -16 17 0
9 9 14 20 10 23 -4 4 -7 2 -7 -5z"/>
<path d="M2540 2496 c0 -9 5 -16 10 -16 6 0 10 4 10 9 0 6 -4 13 -10 16 -5 3
-10 -1 -10 -9z"/>
<path d="M2721 2484 c0 -11 3 -14 6 -6 3 7 2 16 -1 19 -3 4 -6 -2 -5 -13z"/>
<path d="M2486 2482 c-2 -4 -1 -14 5 -22 7 -12 9 -10 9 8 0 23 -5 28 -14 14z"/>
<path d="M320 2465 c0 -8 2 -15 4 -15 2 0 6 7 10 15 3 8 1 15 -4 15 -6 0 -10
-7 -10 -15z"/>
<path d="M2741 2464 c0 -11 3 -14 6 -6 3 7 2 16 -1 19 -3 4 -6 -2 -5 -13z"/>
<path d="M2800 2461 c0 -11 4 -22 9 -25 4 -3 6 6 3 19 -5 30 -12 33 -12 6z"/>
<path d="M2381 2454 c0 -11 3 -14 6 -6 3 7 2 16 -1 19 -3 4 -6 -2 -5 -13z"/>
<path d="M2516 2442 c-10 -19 -15 -36 -12 -40 3 -3 6 0 6 6 0 6 8 12 18 14 14
2 17 9 12 28 l-6 25 -18 -33z"/>
<path d="M2560 2459 c0 -5 5 -7 10 -4 6 3 10 8 10 11 0 2 -4 4 -10 4 -5 0 -10
-5 -10 -11z"/>
<path d="M2772 2440 c-2 -49 8 -82 24 -76 7 3 14 -4 17 -17 3 -16 5 -14 6 9 0
19 -6 38 -18 48 -11 10 -22 30 -24 45 -3 21 -4 19 -5 -9z"/>
<path d="M240 2444 c0 -8 5 -12 10 -9 6 3 10 10 10 16 0 5 -4 9 -10 9 -5 0
-10 -7 -10 -16z"/>
<path d="M2561 2424 c0 -11 3 -14 6 -6 3 7 2 16 -1 19 -3 4 -6 -2 -5 -13z"/>
<path d="M2742 2420 c0 -14 2 -19 5 -12 2 6 2 18 0 25 -3 6 -5 1 -5 -13z"/>
<path d="M747 2379 c4 -13 8 -18 11 -10 2 7 -1 18 -6 23 -8 8 -9 4 -5 -13z"/>
<path d="M2507 2383 c-3 -5 -4 -18 -3 -31 2 -33 20 -27 22 8 2 28 -9 40 -19
23z"/>
<path d="M600 2371 c0 -5 4 -11 10 -13 5 -1 10 -25 11 -53 1 -27 6 -56 12 -62
5 -7 6 -21 2 -30 -4 -10 -9 -61 -10 -113 -2 -52 -6 -103 -10 -112 -4 -10 -3
-18 2 -18 6 0 7 -22 2 -56 -4 -31 -4 -78 0 -105 7 -41 5 -51 -8 -59 -9 -5 -11
-10 -5 -10 7 0 11 -8 10 -17 0 -10 5 -17 12 -15 6 1 12 -5 12 -15 0 -9 -3 -13
-6 -10 -4 4 -15 -3 -26 -15 -10 -12 -15 -24 -11 -27 5 -3 8 -36 9 -74 1 -68 9
-92 23 -68 5 8 10 -2 15 -28 3 -23 10 -41 15 -41 15 0 29 -54 27 -105 -1 -26
0 -42 2 -35 3 8 10 1 18 -16 l12 -29 1 33 c1 43 0 47 -9 45 -5 -1 -8 12 -8 30
1 56 -12 151 -22 161 -13 13 -13 39 0 31 6 -3 10 3 10 14 0 15 -5 19 -16 14
-16 -6 -16 -31 2 -90 4 -14 2 -23 -5 -23 -6 0 -11 10 -11 23 0 13 -8 32 -18
43 -23 25 -33 63 -22 89 7 18 8 19 15 3 4 -10 5 -25 1 -33 -3 -8 -1 -15 4 -15
6 0 10 8 11 18 0 9 3 43 5 75 2 31 0 57 -5 57 -5 0 -12 7 -15 16 -3 8 -2 13 3
10 4 -3 7 41 6 97 -1 56 1 107 5 112 10 13 0 115 -11 115 -5 0 -9 5 -9 11 0 8
4 8 14 0 11 -9 16 -9 21 0 4 6 1 15 -6 20 -11 6 -11 11 -2 20 9 9 8 19 -3 42
-12 22 -13 31 -4 37 8 5 9 16 5 31 -4 12 -7 42 -7 66 1 47 -14 83 -35 83 -7 0
-13 -4 -13 -9z m26 -728 c-10 -10 -19 5 -10 18 6 11 8 11 12 0 2 -7 1 -15 -2
-18z"/>
<path d="M2372 2345 c0 -16 2 -22 5 -12 2 9 2 23 0 30 -3 6 -5 -1 -5 -18z"/>
<path d="M2860 2354 c0 -8 5 -12 10 -9 6 3 10 10 10 16 0 5 -4 9 -10 9 -5 0
-10 -7 -10 -16z"/>
<path d="M2740 2350 c0 -5 5 -10 11 -10 5 0 7 5 4 10 -3 6 -8 10 -11 10 -2 0
-4 -4 -4 -10z"/>
<path d="M2785 2340 c-3 -5 -1 -10 4 -10 6 0 11 5 11 10 0 6 -2 10 -4 10 -3 0
-8 -4 -11 -10z"/>
<path d="M2945 2337 c-4 -10 -5 -21 -1 -24 10 -10 18 4 13 24 -4 17 -4 17 -12
0z"/>
<path d="M258 2335 c-8 -9 3 -45 13 -45 5 0 9 6 9 13 0 17 -15 39 -22 32z"/>
<path d="M2291 2324 c0 -11 3 -14 6 -6 3 7 2 16 -1 19 -3 4 -6 -2 -5 -13z"/>
<path d="M2470 2330 c0 -5 5 -10 11 -10 5 0 7 5 4 10 -3 6 -8 10 -11 10 -2 0
-4 -4 -4 -10z"/>
<path d="M500 2309 c0 -11 4 -18 10 -14 5 3 7 12 3 20 -7 21 -13 19 -13 -6z"/>
<path d="M762 2318 c-16 -16 -15 -28 2 -28 9 0 14 9 13 20 -1 11 -2 20 -2 20
-1 0 -6 -5 -13 -12z"/>
<path d="M1848 2323 c7 -3 16 -2 19 1 4 3 -2 6 -13 5 -11 0 -14 -3 -6 -6z"/>
<path d="M1803 2313 c-30 -6 -33 -53 -3 -53 13 0 18 5 14 15 -4 9 0 15 9 15 8
0 20 -7 27 -15 16 -19 31 -20 24 -1 -3 8 3 16 15 19 12 3 21 10 21 16 0 16
-16 14 -34 -5 -15 -14 -17 -14 -32 0 -8 9 -16 15 -17 15 -1 -1 -12 -4 -24 -6z"/>
<path d="M2020 2309 c0 -5 5 -7 10 -4 6 3 10 8 10 11 0 2 -4 4 -10 4 -5 0 -10
-5 -10 -11z"/>
<path d="M2762 2294 c-1 -15 3 -24 9 -22 6 2 10 7 10 11 -1 4 -1 14 -1 22 0
26 -16 16 -18 -11z"/>
<path d="M1352 2290 c0 -14 2 -19 5 -12 2 6 2 18 0 25 -3 6 -5 1 -5 -13z"/>
<path d="M2044 2296 c-3 -9 -12 -16 -20 -16 -8 0 -14 -7 -14 -15 0 -18 14 -19
32 -2 20 20 47 28 66 18 24 -13 105 -31 141 -31 37 0 50 -17 20 -28 -19 -7
-20 -10 -6 -15 9 -3 19 -2 22 4 4 5 10 7 14 4 5 -2 6 7 3 20 -6 32 -17 38 -59
37 -18 -1 -46 3 -61 9 -15 6 -36 13 -47 15 -11 2 -35 7 -52 10 -25 5 -34 2
-39 -10z"/>
<path d="M2450 2295 c0 -8 2 -15 4 -15 2 0 6 7 10 15 3 8 1 15 -4 15 -6 0 -10
-7 -10 -15z"/>
<path d="M2509 2310 c0 -3 -2 -16 -3 -30 -2 -14 -7 -33 -11 -44 -7 -16 -6 -17
13 -7 23 12 29 45 12 71 -5 8 -10 13 -11 10z"/>
<path d="M1925 2292 c-30 -6 -41 -20 -21 -28 10 -4 21 -3 25 2 3 5 12 9 19 10
6 1 22 2 34 3 12 0 18 4 14 9 -8 8 -40 10 -71 4z"/>
<path d="M2188 2293 c7 -3 16 -2 19 1 4 3 -2 6 -13 5 -11 0 -14 -3 -6 -6z"/>
<path d="M1462 2255 c0 -16 2 -22 5 -12 2 9 2 23 0 30 -3 6 -5 -1 -5 -18z"/>
<path d="M2310 2271 c0 -6 5 -13 10 -16 6 -3 10 1 10 9 0 9 -4 16 -10 16 -5 0
-10 -4 -10 -9z"/>
<path d="M1278 2250 c25 -24 29 -45 7 -36 -8 3 -15 1 -15 -3 0 -5 7 -12 16
-15 22 -9 26 -8 18 6 -5 8 0 9 14 6 12 -4 22 -4 22 -1 0 9 -62 63 -73 63 -6 0
-1 -9 11 -20z"/>
<path d="M1720 2260 c0 -5 7 -7 15 -4 8 4 15 1 15 -5 0 -6 11 -16 25 -21 14
-5 25 -14 25 -20 0 -5 4 -10 9 -10 5 0 4 11 -2 24 -7 13 -15 22 -18 20 -4 -2
-12 3 -19 11 -14 17 -50 20 -50 5z"/>
<path d="M1095 2250 c-2 -4 -15 -5 -28 -3 -14 3 -43 -6 -72 -22 -36 -21 -53
-25 -65 -17 -14 8 -16 6 -12 -19 4 -29 28 -37 44 -15 4 6 16 6 31 -1 22 -10
24 -10 20 8 -3 12 -11 18 -19 15 -28 -11 -13 9 16 22 46 21 99 22 110 3 6 -11
9 -12 10 -3 0 9 11 13 33 12 54 -3 67 -1 67 14 0 10 -8 12 -32 7 -18 -4 -48
-4 -66 0 -17 4 -34 3 -37 -1z"/>
<path d="M1345 2249 c-4 -6 -5 -12 -2 -15 2 -3 7 2 10 11 7 17 1 20 -8 4z"/>
<path d="M1818 2238 c13 -13 72 -20 72 -9 0 15 -14 21 -26 10 -8 -7 -14 -7
-19 1 -3 5 -14 10 -23 10 -12 0 -13 -3 -4 -12z"/>
<path d="M2060 2234 c0 -6 10 -9 24 -7 13 3 27 0 30 -6 9 -14 36 -2 36 16 0
13 -3 13 -16 2 -10 -8 -18 -9 -22 -3 -10 14 -52 12 -52 -2z"/>
<path d="M2438 2220 c-2 -16 -1 -27 3 -25 11 7 18 44 9 50 -4 3 -10 -8 -12
-25z"/>
<path d="M2762 2216 c2 -40 14 -42 36 -5 12 21 12 22 -1 7 -19 -24 -30 -23
-22 1 3 11 1 22 -5 26 -7 4 -10 -6 -8 -29z"/>
<path d="M348 2233 c7 -3 16 -2 19 1 4 3 -2 6 -13 5 -11 0 -14 -3 -6 -6z"/>
<path d="M935 2230 c-3 -5 -1 -10 4 -10 6 0 11 5 11 10 0 6 -2 10 -4 10 -3 0
-8 -4 -11 -10z"/>
<path d="M1365 2231 c-4 -8 -2 -17 6 -22 12 -7 11 -9 -1 -9 -10 0 -11 -3 -4
-8 6 -4 14 -14 17 -22 3 -9 5 -5 6 10 0 38 -14 67 -24 51z"/>
<path d="M1630 2212 c-20 -21 -25 -38 -25 -77 0 -27 5 -51 10 -52 6 -2 10 22
10 55 1 53 2 57 23 54 12 -2 22 2 22 7 0 6 -4 11 -10 11 -5 0 -7 7 -4 15 8 21
3 18 -26 -13z"/>
<path d="M1725 2230 c3 -5 -5 -15 -19 -22 -16 -7 -26 -19 -26 -32 1 -21 1 -21
15 -2 8 11 15 16 15 11 0 -4 9 0 20 10 24 22 25 31 4 39 -8 3 -12 2 -9 -4z"/>
<path d="M1920 2230 c-18 -12 -2 -12 25 0 13 6 15 9 5 9 -8 0 -22 -4 -30 -9z"/>
<path d="M2330 2223 c0 -9 -17 -32 -37 -51 -21 -19 -30 -32 -20 -28 10 3 23 6
28 6 5 0 9 6 9 14 0 8 7 17 16 20 8 3 13 2 10 -2 -2 -4 7 -12 20 -19 28 -13
29 -8 9 41 -16 37 -35 48 -35 19z"/>
<path d="M305 2220 c3 -5 8 -10 11 -10 2 0 4 5 4 10 0 6 -5 10 -11 10 -5 0 -7
-4 -4 -10z"/>
<path d="M745 2220 c3 -5 8 -10 11 -10 2 0 4 5 4 10 0 6 -5 10 -11 10 -5 0 -7
-4 -4 -10z"/>
<path d="M1226 2214 c-9 -8 -16 -22 -16 -29 0 -9 9 -5 25 11 14 14 25 27 25
29 0 10 -19 4 -34 -11z"/>
<path d="M830 2191 c-16 -16 -32 -26 -35 -23 -3 3 -5 1 -5 -5 0 -6 -9 -13 -20
-16 -11 -3 -18 -1 -14 4 6 11 -4 11 -31 -1 -18 -7 -19 -8 -2 -15 9 -4 17 -17
17 -29 0 -23 20 -61 20 -38 0 7 5 10 10 7 6 -3 10 -1 10 5 0 7 -6 10 -14 7 -9
-4 -13 2 -13 19 0 13 3 21 8 18 5 -3 23 4 39 16 30 21 30 21 30 1 0 -11 -7
-27 -16 -36 -12 -11 -13 -20 -6 -27 17 -17 41 40 32 77 -8 32 1 44 28 41 15
-2 19 -1 9 1 -9 2 -15 9 -12 14 12 19 -8 8 -35 -20z"/>
<path d="M2065 2206 c-11 -8 -14 -15 -8 -19 6 -4 16 0 23 8 17 21 8 28 -15 11z"/>
<path d="M2500 2196 c-5 -13 -5 -37 -1 -53 5 -16 3 -35 -3 -45 -8 -14 -7 -22
7 -35 16 -17 17 -14 13 55 -2 41 0 70 5 66 5 -3 9 4 9 15 0 29 -18 26 -30 -3z"/>
<path d="M1025 2200 c-3 -5 1 -10 9 -10 9 0 16 5 16 10 0 6 -4 10 -9 10 -6 0
-13 -4 -16 -10z"/>
<path d="M2003 2189 c-1 -11 5 -19 13 -19 18 0 19 26 1 33 -8 3 -14 -3 -14
-14z"/>
<path d="M1903 2185 c11 -7 25 -11 33 -8 8 3 14 0 14 -6 0 -17 27 -13 34 5 4
12 2 15 -9 11 -8 -4 -17 -3 -19 2 -3 4 -20 8 -38 9 -30 1 -31 -1 -15 -13z"/>
<path d="M2123 2193 c-19 -7 -16 -19 6 -19 11 0 17 5 14 13 -3 7 -6 13 -7 12
0 0 -7 -3 -13 -6z"/>
<path d="M2250 2191 c0 -8 -7 -11 -15 -7 -13 5 -14 2 -4 -16 l12 -22 9 23 c5
13 6 26 3 29 -3 3 -5 0 -5 -7z"/>
<path d="M440 2180 c-8 -5 -12 -12 -9 -15 4 -3 12 1 19 10 14 17 11 19 -10 5z"/>
<path d="M1252 2172 c1 -9 -2 -27 -6 -39 -10 -32 6 -28 22 4 15 34 15 40 -2
46 -9 4 -14 0 -14 -11z"/>
<path d="M1850 2180 c0 -5 9 -14 19 -20 25 -13 31 -13 31 0 0 6 -7 10 -15 10
-8 0 -15 5 -15 10 0 6 -4 10 -10 10 -5 0 -10 -4 -10 -10z"/>
<path d="M2091 2174 c0 -11 3 -14 6 -6 3 7 2 16 -1 19 -3 4 -6 -2 -5 -13z"/>
<path d="M1232 2160 c0 -14 2 -19 5 -12 2 6 2 18 0 25 -3 6 -5 1 -5 -13z"/>
<path d="M855 2160 c3 -5 8 -10 11 -10 2 0 4 5 4 10 0 6 -5 10 -11 10 -5 0 -7
-4 -4 -10z"/>
<path d="M890 2160 c0 -5 5 -10 10 -10 6 0 10 5 10 10 0 6 -4 10 -10 10 -5 0
-10 -4 -10 -10z"/>
<path d="M1140 2140 c-16 -16 -28 -19 -55 -14 -19 3 -35 10 -35 15 0 5 -9 9
-20 9 -13 0 -20 -7 -20 -20 0 -11 -7 -20 -15 -20 -8 0 -15 -4 -15 -10 0 -5 9
-10 20 -10 15 0 20 7 20 27 0 14 3 23 8 19 4 -4 7 -13 7 -19 0 -17 74 -17 108
0 15 7 27 20 27 28 0 20 -6 19 -30 -5z"/>
<path d="M1180 2135 c0 -8 5 -15 10 -15 6 0 10 7 10 15 0 8 -4 15 -10 15 -5 0
-10 -7 -10 -15z"/>
<path d="M2347 2127 c-11 -29 -9 -53 4 -40 6 6 9 21 7 34 -3 21 -4 22 -11 6z"/>
<path d="M2392 2086 c1 -38 4 -52 9 -40 11 27 10 66 -1 84 -6 10 -9 -3 -8 -44z"/>
<path d="M2765 2129 c-4 -6 -5 -12 -2 -15 2 -3 7 2 10 11 7 17 1 20 -8 4z"/>
<path d="M948 2122 c-10 -2 -18 -8 -18 -13 0 -13 27 -11 35 2 9 13 4 16 -17
11z"/>
<path d="M2021 2122 c-1 -10 -12 -13 -40 -9 -22 2 -45 1 -52 -4 -8 -4 -20 -3
-28 4 -12 10 -14 9 -8 -5 7 -19 -7 -25 -18 -8 -3 6 -16 -1 -29 -15 -13 -14
-33 -25 -45 -25 -12 0 -21 -6 -21 -15 0 -20 8 -19 69 11 53 27 141 44 141 28
0 -5 21 -10 48 -11 55 -2 124 -29 170 -67 17 -16 32 -23 32 -18 0 6 3 19 6 29
5 14 4 15 -4 4 -9 -12 -13 -12 -26 2 -9 8 -16 20 -16 26 0 6 -7 11 -15 11 -9
0 -35 9 -57 20 -23 11 -54 20 -69 20 -18 0 -29 6 -32 18 -3 9 -5 11 -6 4z"/>
<path d="M854 2095 c0 -14 5 -24 9 -22 5 1 8 6 8 10 -1 4 -1 14 -1 22 0 8 -4
15 -9 15 -5 0 -8 -11 -7 -25z"/>
<path d="M1701 2104 c0 -11 3 -14 6 -6 3 7 2 16 -1 19 -3 4 -6 -2 -5 -13z"/>
<path d="M893 2103 c9 -2 17 -12 17 -21 0 -12 3 -13 11 -5 16 16 2 33 -24 32
-17 -1 -18 -2 -4 -6z"/>
<path d="M1385 2100 c3 -5 12 -7 20 -3 21 7 19 13 -6 13 -11 0 -18 -4 -14 -10z"/>
<path d="M2787 2104 c-8 -8 1 -24 14 -24 5 0 9 7 9 15 0 15 -12 20 -23 9z"/>
<path d="M2837 2093 c-4 -3 2 -13 14 -21 26 -18 35 -10 11 11 -10 10 -22 14
-25 10z"/>
<path d="M2887 2087 c3 -5 11 -6 19 -3 8 3 14 1 14 -4 0 -6 -5 -10 -12 -10 -6
0 -9 -2 -6 -5 8 -8 36 5 41 18 3 8 -7 12 -28 12 -18 0 -31 -4 -28 -8z"/>
<path d="M1302 2079 c2 -7 10 -15 17 -17 8 -3 12 1 9 9 -2 7 -10 15 -17 17 -8
3 -12 -1 -9 -9z"/>
<path d="M280 2064 c0 -8 5 -12 10 -9 6 4 8 11 5 16 -9 14 -15 11 -15 -7z"/>
<path d="M1376 2071 c-4 -5 -2 -12 3 -15 5 -4 12 -2 15 3 4 5 2 12 -3 15 -5 4
-12 2 -15 -3z"/>
<path d="M1417 2074 c-4 -4 -7 -14 -7 -23 0 -11 3 -12 11 -4 6 6 10 16 7 23
-2 6 -7 8 -11 4z"/>
<path d="M1472 2060 c0 -14 2 -19 5 -12 2 6 2 18 0 25 -3 6 -5 1 -5 -13z"/>
<path d="M725 2061 c-3 -5 -1 -12 5 -16 5 -3 10 1 10 9 0 18 -6 21 -15 7z"/>
<path d="M1338 2052 c-4 -12 1 -18 13 -19 22 -2 25 10 5 26 -11 9 -15 7 -18
-7z"/>
<path d="M1590 2045 c0 -14 4 -25 9 -25 4 0 6 11 3 25 -2 14 -6 25 -8 25 -2 0
-4 -11 -4 -25z"/>
<path d="M2335 2061 c-3 -6 0 -11 9 -11 8 0 17 -6 20 -12 3 -7 5 -4 3 6 -2 22
-22 32 -32 17z"/>
<path d="M798 2053 c7 -3 16 -2 19 1 4 3 -2 6 -13 5 -11 0 -14 -3 -6 -6z"/>
<path d="M1008 2044 c-21 -7 -38 -10 -38 -6 0 4 -4 2 -8 -3 -4 -6 -30 -21 -58
-33 -62 -29 -82 -56 -58 -79 16 -16 16 -16 10 3 -5 15 3 25 37 45 63 38 156
69 208 69 60 0 106 -14 162 -50 55 -35 57 -35 57 -15 0 8 -4 14 -8 13 -4 -2
-20 10 -35 26 -15 16 -27 23 -27 16 0 -9 -8 -5 -21 8 -18 20 -29 22 -102 21
-45 -1 -99 -8 -119 -15z"/>
<path d="M2485 2011 c2 -25 7 -54 10 -63 4 -11 3 -18 -4 -18 -6 0 -11 -5 -11
-12 0 -31 28 21 33 63 5 36 3 48 -12 61 -18 15 -19 14 -16 -31z"/>
<path d="M176 2035 c-3 -8 -1 -15 4 -15 6 0 10 7 10 15 0 8 -2 15 -4 15 -2 0
-6 -7 -10 -15z"/>
<path d="M232 2029 c-12 -18 -11 -20 5 -17 10 2 19 11 21 21 5 23 -10 21 -26
-4z"/>
<path d="M697 2029 c3 -10 12 -19 20 -19 8 0 13 -6 10 -13 -6 -17 19 -52 28
-38 3 6 1 11 -6 11 -8 0 -9 11 -5 33 4 22 3 27 -3 17 -9 -12 -11 -12 -16 2
-10 25 -34 31 -28 7z"/>
<path d="M2800 2034 c0 -8 5 -12 10 -9 6 4 8 11 5 16 -9 14 -15 11 -15 -7z"/>
<path d="M1638 2023 c7 -3 16 -2 19 1 4 3 -2 6 -13 5 -11 0 -14 -3 -6 -6z"/>
<path d="M1739 2006 c-9 -11 -20 -32 -24 -45 -7 -22 -5 -22 34 9 23 18 41 35
41 36 0 2 -8 7 -17 13 -14 7 -22 4 -34 -13z"/>
<path d="M1935 2024 c-59 -15 -185 -85 -185 -104 0 -10 95 -8 106 3 4 4 0 7
-9 7 -31 0 -18 26 21 43 53 23 59 22 54 -12 -5 -38 27 -61 88 -61 53 0 70 13
70 52 0 24 -2 27 -14 16 -8 -7 -12 -15 -10 -17 10 -11 -19 -28 -41 -23 -30 5
-33 22 -5 22 12 0 20 7 20 16 0 13 -7 15 -41 9 -36 -6 -40 -5 -37 11 4 25 45
30 68 9 10 -9 27 -15 37 -13 27 7 76 -20 69 -38 -4 -12 -1 -14 14 -9 10 3 28
2 38 -4 34 -18 72 -21 72 -5 0 8 -7 14 -15 14 -7 0 -18 6 -22 13 -4 6 -28 19
-53 28 -25 9 -44 22 -42 28 1 6 -9 11 -22 11 -12 0 -50 2 -82 4 -32 3 -68 3
-79 0z m34 -77 c8 -10 7 -14 -4 -14 -8 0 -15 6 -15 14 0 7 2 13 4 13 2 0 9 -6
15 -13z"/>
<path d="M2830 2021 c0 -5 7 -14 15 -21 12 -10 15 -10 15 3 0 8 -7 17 -15 21
-8 3 -15 2 -15 -3z"/>
<path d="M2920 2020 c-13 -8 -13 -10 2 -10 9 0 20 5 23 10 8 13 -5 13 -25 0z"/>
<path d="M415 2009 c-4 -6 -5 -12 -2 -15 2 -3 7 2 10 11 7 17 1 20 -8 4z"/>
<path d="M1059 2011 c-45 -9 -145 -57 -170 -82 -24 -24 -25 -51 -1 -47 11 2
16 -3 14 -14 -2 -10 1 -18 7 -18 5 0 8 16 6 35 -3 33 -1 35 26 35 21 0 27 4
23 15 -4 10 0 15 13 15 10 0 24 5 31 12 16 16 15 3 -3 -31 -14 -27 -13 -29 8
-35 39 -10 114 -6 124 7 15 19 24 49 13 42 -6 -3 -10 4 -10 15 0 19 4 21 27
15 32 -8 83 -42 83 -56 0 -6 -10 -8 -22 -4 -18 5 -20 4 -8 -4 17 -12 53 -14
63 -5 20 21 -66 86 -128 97 -16 3 -37 8 -45 10 -8 3 -31 1 -51 -2z m51 -25 c0
-2 3 -13 6 -23 4 -11 3 -14 -3 -6 -9 12 -63 6 -63 -8 0 -9 17 -12 60 -10 23 1
22 0 -8 -13 -55 -25 -96 3 -59 40 19 19 67 33 67 20z"/>
<path d="M2381 2003 c-1 -12 4 -25 9 -28 12 -7 12 2 0 30 -8 19 -9 19 -9 -2z"/>
<path d="M2873 2002 c1 -12 6 -18 14 -15 16 6 13 25 -5 31 -6 2 -10 -6 -9 -16z"/>
<path d="M1610 1990 c0 -5 5 -10 10 -10 6 0 10 5 10 10 0 6 -4 10 -10 10 -5 0
-10 -4 -10 -10z"/>
<path d="M2351 1984 c0 -11 3 -14 6 -6 3 7 2 16 -1 19 -3 4 -6 -2 -5 -13z"/>
<path d="M2800 1996 c0 -2 7 -6 15 -10 8 -3 15 -1 15 4 0 6 -7 10 -15 10 -8 0
-15 -2 -15 -4z"/>
<path d="M700 1962 c0 -4 9 -13 21 -20 19 -12 19 -11 9 8 -10 19 -30 28 -30
12z"/>
<path d="M2940 1947 c0 -9 4 -18 9 -21 5 -4 8 1 7 9 -3 21 -16 31 -16 12z"/>
<path d="M575 1930 c-3 -6 1 -7 9 -4 18 7 21 14 7 14 -6 0 -13 -4 -16 -10z"/>
<path d="M230 1920 c0 -5 5 -10 10 -10 6 0 10 5 10 10 0 6 -4 10 -10 10 -5 0
-10 -4 -10 -10z"/>
<path d="M290 1920 c0 -5 5 -10 10 -10 6 0 10 5 10 10 0 6 -4 10 -10 10 -5 0
-10 -4 -10 -10z"/>
<path d="M2836 1912 c-7 -22 -46 -42 -84 -42 -15 -1 -40 -7 -57 -15 -28 -12
-26 -13 35 -8 36 2 72 11 81 19 9 8 19 11 22 7 4 -3 7 1 7 10 0 16 14 21 48
20 24 -1 6 22 -20 25 -19 2 -28 -2 -32 -16z"/>
<path d="M2500 1907 c-15 -12 -23 -77 -9 -77 4 0 10 -10 13 -22 2 -13 3 1 2
30 -3 49 -2 52 18 47 19 -6 20 -5 4 8 -10 8 -15 17 -11 20 11 12 -1 7 -17 -6z"/>
<path d="M1403 1895 c0 -8 4 -15 9 -15 4 0 8 4 8 9 0 6 -4 12 -8 15 -5 3 -9
-1 -9 -9z"/>
<path d="M2170 1896 c0 -9 5 -16 10 -16 6 0 10 4 10 9 0 6 -4 13 -10 16 -5 3
-10 -1 -10 -9z"/>
<path d="M1166 1885 c-4 -13 -2 -14 14 -5 23 13 26 20 6 20 -8 0 -16 -7 -20
-15z"/>
<path d="M2381 1884 c0 -11 3 -14 6 -6 3 7 2 16 -1 19 -3 4 -6 -2 -5 -13z"/>
<path d="M695 1879 c-4 -6 -5 -12 -2 -15 2 -3 7 2 10 11 7 17 1 20 -8 4z"/>
<path d="M838 1883 c7 -3 16 -2 19 1 4 3 -2 6 -13 5 -11 0 -14 -3 -6 -6z"/>
<path d="M1591 1874 c0 -11 3 -14 6 -6 3 7 2 16 -1 19 -3 4 -6 -2 -5 -13z"/>
<path d="M1736 1875 c4 -8 8 -15 10 -15 2 0 4 7 4 15 0 8 -4 15 -10 15 -5 0
-7 -7 -4 -15z"/>
<path d="M2072 1881 c-11 -6 -9 -9 6 -13 15 -4 19 -2 15 8 -6 16 -4 16 -21 5z"/>
<path d="M954 1869 c-6 -10 -7 -10 26 -13 14 -2 39 -6 55 -11 20 -5 27 -4 20
2 -15 15 -94 32 -101 22z"/>
<path d="M1610 1866 c0 -23 11 -46 20 -41 10 6 0 55 -11 55 -5 0 -9 -6 -9 -14z"/>
<path d="M510 1859 c0 -5 5 -7 10 -4 6 3 10 8 10 11 0 2 -4 4 -10 4 -5 0 -10
-5 -10 -11z"/>
<path d="M1980 1830 c0 -37 2 -40 29 -40 15 0 57 -3 92 -6 64 -7 64 -7 44 13
-11 11 -23 16 -26 11 -9 -15 -120 3 -127 20 -3 9 0 18 6 20 17 5 15 22 -3 22
-11 0 -15 -11 -15 -40z"/>
<path d="M2026 1855 c4 -8 7 -15 9 -15 2 0 5 7 9 15 3 9 0 15 -9 15 -9 0 -12
-6 -9 -15z"/>
<path d="M2186 1862 c-2 -4 -1 -14 5 -22 7 -12 9 -10 9 8 0 23 -5 28 -14 14z"/>
<path d="M337 1849 c7 -7 15 -10 18 -7 3 3 -2 9 -12 12 -14 6 -15 5 -6 -5z"/>
<path d="M1951 1843 c-1 -12 4 -25 9 -28 12 -7 12 2 0 30 -8 19 -9 19 -9 -2z"/>
<path d="M2432 1840 c0 -14 2 -19 5 -12 2 6 2 18 0 25 -3 6 -5 1 -5 -13z"/>
<path d="M300 1840 c0 -6 7 -10 15 -10 8 0 15 2 15 4 0 2 -7 6 -15 10 -8 3
-15 1 -15 -4z"/>
<path d="M1091 1834 c0 -11 3 -14 6 -6 3 7 2 16 -1 19 -3 4 -6 -2 -5 -13z"/>
<path d="M1170 1838 c0 -4 4 -8 9 -8 6 0 12 4 15 8 3 5 -1 9 -9 9 -8 0 -15 -4
-15 -9z"/>
<path d="M1350 1843 c0 -6 5 -15 10 -18 8 -5 7 -11 0 -20 -7 -8 -10 -22 -7
-32 4 -15 5 -15 6 3 0 11 6 25 11 30 7 7 5 17 -5 30 -8 10 -15 14 -15 7z"/>
<path d="M576 1831 c-4 -7 -5 -15 -2 -18 9 -9 19 4 14 18 -4 11 -6 11 -12 0z"/>
<path d="M1920 1824 c0 -8 5 -12 10 -9 6 3 10 10 10 16 0 5 -4 9 -10 9 -5 0
-10 -7 -10 -16z"/>
<path d="M2800 1825 c7 -9 15 -13 17 -11 7 7 -7 26 -19 26 -6 0 -6 -6 2 -15z"/>
<path d="M410 1819 c0 -6 -9 -9 -19 -6 -12 3 -22 -1 -25 -9 -4 -11 2 -14 24
-12 21 2 30 7 30 20 0 10 -2 18 -5 18 -3 0 -5 -5 -5 -11z"/>
<path d="M1140 1819 c0 -5 -4 -8 -9 -4 -5 3 -13 0 -16 -6 -11 -17 2 -21 24 -7
22 14 28 28 11 28 -5 0 -10 -5 -10 -11z"/>
<path d="M2221 1814 c0 -11 3 -14 6 -6 3 7 2 16 -1 19 -3 4 -6 -2 -5 -13z"/>
<path d="M2678 1813 c-17 -4 -26 -43 -10 -43 13 0 28 15 35 33 7 17 5 18 -25
10z"/>
<path d="M540 1775 c0 -14 4 -25 9 -25 5 0 8 11 7 25 -1 33 -16 33 -16 0z"/>
<path d="M1018 1789 c-7 -4 -35 -5 -62 -2 -41 4 -49 3 -39 -7 22 -23 183 -15
183 9 0 11 -65 10 -82 0z"/>
<path d="M332 1770 c-7 -11 -8 -20 -3 -20 9 0 24 30 18 36 -1 2 -8 -6 -15 -16z"/>
<path d="M569 1768 c-3 -15 -2 -32 2 -40 12 -19 16 -7 9 32 -5 34 -6 34 -11 8z"/>
<path d="M2478 1765 c-4 -17 -1 -25 8 -25 16 0 18 -16 4 -25 -6 -4 -8 -16 -4
-27 4 -14 2 -18 -5 -14 -7 4 -11 -1 -11 -13 0 -15 6 -21 23 -20 12 0 16 3 9 6
-6 2 -9 10 -5 16 4 6 8 18 9 27 1 8 6 25 9 38 5 14 3 22 -4 22 -6 0 -11 6 -11
14 0 26 -18 26 -22 1z"/>
<path d="M2778 1772 c-15 -22 -78 -45 -110 -40 -18 2 -23 -2 -22 -19 0 -13 -3
-23 -8 -23 -4 0 -8 5 -8 12 0 6 -2 9 -5 6 -13 -12 8 -38 26 -33 12 4 19 2 19
-7 0 -9 3 -10 8 -2 4 6 17 14 30 18 12 4 22 11 22 16 0 5 14 11 30 15 17 4 28
10 26 14 -3 4 0 13 5 21 8 13 10 13 18 0 6 -8 12 -12 15 -10 2 3 -4 15 -14 28
-18 22 -19 22 -32 4z"/>
<path d="M2850 1776 c0 -9 7 -12 20 -9 11 3 20 9 20 14 0 5 -9 9 -20 9 -11 0
-20 -6 -20 -14z"/>
<path d="M2991 1764 c0 -11 3 -14 6 -6 3 7 2 16 -1 19 -3 4 -6 -2 -5 -13z"/>
<path d="M1910 1752 c0 -4 10 -9 22 -9 18 -2 20 0 8 7 -18 12 -30 13 -30 2z"/>
<path d="M2535 1750 c4 -6 11 -8 16 -5 14 9 11 15 -7 15 -8 0 -12 -5 -9 -10z"/>
<path d="M474 1711 c3 -14 0 -31 -6 -38 -7 -9 -7 -13 1 -13 18 0 25 29 12 53
-11 22 -11 22 -7 -2z"/>
<path d="M2401 1714 c0 -11 3 -14 6 -6 3 7 2 16 -1 19 -3 4 -6 -2 -5 -13z"/>
<path d="M2525 1710 c-3 -11 -4 -24 0 -30 3 -5 -2 -24 -11 -41 -12 -24 -18
-29 -24 -18 -5 7 -11 11 -14 9 -2 -3 2 -13 9 -23 11 -15 16 -16 33 -6 25 16
38 69 20 82 -10 7 -10 10 0 14 14 5 17 33 3 33 -5 0 -12 -9 -16 -20z"/>
<path d="M215 1710 c-3 -5 -1 -10 4 -10 6 0 11 5 11 10 0 6 -2 10 -4 10 -3 0
-8 -4 -11 -10z"/>
<path d="M1661 1704 c0 -11 3 -14 6 -6 3 7 2 16 -1 19 -3 4 -6 -2 -5 -13z"/>
<path d="M1136 1683 c-6 -14 -5 -15 5 -6 7 7 10 15 7 18 -3 3 -9 -2 -12 -12z"/>
<path d="M423 1682 c-7 -4 -9 -13 -4 -21 6 -9 10 -7 14 8 3 12 4 21 4 21 -1 0
-7 -4 -14 -8z"/>
<path d="M1570 1668 c0 -19 2 -20 10 -8 13 19 13 30 0 30 -5 0 -10 -10 -10
-22z"/>
<path d="M1336 1671 c-4 -7 -5 -15 -2 -18 9 -9 19 4 14 18 -4 11 -6 11 -12 0z"/>
<path d="M2311 1664 c0 -11 3 -14 6 -6 3 7 2 16 -1 19 -3 4 -6 -2 -5 -13z"/>
<path d="M2335 1670 c3 -5 8 -10 11 -10 2 0 4 5 4 10 0 6 -5 10 -11 10 -5 0
-7 -4 -4 -10z"/>
<path d="M35 1660 c3 -6 -1 -7 -9 -4 -9 3 -16 1 -16 -5 0 -6 9 -11 20 -11 11
0 20 7 20 15 0 8 -5 15 -11 15 -5 0 -7 -4 -4 -10z"/>
<path d="M100 1662 c-50 -7 -40 -20 13 -18 31 1 59 4 62 8 8 7 -43 14 -75 10z"/>
<path d="M256 1661 c-3 -4 -17 -6 -31 -3 -15 3 -25 0 -25 -8 0 -8 15 -11 48
-8 30 2 55 -2 65 -10 13 -11 15 -10 13 4 -4 25 -58 45 -70 25z"/>
<path d="M346 1651 c-4 -7 -5 -15 -2 -18 9 -9 19 4 14 18 -4 11 -6 11 -12 0z"/>
<path d="M2626 1645 c-3 -9 0 -15 8 -15 7 0 13 7 13 15 0 8 -4 15 -8 15 -4 0
-9 -7 -13 -15z"/>
<path d="M1310 1635 c7 -9 15 -13 17 -11 7 7 -7 26 -19 26 -6 0 -6 -6 2 -15z"/>
<path d="M2666 1627 c3 -10 9 -15 12 -12 3 3 0 11 -7 18 -10 9 -11 8 -5 -6z"/>
<path d="M480 1621 c0 -5 6 -12 13 -15 10 -5 10 -7 0 -12 -7 -3 -13 -13 -12
-22 0 -10 3 -12 5 -5 3 7 12 9 20 6 19 -7 19 24 0 43 -17 16 -26 18 -26 5z"/>
<path d="M1708 1588 c-3 -24 -1 -50 3 -58 7 -13 8 -12 9 3 0 20 36 24 43 5 4
-10 8 -9 16 2 13 18 13 21 1 40 -8 12 -11 12 -28 -3 -26 -23 -29 -22 -30 14
-1 47 -9 45 -14 -3z"/>
<path d="M2561 1600 c-17 -15 -19 -20 -7 -20 8 0 20 9 26 20 13 25 11 25 -19
0z"/>
<path d="M330 1606 c0 -2 7 -6 15 -10 8 -3 15 -1 15 4 0 6 -7 10 -15 10 -8 0
-15 -2 -15 -4z"/>
<path d="M701 1594 c0 -11 3 -14 6 -6 3 7 2 16 -1 19 -3 4 -6 -2 -5 -13z"/>
<path d="M1298 1592 c-4 -13 -3 -33 1 -45 11 -29 18 -8 11 33 -5 31 -6 33 -12
12z"/>
<path d="M2633 1600 c-12 -5 -25 -21 -29 -35 -3 -14 -10 -25 -15 -25 -5 0 -9
-4 -9 -9 0 -5 7 -8 15 -7 19 3 82 66 66 66 -7 0 -9 5 -6 10 7 12 7 12 -22 0z"/>
<path d="M1221 1533 c-8 -24 -20 -47 -27 -50 -8 -3 -11 -9 -8 -14 3 -5 -2 -12
-10 -15 -20 -8 -21 -24 -1 -24 8 0 24 20 35 45 12 25 30 55 40 65 19 19 19 20
2 29 -15 8 -20 3 -31 -36z"/>
<path d="M2276 1565 c4 -8 8 -15 10 -15 2 0 4 7 4 15 0 8 -4 15 -10 15 -5 0
-7 -7 -4 -15z"/>
<path d="M2491 1554 c-8 -18 -8 -31 -1 -45 6 -10 7 -19 2 -19 -9 0 -25 -100
-17 -108 7 -8 32 63 33 96 0 18 4 46 7 62 8 37 -9 47 -24 14z"/>
<path d="M2460 1560 c0 -5 5 -10 10 -10 6 0 10 5 10 10 0 6 -4 10 -10 10 -5 0
-10 -4 -10 -10z"/>
<path d="M500 1549 c0 -4 4 -9 9 -11 17 -6 61 -81 61 -105 0 -14 4 -21 10 -18
5 3 15 -5 22 -19 6 -14 15 -26 20 -26 11 0 10 3 -6 36 -8 15 -13 31 -10 36 3
4 -2 11 -10 14 -9 3 -16 15 -16 25 0 10 -4 19 -9 19 -5 0 -13 12 -18 27 -6 17
-17 27 -31 28 -12 1 -22 -2 -22 -6z"/>
<path d="M2430 1549 c0 -5 5 -7 10 -4 6 3 10 8 10 11 0 2 -4 4 -10 4 -5 0 -10
-5 -10 -11z"/>
<path d="M1790 1520 c0 -11 5 -20 10 -20 6 0 10 9 10 20 0 11 -4 20 -10 20 -5
0 -10 -9 -10 -20z"/>
<path d="M2360 1516 c0 -9 5 -16 10 -16 6 0 10 4 10 9 0 6 -4 13 -10 16 -5 3
-10 -1 -10 -9z"/>
<path d="M1301 1493 c-10 -26 -10 -27 4 -9 8 11 15 23 15 28 0 15 -7 8 -19
-19z"/>
<path d="M1692 1495 c0 -16 2 -22 5 -12 2 9 2 23 0 30 -3 6 -5 -1 -5 -18z"/>
<path d="M2463 1503 c-7 -3 -13 -20 -13 -39 0 -21 -4 -33 -10 -29 -19 11 -24
-27 -6 -41 13 -9 16 -21 12 -51 -3 -21 -3 -29 0 -18 4 11 11 26 16 32 7 9 5
21 -7 40 -10 16 -14 24 -9 20 5 -5 14 13 21 40 13 52 13 52 -4 46z"/>
<path d="M2575 1490 c4 -21 -32 -92 -65 -127 -26 -28 -25 -36 1 -28 20 7 21 4
15 -21 -6 -24 -5 -26 8 -15 9 8 16 27 16 43 0 18 11 43 26 61 18 21 22 32 14
37 -9 5 -9 9 -1 14 16 11 14 56 -3 56 -9 0 -13 -7 -11 -20z"/>
<path d="M1716 1473 c-6 -14 -5 -15 5 -6 7 7 10 15 7 18 -3 3 -9 -2 -12 -12z"/>
<path d="M1817 1483 c-4 -3 -7 -18 -6 -32 1 -26 1 -25 10 3 9 31 7 41 -4 29z"/>
<path d="M2275 1480 c3 -5 8 -10 11 -10 2 0 4 5 4 10 0 6 -5 10 -11 10 -5 0
-7 -4 -4 -10z"/>
<path d="M2350 1473 c0 -5 4 -14 9 -21 6 -10 10 -9 14 7 3 14 0 21 -9 21 -8 0
-14 -3 -14 -7z"/>
<path d="M2945 1459 c-4 -6 -5 -12 -2 -15 2 -3 7 2 10 11 7 17 1 20 -8 4z"/>
<path d="M1832 1430 c0 -19 2 -29 5 -22 4 10 15 4 39 -19 37 -36 64 -45 64
-23 0 8 -6 14 -13 14 -8 0 -24 11 -37 25 -13 14 -29 25 -36 25 -7 0 -15 8 -17
18 -3 9 -5 1 -5 -18z"/>
<path d="M731 1434 c0 -11 3 -14 6 -6 3 7 2 16 -1 19 -3 4 -6 -2 -5 -13z"/>
<path d="M1288 1433 c-7 -25 -6 -25 33 -27 14 -1 26 3 26 10 0 7 -6 10 -14 7
-8 -3 -13 2 -14 13 0 17 -1 17 -8 -1 -8 -20 -8 -20 -13 0 -4 19 -4 19 -10 -2z"/>
<path d="M1697 1435 c-4 -8 -2 -17 4 -20 5 -4 6 -11 3 -17 -4 -6 -2 -8 3 -5
12 8 14 57 3 57 -4 0 -10 -7 -13 -15z"/>
<path d="M773 1385 c0 -22 2 -30 4 -17 2 12 2 30 0 40 -3 9 -5 -1 -4 -23z"/>
<path d="M1155 1410 c-3 -5 -1 -10 4 -10 6 0 11 5 11 10 0 6 -2 10 -4 10 -3 0
-8 -4 -11 -10z"/>
<path d="M1800 1394 c10 -25 -13 -57 -23 -32 -4 10 -7 10 -15 -1 -7 -9 -12
-10 -16 -2 -4 6 -12 9 -17 6 -5 -4 -27 -7 -50 -7 -22 0 -46 -6 -53 -14 -10 -9
-16 -10 -25 -1 -8 8 -11 8 -11 0 0 -6 -3 -20 -7 -30 -6 -15 -5 -16 9 -5 11 9
18 10 23 2 9 -14 25 -2 19 14 -3 8 -1 17 5 21 6 3 11 2 11 -3 0 -6 33 -9 76
-8 62 1 78 5 90 20 10 14 11 23 3 32 -6 7 -8 17 -5 22 3 5 -1 9 -9 9 -10 0
-11 -6 -5 -23z"/>
<path d="M2050 1410 c0 -5 5 -10 10 -10 6 0 10 5 10 10 0 6 -4 10 -10 10 -5 0
-10 -4 -10 -10z"/>
<path d="M2300 1410 c0 -5 4 -10 9 -10 6 0 13 5 16 10 3 6 -1 10 -9 10 -9 0
-16 -4 -16 -10z"/>
<path d="M2350 1410 c0 -5 5 -10 11 -10 5 0 7 5 4 10 -3 6 -8 10 -11 10 -2 0
-4 -4 -4 -10z"/>
<path d="M2640 1400 c-7 -4 -19 -6 -27 -3 -7 3 -13 0 -13 -6 0 -6 7 -11 15
-11 8 0 15 -7 15 -15 0 -21 33 -19 47 3 9 15 8 21 -6 29 -10 6 -24 8 -31 3z
m25 -30 c-3 -5 -10 -10 -16 -10 -5 0 -9 5 -9 10 0 6 7 10 16 10 8 0 12 -4 9
-10z"/>
<path d="M1122 1388 c2 -6 10 -14 16 -16 7 -2 10 2 6 12 -7 18 -28 22 -22 4z"/>
<path d="M1345 1380 c-3 -5 1 -10 9 -10 8 0 18 5 21 10 3 6 -1 10 -9 10 -8 0
-18 -4 -21 -10z"/>
<path d="M1593 1377 c-24 -7 -33 -15 -32 -31 1 -16 2 -17 6 -4 2 9 20 20 41
25 20 5 32 11 27 14 -6 3 -25 1 -42 -4z"/>
<path d="M2385 1380 c3 -5 8 -10 11 -10 2 0 4 5 4 10 0 6 -5 10 -11 10 -5 0
-7 -4 -4 -10z"/>
<path d="M1103 1360 c7 -26 -9 -35 -22 -13 -9 15 -10 13 -11 -14 0 -38 3 -40
30 -13 21 21 27 60 9 60 -6 0 -9 -9 -6 -20z"/>
<path d="M1200 1357 c0 -8 7 -14 16 -13 9 0 19 -5 22 -13 3 -8 0 -11 -7 -7 -6
4 -11 2 -11 -3 0 -6 9 -11 20 -11 11 0 19 -6 18 -12 -2 -8 9 -14 26 -16 18 -2
26 0 21 7 -3 6 -13 11 -21 11 -19 0 -18 26 1 34 8 3 27 1 42 -5 21 -8 30 -6
42 6 14 13 13 15 -10 15 -14 0 -30 5 -37 12 -9 9 -17 9 -34 0 -22 -12 -57 -10
-78 3 -6 3 -10 0 -10 -8z"/>
<path d="M1953 1350 c-3 -11 -9 -17 -14 -14 -5 3 -6 -2 -3 -10 3 -8 19 -21 34
-28 16 -7 26 -16 24 -20 -3 -4 4 -8 14 -8 11 0 25 -7 32 -15 7 -8 17 -12 22
-9 13 8 -21 44 -35 38 -19 -7 -69 46 -64 67 3 11 3 19 0 19 -3 0 -7 -9 -10
-20z"/>
<path d="M895 1349 c-10 -15 3 -25 16 -12 7 7 7 13 1 17 -6 3 -14 1 -17 -5z"/>
<path d="M1430 1340 c0 -5 5 -10 10 -10 6 0 10 5 10 10 0 6 -4 10 -10 10 -5 0
-10 -4 -10 -10z"/>
<path d="M1500 1339 c0 -5 5 -7 10 -4 6 3 10 8 10 11 0 2 -4 4 -10 4 -5 0 -10
-5 -10 -11z"/>
<path d="M2261 1334 c0 -11 3 -14 6 -6 3 7 2 16 -1 19 -3 4 -6 -2 -5 -13z"/>
<path d="M2571 1334 c0 -11 3 -14 6 -6 3 7 2 16 -1 19 -3 4 -6 -2 -5 -13z"/>
<path d="M1370 1321 c0 -13 55 -51 73 -51 9 0 18 -4 22 -10 7 -11 35 -2 35 11
0 5 -9 9 -20 9 -12 0 -32 7 -45 16 -13 9 -29 13 -35 9 -5 -3 -10 1 -10 9 0 9
-4 16 -10 16 -5 0 -10 -4 -10 -9z"/>
<path d="M1822 1310 c0 -14 2 -19 5 -12 2 6 2 18 0 25 -3 6 -5 1 -5 -13z"/>
<path d="M1750 1310 c0 -6 7 -19 16 -27 14 -15 16 -14 12 7 -3 24 -28 41 -28
20z"/>
<path d="M2610 1295 c-16 -17 -19 -25 -9 -25 8 0 19 11 26 25 14 31 12 31 -17
0z"/>
<path d="M1560 1286 c0 -9 5 -16 10 -16 6 0 10 4 10 9 0 6 -4 13 -10 16 -5 3
-10 -1 -10 -9z"/>
<path d="M2488 1293 c7 -3 16 -2 19 1 4 3 -2 6 -13 5 -11 0 -14 -3 -6 -6z"/>
<path d="M1202 1270 c0 -14 2 -19 5 -12 2 6 2 18 0 25 -3 6 -5 1 -5 -13z"/>
<path d="M1520 1275 c-11 -13 -10 -14 4 -9 9 3 16 10 16 15 0 13 -6 11 -20 -6z"/>
<path d="M1656 1275 c4 -8 8 -15 10 -15 2 0 4 7 4 15 0 8 -4 15 -10 15 -5 0
-7 -7 -4 -15z"/>
<path d="M1730 1275 c0 -8 4 -15 10 -15 5 0 7 7 4 15 -4 8 -8 15 -10 15 -2 0
-4 -7 -4 -15z"/>
<path d="M820 1269 c0 -5 5 -7 10 -4 6 3 10 8 10 11 0 2 -4 4 -10 4 -5 0 -10
-5 -10 -11z"/>
<path d="M1027 1265 c-4 -8 -2 -17 3 -20 6 -4 10 3 10 14 0 25 -6 27 -13 6z"/>
<path d="M2410 1255 c-12 -22 -12 -28 1 -40 12 -12 14 -9 14 25 1 22 0 40 0
40 -1 0 -8 -11 -15 -25z"/>
<path d="M2370 1255 c0 -8 5 -15 10 -15 6 0 10 7 10 15 0 8 -4 15 -10 15 -5 0
-10 -7 -10 -15z"/>
<path d="M733 1215 c0 -27 2 -38 4 -22 2 15 2 37 0 50 -2 12 -4 0 -4 -28z"/>
<path d="M750 1250 c0 -5 5 -10 11 -10 5 0 7 5 4 10 -3 6 -8 10 -11 10 -2 0
-4 -4 -4 -10z"/>
<path d="M1795 1250 c3 -5 8 -10 11 -10 2 0 4 5 4 10 0 6 -5 10 -11 10 -5 0
-7 -4 -4 -10z"/>
<path d="M2265 1250 c-3 -5 -1 -18 4 -27 9 -16 10 -14 11 10 0 28 -5 34 -15
17z"/>
<path d="M2525 1250 c3 -5 10 -10 16 -10 5 0 9 5 9 10 0 6 -7 10 -16 10 -8 0
-12 -4 -9 -10z"/>
<path d="M1255 1242 c-7 -8 -6 -42 1 -42 7 0 33 32 34 41 0 7 -28 8 -35 1z"/>
<path d="M1660 1241 c0 -6 6 -14 14 -18 8 -4 16 -19 18 -33 3 -20 5 -18 9 12
3 21 3 35 1 33 -3 -2 -13 0 -23 6 -12 6 -19 6 -19 0z"/>
<path d="M2027 1225 c10 -13 21 -25 26 -25 12 0 3 24 -13 37 -25 21 -32 14
-13 -12z"/>
<path d="M1320 1216 c0 -20 -4 -27 -14 -23 -10 4 -13 1 -9 -9 7 -18 6 -18 30
4 19 15 19 20 7 37 -13 18 -14 17 -14 -9z"/>
<path d="M1560 1230 c0 -5 5 -10 10 -10 6 0 10 5 10 10 0 6 -4 10 -10 10 -5 0
-10 -4 -10 -10z"/>
<path d="M1736 1225 c-3 -8 -1 -15 4 -15 6 0 10 7 10 15 0 8 -2 15 -4 15 -2 0
-6 -7 -10 -15z"/>
<path d="M2596 1225 c-3 -8 -1 -15 4 -15 6 0 10 7 10 15 0 8 -2 15 -4 15 -2 0
-6 -7 -10 -15z"/>
<path d="M962 1218 c-14 -14 -16 -28 -3 -28 9 0 24 30 18 36 -2 2 -9 -2 -15
-8z"/>
<path d="M2085 1220 c-8 -13 -1 -24 14 -19 6 3 7 10 2 18 -6 10 -10 10 -16 1z"/>
<path d="M650 1210 c0 -4 7 -10 15 -14 8 -3 15 -14 15 -25 0 -11 5 -23 12 -27
8 -5 9 0 5 17 -4 13 -7 29 -7 35 0 7 -9 14 -20 17 -11 3 -20 2 -20 -3z"/>
<path d="M1916 1195 c-4 -14 -13 -25 -21 -25 -8 0 -15 -7 -15 -16 0 -14 2 -15
17 -3 11 10 14 10 9 2 -4 -7 -2 -13 3 -13 6 0 11 8 11 18 0 9 9 23 20 30 25
15 26 32 1 32 -12 0 -21 -9 -25 -25z"/>
<path d="M2122 1190 c0 -14 2 -19 5 -12 2 6 2 18 0 25 -3 6 -5 1 -5 -13z"/>
<path d="M821 1178 c-1 -21 3 -26 15 -21 9 3 11 9 6 12 -5 3 -12 13 -15 21 -3
9 -6 4 -6 -12z"/>
<path d="M1436 1185 c4 -8 11 -15 16 -15 6 0 5 6 -2 15 -7 8 -14 15 -16 15 -2
0 -1 -7 2 -15z"/>
<path d="M1470 1190 c0 -5 7 -7 15 -4 8 4 15 8 15 10 0 2 -7 4 -15 4 -8 0 -15
-4 -15 -10z"/>
<path d="M1520 1189 c0 -6 12 -25 27 -43 15 -17 24 -23 20 -13 -4 10 -7 24 -7
30 0 7 -9 18 -20 25 -14 8 -20 9 -20 1z"/>
<path d="M1850 1190 c0 -5 7 -10 15 -10 8 0 15 5 15 10 0 6 -7 10 -15 10 -8 0
-15 -4 -15 -10z"/>
<path d="M747 1169 c-7 -28 28 -97 37 -73 8 22 8 26 -3 19 -14 -8 -31 28 -24
53 3 12 3 22 0 22 -2 0 -7 -10 -10 -21z"/>
<path d="M895 1180 c4 -6 11 -8 16 -5 14 9 11 15 -7 15 -8 0 -12 -5 -9 -10z"/>
<path d="M1187 1183 c-4 -3 -7 -15 -7 -25 0 -28 25 -22 28 7 2 24 -8 32 -21
18z"/>
<path d="M1740 1175 c0 -8 5 -15 10 -15 6 0 10 7 10 15 0 8 -4 15 -10 15 -5 0
-10 -7 -10 -15z"/>
<path d="M1801 1159 c23 -33 24 -33 27 -11 4 28 4 27 -27 37 l-24 7 24 -33z"/>
<path d="M1060 1150 l0 -31 31 16 c25 13 28 19 18 31 -6 8 -20 14 -30 14 -14
0 -19 -7 -19 -30z"/>
<path d="M1251 1143 c2 -23 6 -40 10 -38 7 5 2 65 -7 74 -3 3 -4 -13 -3 -36z"/>
<path d="M1270 1169 c0 -5 5 -7 10 -4 6 3 10 8 10 11 0 2 -4 4 -10 4 -5 0 -10
-5 -10 -11z"/>
<path d="M1980 1165 c0 -15 46 -32 57 -21 4 3 -1 6 -9 6 -9 0 -18 7 -22 15 -7
19 -26 19 -26 0z"/>
<path d="M2441 1164 c-1 -27 9 -36 26 -23 9 9 13 8 13 0 0 -6 4 -11 8 -11 13
0 54 41 47 48 -3 3 -11 0 -17 -6 -16 -16 -65 -15 -71 1 -3 6 -6 3 -6 -9z"/>
<path d="M1610 1152 c0 -5 7 -13 16 -16 10 -4 14 -1 12 6 -5 15 -28 23 -28 10z"/>
<path d="M1415 1143 c6 -4 10 -19 10 -33 0 -21 -6 -26 -35 -31 -29 -5 -32 -7
-16 -14 11 -5 39 -3 69 5 47 12 51 11 66 -8 14 -19 18 -19 35 -6 11 7 16 14
10 14 -5 0 -1 5 9 11 13 8 24 5 46 -10 l29 -21 -2 25 c-1 17 -7 25 -18 25 -10
0 -18 6 -18 13 0 8 -3 7 -10 -3 -5 -8 -12 -11 -16 -7 -4 4 -13 2 -21 -5 -10
-8 -12 -8 -8 4 3 8 -2 21 -11 29 -16 13 -17 11 -11 -23 3 -21 2 -38 -4 -38 -5
0 -9 4 -9 10 0 5 -11 12 -24 16 -18 4 -22 10 -18 27 l5 22 -22 -20 c-22 -19
-23 -19 -20 -1 2 11 -3 21 -11 23 -9 3 -11 1 -5 -4z"/>
<path d="M880 1134 c0 -13 18 -39 24 -34 2 3 -2 14 -10 24 -8 11 -14 16 -14
10z"/>
<path d="M1172 1121 c-10 -6 -9 -10 7 -14 14 -3 21 0 21 9 0 16 -9 18 -28 5z"/>
<path d="M1343 1123 c-7 -2 -13 -11 -13 -19 0 -12 -10 -17 -30 -16 -3 0 -6
-12 -6 -26 -1 -15 1 -21 3 -14 3 6 10 12 16 12 7 0 17 10 22 23 6 13 18 22 32
21 13 0 19 4 16 13 -5 13 -18 15 -40 6z"/>
<path d="M2301 1114 c0 -11 3 -14 6 -6 3 7 2 16 -1 19 -3 4 -6 -2 -5 -13z"/>
<path d="M960 1110 c0 -5 5 -10 10 -10 6 0 10 5 10 10 0 6 -4 10 -10 10 -5 0
-10 -4 -10 -10z"/>
<path d="M1710 1109 c0 -15 18 -19 23 -6 3 8 -1 14 -9 14 -8 0 -14 -4 -14 -8z"/>
<path d="M1969 1107 c6 -8 7 -18 3 -22 -4 -5 1 -5 12 -1 13 4 17 2 13 -8 -3
-8 2 -16 14 -19 15 -4 17 -2 10 11 -4 10 -6 23 -3 31 3 10 0 12 -12 8 -9 -4
-16 -2 -16 3 0 6 -7 10 -16 10 -13 0 -14 -3 -5 -13z"/>
<path d="M2072 1100 c0 -14 2 -19 5 -12 2 6 2 18 0 25 -3 6 -5 1 -5 -13z"/>
<path d="M2237 1096 c4 -18 10 -23 21 -18 10 4 12 7 4 10 -7 2 -12 10 -12 18
0 8 -4 14 -9 14 -4 0 -6 -11 -4 -24z"/>
<path d="M2450 1111 c0 -10 19 -25 25 -20 1 2 -3 10 -11 17 -8 7 -14 8 -14 3z"/>
<path d="M840 1099 c0 -5 5 -7 10 -4 6 3 10 8 10 11 0 2 -4 4 -10 4 -5 0 -10
-5 -10 -11z"/>
<path d="M1055 1100 c-3 -5 -3 -15 1 -21 6 -11 23 6 24 24 0 10 -18 9 -25 -3z"/>
<path d="M1760 1100 c0 -5 5 -10 10 -10 6 0 10 5 10 10 0 6 -4 10 -10 10 -5 0
-10 -4 -10 -10z"/>
<path d="M1801 1094 c0 -11 3 -14 6 -6 3 7 2 16 -1 19 -3 4 -6 -2 -5 -13z"/>
<path d="M1152 1075 c6 -14 13 -24 14 -22 6 6 -9 47 -17 47 -5 0 -3 -11 3 -25z"/>
<path d="M1220 1084 c0 -8 5 -12 10 -9 6 4 8 11 5 16 -9 14 -15 11 -15 -7z"/>
<path d="M2047 1094 c-4 -4 -7 -14 -7 -23 0 -11 3 -12 11 -4 6 6 10 16 7 23
-2 6 -7 8 -11 4z"/>
<path d="M2366 1083 c-9 -29 -7 -37 9 -39 8 -1 15 4 15 12 0 9 -5 12 -11 8 -8
-4 -9 0 -4 15 3 11 4 21 1 21 -2 0 -7 -8 -10 -17z"/>
<path d="M867 1083 c-4 -3 -7 -13 -7 -21 0 -12 3 -12 15 -2 8 7 15 16 15 21 0
11 -14 12 -23 2z"/>
<path d="M1092 1070 c-10 -17 -10 -20 3 -20 8 0 15 9 15 20 0 11 -1 20 -3 20
-1 0 -8 -9 -15 -20z"/>
<path d="M2410 1086 c0 -2 7 -7 16 -10 8 -3 12 -2 9 4 -6 10 -25 14 -25 6z"/>
<path d="M681 1064 c0 -11 3 -14 6 -6 3 7 2 16 -1 19 -3 4 -6 -2 -5 -13z"/>
<path d="M697 1041 c-6 -50 -1 -71 19 -71 8 0 11 -6 7 -16 -4 -12 -14 -14 -37
-10 -22 4 -27 3 -16 -4 13 -9 7 -14 -12 -11 -5 0 -8 -3 -8 -9 0 -13 31 -13 86
1 37 10 45 15 42 33 -2 14 -11 22 -30 24 -22 3 -27 8 -26 30 0 15 -4 38 -9 51
-9 23 -10 21 -16 -18z"/>
<path d="M1030 1070 c0 -5 -7 -10 -15 -10 -8 0 -15 -5 -15 -10 0 -7 6 -7 20 0
18 10 28 30 15 30 -3 0 -5 -4 -5 -10z"/>
<path d="M2280 1070 c0 -5 5 -10 11 -10 5 0 7 5 4 10 -3 6 -8 10 -11 10 -2 0
-4 -4 -4 -10z"/>
<path d="M780 1061 c0 -5 5 -13 10 -16 6 -3 10 -2 10 4 0 5 -4 13 -10 16 -5 3
-10 2 -10 -4z"/>
<path d="M1931 1057 c-6 -8 -7 -18 -3 -22 4 -5 2 -5 -4 -2 -7 4 -33 -3 -59
-14 -34 -15 -50 -18 -55 -10 -5 9 -10 8 -19 -3 -11 -13 -64 -27 -121 -32 -48
-3 -105 -17 -119 -28 -12 -9 -13 -7 -9 12 4 12 2 22 -3 22 -5 0 -9 -7 -9 -15
0 -19 -30 -19 -112 0 -35 8 -80 15 -100 17 -26 1 -38 7 -38 17 0 11 -4 10 -15
-5 -9 -12 -14 -14 -15 -6 0 7 -5 10 -10 7 -20 -12 11 -35 47 -35 30 0 64 -6
213 -41 31 -7 46 -7 48 0 2 6 14 8 28 5 14 -4 31 -1 39 6 9 7 30 14 48 15 17
2 32 4 32 5 0 3 41 11 72 12 17 1 30 5 27 9 -5 9 63 22 75 15 5 -3 15 1 22 10
10 12 25 15 68 10 44 -5 52 -4 38 5 -11 6 -26 12 -35 14 -10 1 -17 11 -16 24
1 25 0 25 -15 8z"/>
<path d="M2458 1063 c7 -3 16 -2 19 1 4 3 -2 6 -13 5 -11 0 -14 -3 -6 -6z"/>
<path d="M1050 1045 c-9 -11 -10 -19 -3 -26 7 -7 12 -2 15 15 6 30 5 31 -12
11z"/>
<path d="M1343 1054 c-7 -3 -9 -12 -6 -20 8 -21 19 -17 19 6 0 11 0 20 -1 19
0 0 -5 -3 -12 -5z"/>
<path d="M1660 1050 c0 -5 5 -10 11 -10 6 0 9 -9 6 -19 -2 -10 -1 -25 4 -32 6
-9 9 1 9 29 0 31 -4 42 -15 42 -8 0 -15 -4 -15 -10z"/>
<path d="M2330 1035 c0 -14 4 -25 9 -25 4 0 6 11 3 25 -2 14 -6 25 -8 25 -2 0
-4 -11 -4 -25z"/>
<path d="M2490 1051 c0 -6 5 -13 10 -16 6 -3 10 1 10 9 0 9 -4 16 -10 16 -5 0
-10 -4 -10 -9z"/>
<path d="M760 1030 c6 -11 15 -20 21 -20 6 0 6 7 -1 20 -6 11 -15 20 -21 20
-6 0 -6 -7 1 -20z"/>
<path d="M1540 1030 c-13 -24 -7 -26 14 -4 9 8 16 11 16 5 0 -6 7 -11 15 -11
9 0 12 6 9 15 -9 22 -41 18 -54 -5z"/>
<path d="M2063 1043 c-10 -3 -10 -8 1 -19 14 -13 36 -19 36 -10 0 2 -3 11 -6
20 -6 17 -11 18 -31 9z"/>
<path d="M2240 1039 c0 -5 11 -9 25 -9 14 0 25 2 25 4 0 2 -11 6 -25 8 -14 3
-25 1 -25 -3z"/>
<path d="M2581 1034 c0 -11 3 -14 6 -6 3 7 2 16 -1 19 -3 4 -6 -2 -5 -13z"/>
<path d="M811 1019 c0 -15 5 -32 13 -39 12 -9 15 -8 13 9 -1 12 -4 21 -8 21
-4 0 -10 8 -12 18 -3 11 -5 8 -6 -9z"/>
<path d="M871 1018 c-9 -14 -9 -24 -2 -31 7 -7 12 -1 17 17 8 34 2 41 -15 14z"/>
<path d="M981 1024 c0 -11 3 -14 6 -6 3 7 2 16 -1 19 -3 4 -6 -2 -5 -13z"/>
<path d="M1021 1031 c0 -8 -8 -19 -17 -25 -13 -10 -14 -14 -2 -23 21 -18 35
-2 27 32 -4 17 -7 24 -8 16z"/>
<path d="M1105 1018 c-14 -31 -35 -35 -29 -6 4 21 4 21 -4 3 -5 -11 -7 -25 -5
-32 5 -13 45 -13 54 0 4 6 13 6 20 1 8 -5 22 -7 33 -5 12 2 16 -1 10 -10 -5
-9 -2 -11 9 -6 9 3 17 1 20 -6 2 -8 5 -8 11 1 4 7 3 12 -2 12 -6 0 -8 8 -5 19
3 10 -1 22 -7 26 -9 5 -10 2 -6 -13 7 -20 6 -20 -36 1 -24 12 -45 24 -48 29
-3 4 -10 -3 -15 -14z"/>
<path d="M1440 1030 c0 -5 7 -10 16 -10 8 0 12 5 9 10 -3 6 -10 10 -16 10 -5
0 -9 -4 -9 -10z"/>
<path d="M2531 1024 c0 -11 3 -14 6 -6 3 7 2 16 -1 19 -3 4 -6 -2 -5 -13z"/>
<path d="M2561 1024 c0 -11 3 -14 6 -6 3 7 2 16 -1 19 -3 4 -6 -2 -5 -13z"/>
<path d="M1410 1020 c0 -5 5 -10 10 -10 6 0 10 5 10 10 0 6 -4 10 -10 10 -5 0
-10 -4 -10 -10z"/>
<path d="M1475 1010 c-3 -5 -1 -10 4 -10 6 0 11 5 11 10 0 6 -2 10 -4 10 -3 0
-8 -4 -11 -10z"/>
<path d="M1610 1010 c0 -5 5 -10 10 -10 6 0 10 5 10 10 0 6 -4 10 -10 10 -5 0
-10 -4 -10 -10z"/>
<path d="M2020 1003 c0 -9 6 -13 15 -9 8 3 15 1 15 -4 0 -5 9 -12 20 -15 11
-3 20 -14 21 -23 0 -12 2 -13 6 -4 3 7 -5 24 -17 37 -27 29 -60 39 -60 18z"/>
<path d="M2238 1008 c17 -17 15 -41 -3 -34 -8 3 -15 1 -15 -3 0 -5 6 -11 14
-14 7 -3 16 -24 20 -46 3 -23 11 -41 16 -41 7 0 6 8 -1 23 -7 12 -12 23 -11
25 1 1 2 25 2 52 0 40 -3 50 -17 50 -13 0 -14 -3 -5 -12z"/>
<path d="M2400 1002 c0 -12 -4 -22 -9 -22 -5 0 -11 -7 -15 -15 -3 -9 0 -15 9
-15 14 0 32 57 21 67 -3 4 -6 -3 -6 -15z"/>
<path d="M1378 1003 c7 -3 16 -2 19 1 4 3 -2 6 -13 5 -11 0 -14 -3 -6 -6z"/>
<path d="M2581 994 c0 -11 3 -14 6 -6 3 7 2 16 -1 19 -3 4 -6 -2 -5 -13z"/>
<path d="M2120 996 c0 -2 7 -6 15 -10 8 -3 15 -1 15 4 0 6 -7 10 -15 10 -8 0
-15 -2 -15 -4z"/>
<path d="M2191 974 c0 -11 3 -14 6 -6 3 7 2 16 -1 19 -3 4 -6 -2 -5 -13z"/>
<path d="M2345 980 c-3 -5 -1 -10 4 -10 6 0 11 5 11 10 0 6 -2 10 -4 10 -3 0
-8 -4 -11 -10z"/>
<path d="M2617 973 c-4 -3 -7 -11 -7 -17 0 -6 5 -5 12 2 6 6 9 14 7 17 -3 3
-9 2 -12 -2z"/>
<path d="M880 953 c0 -15 2 -16 10 -3 8 13 10 12 10 -3 0 -10 4 -16 10 -12 13
8 1 35 -16 35 -8 0 -14 -8 -14 -17z"/>
<path d="M2040 949 c7 -11 14 -19 16 -16 7 7 -7 37 -17 37 -6 0 -5 -9 1 -21z"/>
<path d="M2120 961 c0 -5 5 -13 10 -16 6 -3 10 -2 10 4 0 5 -4 13 -10 16 -5 3
-10 2 -10 -4z"/>
<path d="M813 947 c3 -9 0 -18 -9 -21 -16 -6 -19 -26 -3 -26 5 0 7 5 4 10 -9
14 14 12 29 -3 7 -7 11 -19 8 -27 -3 -11 -1 -12 7 -4 12 11 5 44 -10 44 -5 0
-9 6 -9 14 0 8 -5 18 -12 22 -7 5 -9 2 -5 -9z"/>
<path d="M2552 949 c2 -6 8 -10 13 -10 5 0 11 4 13 10 2 6 -4 11 -13 11 -9 0
-15 -5 -13 -11z"/>
<path d="M1006 935 c-3 -8 -1 -15 4 -15 6 0 10 7 10 15 0 8 -2 15 -4 15 -2 0
-6 -7 -10 -15z"/>
<path d="M1821 934 c0 -11 3 -14 6 -6 3 7 2 16 -1 19 -3 4 -6 -2 -5 -13z"/>
<path d="M1030 908 c0 -36 4 -35 14 5 4 16 2 27 -4 27 -5 0 -10 -14 -10 -32z"/>
<path d="M1296 923 c-6 -14 -5 -15 5 -6 7 7 10 15 7 18 -3 3 -9 -2 -12 -12z"/>
<path d="M1800 917 c0 -9 -5 -17 -11 -17 -15 0 -39 -26 -39 -42 0 -8 4 -7 11
5 5 9 16 17 24 17 14 0 31 37 21 47 -3 4 -6 -1 -6 -10z"/>
<path d="M937 906 c-4 -10 -5 -21 -2 -24 9 -9 17 6 13 25 -3 17 -4 17 -11 -1z"/>
<path d="M711 885 c-18 -8 -45 -15 -60 -16 -25 0 -25 0 -3 -9 12 -5 22 -14 22
-20 0 -5 7 -10 15 -10 8 0 15 -4 15 -10 0 -5 5 -10 12 -10 6 0 4 7 -5 18 -21
23 -24 50 -4 33 8 -6 17 -8 21 -4 11 11 37 12 30 2 -9 -14 15 -39 32 -32 7 3
17 -2 20 -11 3 -9 10 -13 15 -10 5 3 0 14 -10 26 -11 11 -25 17 -31 13 -9 -6
-9 -2 -1 14 22 41 -7 52 -68 26z"/>
<path d="M1270 879 c0 -9 6 -19 13 -22 7 -3 12 4 12 18 0 12 -6 22 -12 22 -7
0 -13 -8 -13 -18z"/>
<path d="M1316 881 c-4 -7 -5 -15 -2 -18 9 -9 19 4 14 18 -4 11 -6 11 -12 0z"/>
<path d="M2140 876 c0 -9 5 -16 10 -16 6 0 10 4 10 9 0 6 -4 13 -10 16 -5 3
-10 -1 -10 -9z"/>
<path d="M2347 883 c-11 -10 -8 -45 3 -38 6 4 8 11 5 16 -4 5 -1 9 4 9 6 0 11
5 11 10 0 11 -13 13 -23 3z"/>
<path d="M1230 870 c0 -5 5 -10 10 -10 6 0 10 5 10 10 0 6 -4 10 -10 10 -5 0
-10 -4 -10 -10z"/>
<path d="M1470 872 c0 -4 9 -8 19 -8 11 0 17 4 15 8 -7 10 -34 10 -34 0z"/>
<path d="M1640 871 c0 -6 5 -11 10 -11 6 0 10 -7 10 -16 0 -13 -3 -14 -15 -4
-11 10 -18 9 -30 -3 -9 -10 -11 -18 -5 -22 5 -3 10 -1 10 4 0 6 10 10 23 8 17
-2 22 3 22 22 0 13 -6 26 -12 29 -7 2 -13 -1 -13 -7z"/>
<path d="M1877 873 c-4 -3 -7 -13 -7 -21 0 -12 3 -12 15 -2 8 7 15 16 15 21 0
11 -14 12 -23 2z"/>
<path d="M1344 845 c0 -14 7 -25 14 -25 16 0 15 25 -2 39 -11 10 -14 7 -12
-14z"/>
<path d="M1410 859 c0 -5 5 -7 10 -4 6 3 10 8 10 11 0 2 -4 4 -10 4 -5 0 -10
-5 -10 -11z"/>
<path d="M1120 846 c0 -8 4 -17 9 -20 5 -4 7 3 4 14 -6 23 -13 26 -13 6z"/>
<path d="M1465 840 c-3 -5 -1 -10 4 -10 6 0 11 5 11 10 0 6 -2 10 -4 10 -3 0
-8 -4 -11 -10z"/>
<path d="M1780 840 c-9 -6 -10 -10 -3 -10 6 0 15 5 18 10 8 12 4 12 -15 0z"/>
<path d="M2861 834 c0 -11 3 -14 6 -6 3 7 2 16 -1 19 -3 4 -6 -2 -5 -13z"/>
<path d="M2550 826 c0 -9 5 -16 10 -16 6 0 10 4 10 9 0 6 -4 13 -10 16 -5 3
-10 -1 -10 -9z"/>
<path d="M2210 823 c0 -4 5 -15 10 -23 8 -13 10 -13 10 2 0 9 -4 20 -10 23 -5
3 -10 3 -10 -2z"/>
<path d="M2314 819 c-3 -6 -2 -15 4 -21 6 -6 11 -2 15 11 5 22 -7 29 -19 10z"/>
<path d="M2044 807 c-8 -21 2 -35 16 -21 5 5 6 15 0 24 -8 12 -10 12 -16 -3z"/>
<path d="M2410 811 c0 -5 5 -13 10 -16 6 -3 10 -2 10 4 0 5 -4 13 -10 16 -5 3
-10 2 -10 -4z"/>
<path d="M2830 801 c0 -5 5 -13 10 -16 6 -3 10 -2 10 4 0 5 -4 13 -10 16 -5 3
-10 2 -10 -4z"/>
<path d="M710 792 c0 -4 9 -13 20 -20 22 -13 27 -3 8 16 -14 14 -28 16 -28 4z"/>
<path d="M900 790 c0 -6 7 -10 15 -10 8 0 15 2 15 4 0 2 -7 6 -15 10 -8 3 -15
1 -15 -4z"/>
<path d="M1021 784 c0 -11 3 -14 6 -6 3 7 2 16 -1 19 -3 4 -6 -2 -5 -13z"/>
<path d="M1050 786 c0 -9 5 -16 10 -16 6 0 10 4 10 9 0 6 -4 13 -10 16 -5 3
-10 -1 -10 -9z"/>
<path d="M2381 791 c-10 -7 -12 -23 -7 -65 4 -31 12 -56 17 -56 5 0 9 -7 9
-15 0 -9 9 -25 20 -37 11 -12 20 -30 20 -40 0 -10 5 -18 11 -18 17 0 4 -138
-16 -176 -8 -16 -15 -36 -15 -44 0 -8 -11 -35 -25 -58 -14 -24 -22 -48 -19
-53 3 -5 1 -9 -4 -9 -6 0 -12 -10 -16 -23 -3 -12 -16 -33 -28 -47 -13 -14 -29
-36 -36 -50 -7 -14 -29 -42 -48 -63 l-35 -37 25 0 c14 0 26 4 26 9 0 13 52 91
61 91 3 0 9 8 13 18 3 9 15 31 26 47 11 17 23 38 26 48 4 9 10 17 15 17 5 0 9
6 9 14 0 7 7 19 15 26 8 7 15 23 15 36 0 13 5 24 10 24 6 0 10 13 10 29 0 17
5 33 10 36 6 3 8 17 6 31 -3 13 0 38 6 54 7 22 7 34 -1 44 -10 11 -8 15 4 18
15 3 14 6 -4 27 -12 13 -21 27 -22 30 -4 37 -19 69 -19 43 0 -7 -4 -12 -9 -12
-8 0 -25 53 -24 77 0 7 -3 10 -8 7 -14 -8 -11 30 4 45 10 11 9 13 -5 8 -10 -4
-18 -2 -18 2 0 5 6 11 13 14 6 2 10 7 7 10 -3 3 -12 2 -19 -2z"/>
<path d="M830 774 c0 -8 5 -12 10 -9 6 4 8 11 5 16 -9 14 -15 11 -15 -7z"/>
<path d="M1480 775 c0 -8 2 -15 4 -15 2 0 6 7 10 15 3 8 1 15 -4 15 -6 0 -10
-7 -10 -15z"/>
<path d="M1634 776 c-10 -8 -17 -17 -14 -19 3 -3 14 1 24 9 11 7 17 16 15 19
-3 3 -14 -2 -25 -9z"/>
<path d="M870 770 c0 -5 5 -10 10 -10 6 0 10 5 10 10 0 6 -4 10 -10 10 -5 0
-10 -4 -10 -10z"/>
<path d="M1420 764 c0 -17 22 -14 28 4 2 7 -3 12 -12 12 -9 0 -16 -7 -16 -16z"/>
<path d="M2170 765 c0 -8 4 -15 10 -15 5 0 7 7 4 15 -4 8 -8 15 -10 15 -2 0
-4 -7 -4 -15z"/>
<path d="M1221 760 c-1 -18 18 -40 34 -40 5 0 3 6 -6 13 -9 7 -18 19 -22 27
-5 13 -6 13 -6 0z"/>
<path d="M1776 761 c-4 -7 -5 -15 -2 -18 9 -9 19 4 14 18 -4 11 -6 11 -12 0z"/>
<path d="M1820 761 c0 -17 18 -21 24 -6 3 9 0 15 -9 15 -8 0 -15 -4 -15 -9z"/>
<path d="M2292 757 c-7 -8 -9 -17 -5 -20 3 -4 -2 -7 -12 -7 -14 0 -15 -3 -5
-15 7 -8 8 -15 3 -15 -11 0 -38 -119 -29 -128 3 -3 6 3 6 14 0 11 9 36 20 56
14 27 16 38 7 41 -7 3 -5 6 4 6 11 1 19 14 24 37 7 41 3 51 -13 31z"/>
<path d="M2205 750 c-3 -5 -1 -10 4 -10 6 0 11 5 11 10 0 6 -2 10 -4 10 -3 0
-8 -4 -11 -10z"/>
<path d="M708 733 c-10 -2 -18 -8 -18 -12 0 -5 -17 -7 -37 -5 -25 2 -32 0 -23
-7 11 -6 2 -9 -28 -9 -24 0 -41 -4 -38 -8 3 -5 -8 -9 -24 -10 -25 -1 -83 -14
-167 -38 -15 -4 -23 -2 -23 5 0 8 -5 9 -19 1 -11 -6 -37 -7 -63 -2 -50 8 -85
7 -112 -4 -14 -5 -17 -4 -12 4 5 9 1 10 -16 3 -14 -5 -31 -5 -40 0 -18 10 -78
1 -78 -11 0 -5 30 -8 68 -8 37 0 109 -2 160 -5 53 -3 92 -1 92 4 0 6 10 5 21
-2 15 -8 28 -8 43 -1 24 12 58 20 136 32 30 4 64 11 74 16 11 4 56 15 100 24
45 9 81 20 81 24 0 10 -51 16 -77 9z"/>
<path d="M861 724 c0 -11 3 -14 6 -6 3 7 2 16 -1 19 -3 4 -6 -2 -5 -13z"/>
<path d="M940 720 c0 -5 5 -10 10 -10 6 0 10 5 10 10 0 6 -4 10 -10 10 -5 0
-10 -4 -10 -10z"/>
<path d="M1051 714 c0 -11 3 -14 6 -6 3 7 2 16 -1 19 -3 4 -6 -2 -5 -13z"/>
<path d="M1481 714 c0 -11 3 -14 6 -6 3 7 2 16 -1 19 -3 4 -6 -2 -5 -13z"/>
<path d="M1516 703 c8 -32 12 -39 19 -31 9 8 -6 58 -16 58 -5 0 -6 -12 -3 -27z"/>
<path d="M1725 720 c3 -5 8 -10 11 -10 2 0 4 5 4 10 0 6 -5 10 -11 10 -5 0 -7
-4 -4 -10z"/>
<path d="M1761 714 c0 -11 3 -14 6 -6 3 7 2 16 -1 19 -3 4 -6 -2 -5 -13z"/>
<path d="M2010 715 c0 -8 5 -15 10 -15 6 0 10 7 10 15 0 8 -4 15 -10 15 -5 0
-10 -7 -10 -15z"/>
<path d="M2542 710 c0 -14 2 -19 5 -12 2 6 2 18 0 25 -3 6 -5 1 -5 -13z"/>
<path d="M973 700 c-12 -28 -8 -39 8 -23 6 6 9 19 6 29 -3 17 -5 16 -14 -6z"/>
<path d="M1270 703 c0 -7 3 -13 8 -14 4 0 18 -3 32 -5 19 -3 26 0 27 13 1 14
-6 18 -33 18 -20 0 -34 -5 -34 -12z"/>
<path d="M1633 709 c-17 -6 -23 -16 -23 -39 0 -18 4 -29 10 -25 6 3 10 15 10
25 0 25 17 35 36 19 13 -10 17 -10 24 0 6 10 10 9 19 -5 10 -17 10 -16 7 6 -2
19 -9 25 -32 26 -16 1 -39 -2 -51 -7z"/>
<path d="M1850 705 c-7 -9 -10 -18 -6 -22 3 -3 6 -1 6 6 0 7 4 10 9 7 5 -3 11
1 15 9 7 19 -8 19 -24 0z"/>
<path d="M1399 697 c7 -9 17 -14 22 -11 5 3 9 -2 9 -10 0 -9 -5 -15 -11 -13
-6 1 -14 -4 -17 -12 -2 -8 0 -11 6 -7 6 3 12 -2 15 -11 2 -11 7 -3 12 20 8 43
9 42 -25 52 -22 7 -23 6 -11 -8z"/>
<path d="M1740 691 c0 -5 5 -13 10 -16 6 -3 10 -2 10 4 0 5 -4 13 -10 16 -5 3
-10 2 -10 -4z"/>
<path d="M1202 670 c0 -14 2 -19 5 -12 2 6 2 18 0 25 -3 6 -5 1 -5 -13z"/>
<path d="M1370 680 c0 -5 5 -10 11 -10 5 0 7 5 4 10 -3 6 -8 10 -11 10 -2 0
-4 -4 -4 -10z"/>
<path d="M730 670 c-13 -8 -12 -10 3 -10 9 0 17 5 17 10 0 12 -1 12 -20 0z"/>
<path d="M1240 676 c0 -2 7 -7 16 -10 8 -3 12 -2 9 4 -6 10 -25 14 -25 6z"/>
<path d="M1776 664 c-8 -21 -8 -34 2 -34 4 0 9 11 10 25 2 28 -3 32 -12 9z"/>
<path d="M2130 665 c0 -9 6 -12 15 -9 8 4 15 7 15 9 0 2 -7 5 -15 9 -9 3 -15
0 -15 -9z"/>
<path d="M2546 671 c-4 -5 -2 -12 3 -15 5 -4 12 -2 15 3 4 5 2 12 -3 15 -5 4
-12 2 -15 -3z"/>
<path d="M1011 648 c-1 -35 8 -58 24 -58 7 0 15 -7 19 -15 7 -20 36 -19 36 1
0 14 -3 14 -15 4 -12 -10 -15 -10 -15 3 0 8 -10 17 -22 21 -19 5 -21 8 -8 16
10 7 12 12 4 18 -6 4 -14 14 -17 22 -3 9 -6 4 -6 -12z"/>
<path d="M1081 654 c0 -11 3 -14 6 -6 3 7 2 16 -1 19 -3 4 -6 -2 -5 -13z"/>
<path d="M1674 655 c-10 -8 -17 -15 -14 -15 31 -7 41 -7 46 2 12 19 -11 29
-32 13z"/>
<path d="M598 638 c6 -6 18 -8 28 -6 14 3 12 5 -9 10 -19 3 -25 2 -19 -4z"/>
<path d="M1500 625 c0 -28 6 -31 25 -11 10 10 11 16 2 25 -18 18 -27 13 -27
-14z"/>
<path d="M1805 633 c-5 -14 -3 -15 6 -6 6 6 19 9 28 6 14 -4 14 -3 1 6 -21 15
-27 14 -35 -6z"/>
<path d="M2571 640 c0 -8 4 -22 9 -30 12 -18 12 -2 0 25 -6 13 -9 15 -9 5z"/>
<path d="M555 630 c-16 -7 -17 -9 -3 -9 9 -1 20 4 23 9 7 11 7 11 -20 0z"/>
<path d="M1264 615 c-10 -20 -9 -23 11 -21 20 1 21 4 13 21 -6 11 -11 21 -12
22 -1 1 -6 -9 -12 -22z"/>
<path d="M1349 632 c-12 -5 -14 -13 -8 -27 6 -17 8 -17 8 -2 1 9 6 17 12 17 6
0 9 -7 5 -15 -3 -9 0 -15 8 -15 9 0 12 8 8 25 -5 26 -7 28 -33 17z"/>
<path d="M1575 630 c-3 -5 -2 -10 4 -10 5 0 13 5 16 10 3 6 2 10 -4 10 -5 0
-13 -4 -16 -10z"/>
<path d="M1950 627 c0 -9 4 -18 9 -21 5 -4 8 1 7 9 -3 21 -16 31 -16 12z"/>
<path d="M787 610 c3 -11 7 -20 9 -20 2 0 4 9 4 20 0 11 -4 20 -9 20 -5 0 -7
-9 -4 -20z"/>
<path d="M896 614 c-4 -10 0 -24 9 -33 15 -15 16 -13 9 14 -9 38 -10 40 -18
19z"/>
<path d="M248 605 c-2 -3 -59 -5 -126 -6 -67 0 -120 -5 -117 -9 3 -5 12 -7 19
-4 7 3 19 -3 27 -12 9 -11 9 -15 2 -10 -14 8 -53 -10 -53 -24 0 -6 9 -6 23 -1
12 4 67 16 122 26 55 11 103 23 106 28 4 5 12 6 19 2 9 -5 11 -4 6 3 -8 13
-19 15 -28 7z"/>
<path d="M406 601 c-3 -5 1 -11 9 -15 8 -3 15 -1 15 4 0 13 -18 22 -24 11z"/>
<path d="M1465 600 c-3 -5 1 -10 9 -10 9 0 16 5 16 10 0 6 -4 10 -9 10 -6 0
-13 -4 -16 -10z"/>
<path d="M2092 578 c-10 -30 -10 -31 3 -14 13 17 21 46 12 46 -1 0 -8 -15 -15
-32z"/>
<path d="M2343 595 c-3 -9 -3 -19 1 -22 3 -4 6 1 6 10 0 8 6 18 13 20 9 4 9 6
-1 6 -7 1 -15 -6 -19 -14z"/>
<path d="M350 590 c0 -5 5 -10 11 -10 5 0 7 5 4 10 -3 6 -8 10 -11 10 -2 0 -4
-4 -4 -10z"/>
<path d="M1882 575 c0 -16 2 -22 5 -12 2 9 2 23 0 30 -3 6 -5 -1 -5 -18z"/>
<path d="M2530 591 c0 -6 5 -13 10 -16 6 -3 10 1 10 9 0 9 -4 16 -10 16 -5 0
-10 -4 -10 -9z"/>
<path d="M1220 573 c0 -13 5 -23 10 -23 13 0 13 11 0 30 -8 12 -10 11 -10 -7z"/>
<path d="M1392 567 c-17 -13 -29 -27 -25 -30 3 -4 12 -2 20 4 10 9 13 8 13 -5
0 -9 7 -16 15 -16 8 0 15 7 15 16 0 8 -4 13 -9 9 -19 -11 -23 17 -5 30 11 8
16 15 13 15 -3 0 -19 -11 -37 -23z"/>
<path d="M2021 578 c-1 -22 18 -33 32 -19 8 8 7 11 -5 11 -9 0 -19 6 -21 13
-3 7 -6 6 -6 -5z"/>
<path d="M2381 559 c-1 -98 -10 -229 -16 -239 -4 -6 -4 -14 -1 -17 14 -14 21
13 21 78 0 38 2 69 5 69 7 0 4 129 -3 136 -3 4 -6 -9 -6 -27z"/>
<path d="M2566 573 c-6 -14 -5 -15 5 -6 7 7 10 15 7 18 -3 3 -9 -2 -12 -12z"/>
<path d="M1010 570 c0 -5 5 -10 10 -10 6 0 10 5 10 10 0 6 -4 10 -10 10 -5 0
-10 -4 -10 -10z"/>
<path d="M1281 522 c1 -35 6 -65 10 -67 7 -5 0 116 -8 125 -2 2 -3 -24 -2 -58z"/>
<path d="M1597 562 c6 -14 25 -12 30 4 2 5 -5 10 -16 10 -11 0 -17 -5 -14 -14z"/>
<path d="M2190 560 c0 -22 15 -27 26 -8 5 7 3 8 -6 3 -10 -6 -12 -4 -7 8 3 10
2 17 -3 17 -6 0 -10 -9 -10 -20z"/>
<path d="M1907 557 c-3 -8 1 -14 9 -14 16 0 19 13 5 21 -5 3 -11 0 -14 -7z"/>
<path d="M1637 553 c-13 -12 -7 -21 16 -27 20 -5 23 -11 21 -38 -2 -18 -1 -24
2 -13 4 11 10 25 16 32 6 8 3 18 -11 32 -22 22 -33 26 -44 14z"/>
<path d="M1947 553 c-4 -3 -7 -11 -7 -17 0 -6 5 -5 12 2 6 6 9 14 7 17 -3 3
-9 2 -12 -2z"/>
<path d="M721 534 c0 -11 3 -14 6 -6 3 7 2 16 -1 19 -3 4 -6 -2 -5 -13z"/>
<path d="M1801 534 c0 -11 3 -14 6 -6 3 7 2 16 -1 19 -3 4 -6 -2 -5 -13z"/>
<path d="M1992 518 c3 -42 23 -66 31 -38 3 12 -1 24 -10 29 -10 5 -14 15 -10
25 4 9 2 16 -3 16 -6 0 -9 -15 -8 -32z"/>
<path d="M1110 525 c0 -8 4 -15 10 -15 5 0 7 7 4 15 -4 8 -8 15 -10 15 -2 0
-4 -7 -4 -15z"/>
<path d="M1201 537 c-1 -5 4 -18 10 -29 9 -17 13 -18 20 -7 13 21 11 32 -5 26
-8 -3 -17 -1 -20 6 -2 7 -5 8 -5 4z"/>
<path d="M1559 533 c-1 -5 -1 -11 0 -15 0 -5 -7 -8 -16 -8 -15 0 -15 -2 -4 -9
10 -7 19 -4 28 7 15 21 16 32 3 32 -5 0 -11 -3 -11 -7z"/>
<path d="M91 514 c0 -11 3 -14 6 -6 3 7 2 16 -1 19 -3 4 -6 -2 -5 -13z"/>
<path d="M906 508 c-9 -12 -16 -18 -17 -13 -1 18 -38 -129 -39 -155 -1 -23 -2
-23 -10 -5 -7 16 -9 12 -9 -20 -1 -26 -4 -35 -10 -27 -6 9 -8 5 -8 -15 1 -118
-7 -252 -14 -241 -6 9 -9 7 -9 -9 0 -16 6 -23 19 -23 14 0 17 6 14 24 -3 14 3
69 13 123 10 54 17 102 16 107 -2 4 1 13 6 20 5 6 10 29 10 50 1 22 6 44 12
50 5 5 10 18 10 27 0 14 23 71 48 122 9 17 -18 5 -32 -15z"/>
<path d="M1450 519 c0 -5 5 -7 10 -4 6 3 10 2 10 -4 0 -5 -6 -11 -12 -14 -7
-2 -10 -8 -5 -12 11 -13 31 11 24 29 -7 18 -27 22 -27 5z"/>
<path d="M2245 496 c0 -18 5 -38 12 -44 9 -9 10 -3 6 26 -7 49 -18 60 -18 18z"/>
<path d="M1902 500 c0 -14 2 -19 5 -12 2 6 2 18 0 25 -3 6 -5 1 -5 -13z"/>
<path d="M1960 510 c0 -5 5 -10 10 -10 6 0 10 5 10 10 0 6 -4 10 -10 10 -5 0
-10 -4 -10 -10z"/>
<path d="M1087 491 c3 -12 10 -21 15 -21 13 0 6 32 -9 37 -7 3 -9 -3 -6 -16z"/>
<path d="M1502 490 c0 -14 2 -19 5 -12 2 6 2 18 0 25 -3 6 -5 1 -5 -13z"/>
<path d="M657 480 c-25 -29 -21 -33 13 -13 17 9 30 21 30 25 0 15 -26 8 -43
-12z"/>
<path d="M1371 493 c0 -4 4 -17 9 -28 8 -19 9 -19 9 2 1 12 -3 25 -9 28 -5 3
-10 3 -9 -2z"/>
<path d="M1921 463 c-1 -33 3 -43 15 -43 11 0 14 -6 10 -17 -6 -17 -5 -17 8 0
16 21 26 22 26 2 0 -9 6 -12 15 -9 10 4 15 0 15 -15 0 -12 5 -21 10 -21 6 0
10 -13 10 -30 0 -16 4 -30 9 -30 5 0 5 16 0 38 -6 20 -11 43 -13 51 -3 15 -43
40 -67 41 -9 0 -20 15 -26 38 l-10 37 -2 -42z"/>
<path d="M2050 489 c0 -5 5 -7 10 -4 6 3 10 8 10 11 0 2 -4 4 -10 4 -5 0 -10
-5 -10 -11z"/>
<path d="M1186 473 c-6 -14 -5 -15 5 -6 7 7 10 15 7 18 -3 3 -9 -2 -12 -12z"/>
<path d="M980 461 c0 -11 4 -22 9 -25 5 -3 7 -15 4 -26 -3 -11 0 -20 6 -20 12
0 14 32 5 68 -8 27 -24 29 -24 3z"/>
<path d="M1411 438 c-10 -22 -10 -33 -2 -41 8 -8 11 -4 11 14 0 14 5 30 11 36
6 6 7 13 2 16 -5 3 -15 -8 -22 -25z"/>
<path d="M1520 458 c1 -12 50 -55 50 -44 0 3 -5 17 -12 31 -12 26 -38 35 -38
13z"/>
<path d="M1601 454 c0 -11 3 -14 6 -6 3 7 2 16 -1 19 -3 4 -6 -2 -5 -13z"/>
<path d="M1848 464 c-3 -5 -2 -18 2 -28 3 -11 9 -15 12 -10 3 5 2 18 -2 28 -3
11 -9 15 -12 10z"/>
<path d="M2038 463 c7 -3 16 -2 19 1 4 3 -2 6 -13 5 -11 0 -14 -3 -6 -6z"/>
<path d="M2133 455 c-16 -18 -16 -22 1 -28 9 -4 14 2 14 19 0 13 -1 24 -2 24
0 -1 -7 -7 -13 -15z"/>
<path d="M2757 459 c7 -7 15 -10 18 -7 3 3 -2 9 -12 12 -14 6 -15 5 -6 -5z"/>
<path d="M1327 441 c-3 -12 -1 -21 3 -21 15 0 23 21 12 32 -6 6 -11 2 -15 -11z"/>
<path d="M1700 453 c0 -5 5 -15 10 -23 8 -12 10 -11 10 8 0 12 -4 22 -10 22
-5 0 -10 -3 -10 -7z"/>
<path d="M1137 443 c-4 -3 -6 -18 -6 -32 1 -17 3 -20 6 -8 2 9 9 17 14 17 5 0
9 7 9 15 0 16 -12 20 -23 8z"/>
<path d="M1270 428 c0 -16 5 -28 10 -28 13 0 13 20 0 40 -8 12 -10 9 -10 -12z"/>
<path d="M1760 441 c0 -5 5 -13 10 -16 6 -3 10 -2 10 4 0 5 -4 13 -10 16 -5 3
-10 2 -10 -4z"/>
<path d="M2491 434 c0 -11 3 -14 6 -6 3 7 2 16 -1 19 -3 4 -6 -2 -5 -13z"/>
<path d="M1620 428 c0 -9 -6 -18 -12 -21 -7 -2 -10 -7 -7 -11 3 -3 14 1 25 8
15 12 17 17 7 27 -11 11 -13 10 -13 -3z"/>
<path d="M2930 415 c0 -8 5 -15 10 -15 6 0 10 7 10 15 0 8 -4 15 -10 15 -5 0
-10 -7 -10 -15z"/>
<path d="M2735 410 c3 -5 8 -10 11 -10 2 0 4 5 4 10 0 6 -5 10 -11 10 -5 0 -7
-4 -4 -10z"/>
<path d="M251 394 c0 -11 3 -14 6 -6 3 7 2 16 -1 19 -3 4 -6 -2 -5 -13z"/>
<path d="M1020 400 c0 -6 7 -13 15 -17 9 -3 15 -13 14 -22 -3 -32 1 -40 17
-34 11 4 22 -1 30 -12 12 -16 14 -17 14 -2 0 16 -33 41 -42 31 -3 -3 -9 11
-12 31 -4 21 -13 35 -21 35 -8 0 -15 -5 -15 -10z"/>
<path d="M1317 403 c-4 -3 -7 -11 -7 -17 0 -6 5 -5 12 2 6 6 9 14 7 17 -3 3
-9 2 -12 -2z"/>
<path d="M2866 402 c-6 -10 17 -23 45 -27 11 -1 15 4 11 18 -3 14 -7 15 -13 6
-6 -10 -11 -10 -22 0 -9 7 -18 8 -21 3z"/>
<path d="M1791 378 c0 -13 4 -32 8 -42 7 -18 8 -18 14 -3 3 9 2 17 -4 17 -6 0
-8 9 -4 19 3 11 1 22 -5 26 -6 4 -10 -3 -9 -17z"/>
<path d="M2201 383 c-7 -8 -11 -16 -8 -19 2 -2 10 2 17 11 17 20 9 27 -9 8z"/>
<path d="M1220 371 c0 -25 6 -27 13 -6 4 8 2 17 -3 20 -6 4 -10 -3 -10 -14z"/>
<path d="M1345 380 c3 -5 13 -10 21 -10 8 0 14 5 14 10 0 6 -9 10 -21 10 -11
0 -17 -4 -14 -10z"/>
<path d="M2961 374 c0 -11 3 -14 6 -6 3 7 2 16 -1 19 -3 4 -6 -2 -5 -13z"/>
<path d="M1282 370 c2 -8 14 -16 26 -18 27 -4 28 -20 5 -38 -17 -12 -16 -13 5
-11 19 1 22 6 20 32 -2 19 -8 29 -17 27 -7 -1 -20 3 -29 10 -13 11 -14 10 -10
-2z"/>
<path d="M1013 338 c6 -20 15 -34 19 -32 13 8 9 20 -11 45 l-19 24 11 -37z"/>
<path d="M1650 366 c0 -9 30 -14 35 -6 4 6 -3 10 -14 10 -12 0 -21 -2 -21 -4z"/>
<path d="M2082 361 c-11 -7 -11 -9 2 -14 10 -4 16 -1 16 8 0 17 -1 17 -18 6z"/>
<path d="M1417 346 c-3 -8 -2 -18 3 -21 13 -8 20 9 11 24 -6 10 -10 9 -14 -3z"/>
<path d="M1360 333 c0 -6 5 -15 11 -19 6 -3 8 -17 5 -30 -6 -23 -5 -23 13 -8
19 16 18 59 -1 48 -6 -4 -14 0 -19 7 -6 9 -9 10 -9 2z"/>
<path d="M1160 320 c0 -5 4 -10 9 -10 6 0 13 5 16 10 3 6 -1 10 -9 10 -9 0
-16 -4 -16 -10z"/>
<path d="M1465 320 c-3 -5 -1 -10 4 -10 6 0 11 5 11 10 0 6 -2 10 -4 10 -3 0
-8 -4 -11 -10z"/>
<path d="M1700 326 c0 -2 9 -6 20 -9 11 -3 20 -1 20 4 0 5 -9 9 -20 9 -11 0
-20 -2 -20 -4z"/>
<path d="M2106 322 c5 -4 12 -11 15 -15 3 -5 9 -2 12 5 3 9 -3 14 -15 15 -11
1 -16 -1 -12 -5z"/>
<path d="M2702 310 c0 -14 2 -19 5 -12 2 6 2 18 0 25 -3 6 -5 1 -5 -13z"/>
<path d="M1500 308 c0 -8 9 -14 21 -15 12 -1 19 3 16 10 -5 17 -37 21 -37 5z"/>
<path d="M2672 295 c0 -16 2 -22 5 -12 2 9 2 23 0 30 -3 6 -5 -1 -5 -18z"/>
<path d="M1203 293 c-15 -5 -17 -23 -4 -23 5 0 11 7 15 15 3 8 4 15 3 14 -1 0
-8 -3 -14 -6z"/>
<path d="M1450 291 c0 -5 6 -14 14 -21 12 -9 15 -8 13 9 -1 20 -27 31 -27 12z"/>
<path d="M2140 286 c0 -9 5 -16 10 -16 6 0 10 4 10 9 0 6 -4 13 -10 16 -5 3
-10 -1 -10 -9z"/>
<path d="M1100 281 c0 -10 30 -24 37 -17 3 3 2 9 -2 15 -8 13 -35 15 -35 2z"/>
<path d="M1985 280 c-3 -5 -2 -10 4 -10 5 0 13 5 16 10 3 6 2 10 -4 10 -5 0
-13 -4 -16 -10z"/>
<path d="M2071 276 c-10 -12 -8 -17 8 -26 19 -9 21 -8 19 15 -3 28 -10 31 -27
11z"/>
<path d="M1665 270 c-3 -5 1 -10 10 -10 9 0 13 5 10 10 -3 6 -8 10 -10 10 -2
0 -7 -4 -10 -10z"/>
<path d="M1845 270 c-3 -5 1 -10 9 -10 9 0 16 5 16 10 0 6 -4 10 -9 10 -6 0
-13 -4 -16 -10z"/>
<path d="M2470 261 c0 -25 6 -27 13 -6 4 8 2 17 -3 20 -6 4 -10 -3 -10 -14z"/>
<path d="M1223 255 c0 -8 4 -15 9 -15 4 0 8 4 8 9 0 6 -4 12 -8 15 -5 3 -9 -1
-9 -9z"/>
<path d="M1895 251 c-3 -5 -1 -12 5 -16 5 -3 10 1 10 9 0 18 -6 21 -15 7z"/>
<path d="M2005 241 c-3 -10 -5 -23 -4 -27 4 -22 -2 -34 -16 -34 -8 0 -15 -4
-15 -10 0 -5 7 -7 15 -3 9 3 22 -3 31 -13 14 -18 14 -18 4 4 -7 15 -8 33 -1
57 10 36 -3 60 -14 26z"/>
<path d="M2135 251 c-3 -5 -2 -12 3 -15 5 -3 9 1 9 9 0 17 -3 19 -12 6z"/>
<path d="M2730 241 c0 -5 5 -13 10 -16 6 -3 10 -2 10 4 0 5 -4 13 -10 16 -5 3
-10 2 -10 -4z"/>
<path d="M1108 229 c-19 -11 -25 -39 -8 -39 6 0 10 7 10 16 0 12 6 15 21 11
16 -4 18 -3 8 9 -6 8 -12 14 -13 14 0 0 -9 -5 -18 -11z"/>
<path d="M1460 230 c0 -8 5 -22 10 -30 9 -13 10 -13 10 0 0 8 -5 22 -10 30 -9
13 -10 13 -10 0z"/>
<path d="M2431 224 c0 -11 3 -14 6 -6 3 7 2 16 -1 19 -3 4 -6 -2 -5 -13z"/>
<path d="M1191 221 c-8 -5 -9 -11 -3 -15 5 -3 12 1 16 9 6 17 6 18 -13 6z"/>
<path d="M1240 222 c0 -13 23 -32 39 -32 11 0 9 5 -7 20 -23 21 -32 25 -32 12z"/>
<path d="M1940 214 c0 -14 -3 -14 -15 -4 -12 10 -15 10 -15 -4 0 -9 8 -16 20
-16 13 0 20 7 20 20 0 11 -2 20 -5 20 -3 0 -5 -7 -5 -16z"/>
<path d="M2060 209 c0 -11 4 -18 10 -14 5 3 7 12 3 20 -7 21 -13 19 -13 -6z"/>
<path d="M1871 206 c-11 -14 -11 -16 3 -16 9 0 16 -5 16 -12 0 -6 2 -9 5 -6 3
3 2 15 -3 27 -7 20 -9 21 -21 7z"/>
<path d="M2547 200 c-3 -11 -1 -23 4 -26 5 -3 9 6 9 20 0 31 -6 34 -13 6z"/>
<path d="M1780 195 c0 -8 5 -15 10 -15 6 0 10 7 10 15 0 8 -4 15 -10 15 -5 0
-10 -7 -10 -15z"/>
<path d="M1640 190 c0 -5 5 -10 11 -10 5 0 7 5 4 10 -3 6 -8 10 -11 10 -2 0
-4 -4 -4 -10z"/>
<path d="M1550 180 c0 -5 5 -10 11 -10 5 0 7 5 4 10 -3 6 -8 10 -11 10 -2 0
-4 -4 -4 -10z"/>
<path d="M1358 173 c13 -3 19 -9 16 -15 -4 -7 -2 -8 5 -4 17 11 3 26 -22 25
-22 -2 -22 -2 1 -6z"/>
<path d="M2375 169 c-4 -6 -5 -12 -2 -15 2 -3 7 2 10 11 7 17 1 20 -8 4z"/>
<path d="M1130 164 c0 -13 18 -39 24 -34 2 3 -2 14 -10 24 -8 11 -14 16 -14
10z"/>
<path d="M1430 161 c0 -5 5 -13 10 -16 6 -3 10 -2 10 4 0 5 -4 13 -10 16 -5 3
-10 2 -10 -4z"/>
<path d="M1680 159 c0 -5 5 -7 10 -4 6 3 10 8 10 11 0 2 -4 4 -10 4 -5 0 -10
-5 -10 -11z"/>
<path d="M2521 154 c0 -11 3 -14 6 -6 3 7 2 16 -1 19 -3 4 -6 -2 -5 -13z"/>
<path d="M1620 150 c0 -5 5 -10 10 -10 6 0 10 5 10 10 0 6 -4 10 -10 10 -5 0
-10 -4 -10 -10z"/>
<path d="M1920 150 c0 -5 4 -10 9 -10 6 0 13 5 16 10 3 6 -1 10 -9 10 -9 0
-16 -4 -16 -10z"/>
<path d="M71 134 c0 -11 3 -14 6 -6 3 7 2 16 -1 19 -3 4 -6 -2 -5 -13z"/>
<path d="M1655 130 c4 -6 10 -8 15 -5 4 3 10 -1 13 -7 2 -7 8 -9 13 -5 5 4 2
12 -6 17 -20 13 -43 13 -35 0z"/>
<path d="M1733 133 c9 -2 17 -9 17 -14 0 -6 5 -7 10 -4 19 12 10 25 -17 24
-17 -1 -21 -3 -10 -6z"/>
<path d="M2470 111 c0 -12 5 -21 10 -21 6 0 10 6 10 14 0 8 -4 18 -10 21 -5 3
-10 -3 -10 -14z"/>
<path d="M2830 114 c0 -8 5 -12 10 -9 6 4 8 11 5 16 -9 14 -15 11 -15 -7z"/>
<path d="M2966 115 c4 -8 7 -15 9 -15 1 0 8 7 15 15 10 13 9 15 -8 15 -15 0
-20 -5 -16 -15z"/>
<path d="M1331 89 c23 -23 34 -28 42 -20 8 8 7 11 -4 11 -8 0 -20 9 -27 20 -7
11 -19 20 -27 20 -9 0 -3 -11 16 -31z"/>
<path d="M1630 110 c0 -5 7 -10 16 -10 8 0 12 5 9 10 -3 6 -10 10 -16 10 -5 0
-9 -4 -9 -10z"/>
<path d="M1911 104 c0 -11 3 -14 6 -6 3 7 2 16 -1 19 -3 4 -6 -2 -5 -13z"/>
<path d="M1530 90 c-9 -6 -10 -10 -3 -10 6 0 15 5 18 10 8 12 4 12 -15 0z"/>
<path d="M2939 95 c-5 -20 -3 -65 4 -65 4 0 7 6 8 13 0 6 2 22 3 35 2 18 -11
33 -15 17z"/>
<path d="M500 64 c0 -8 5 -12 10 -9 6 4 8 11 5 16 -9 14 -15 11 -15 -7z"/>
<path d="M1841 64 c0 -11 3 -14 6 -6 3 7 2 16 -1 19 -3 4 -6 -2 -5 -13z"/>
<path d="M1110 59 c0 -5 5 -7 10 -4 6 3 10 8 10 11 0 2 -4 4 -10 4 -5 0 -10
-5 -10 -11z"/>
<path d="M1170 55 c0 -8 4 -15 10 -15 5 0 7 7 4 15 -4 8 -8 15 -10 15 -2 0 -4
-7 -4 -15z"/>
<path d="M1556 55 c4 -8 8 -15 10 -15 2 0 4 7 4 15 0 8 -4 15 -10 15 -5 0 -7
-7 -4 -15z"/>
<path d="M1865 60 c-3 -5 -1 -10 4 -10 6 0 11 5 11 10 0 6 -2 10 -4 10 -3 0
-8 -4 -11 -10z"/>
<path d="M1300 44 c0 -8 5 -12 10 -9 6 4 8 11 5 16 -9 14 -15 11 -15 -7z"/>
<path d="M1380 39 c0 -5 5 -7 10 -4 6 3 10 8 10 11 0 2 -4 4 -10 4 -5 0 -10
-5 -10 -11z"/>
<path d="M2525 40 c3 -5 11 -10 16 -10 6 0 7 5 4 10 -3 6 -11 10 -16 10 -6 0
-7 -4 -4 -10z"/>
</g>
</svg>
